<svg width="151" height="173" viewBox="0 0 151 173" fill="none" xmlns="http://www.w3.org/2000/svg">
<rect width="151" height="173" rx="16" fill="#F9F7F3"/>
<path fill-rule="evenodd" clip-rule="evenodd" d="M115.339 72.4327C115.339 68.5482 118.648 65.3997 122.732 65.3997V51.3316C118.648 51.3316 115.339 48.1831 115.339 44.2986C115.339 40.4141 118.648 37.2656 122.732 37.2656V30.2305H114.383C114.383 34.115 111.071 37.2656 106.988 37.2656C102.904 37.2656 99.5942 34.115 99.5942 30.2305H82.8943C82.8943 34.115 79.5845 37.2656 75.5009 37.2656C71.4174 37.2656 68.1054 34.115 68.1054 30.2305H51.4055C51.4055 34.115 48.0956 37.2656 44.0121 37.2656C39.9286 37.2656 36.6188 34.115 36.6188 30.2305H28.2677V37.2656C32.3512 37.2656 35.6611 40.4141 35.6611 44.2986C35.6611 48.1831 32.3512 51.3316 28.2677 51.3316V65.3997C32.3512 65.3997 35.6611 68.5482 35.6611 72.4327C35.6611 76.3171 32.3512 79.4657 28.2677 79.4657V93.5337C32.3512 93.5337 35.6611 96.6823 35.6611 100.567C35.6611 104.451 32.3512 107.6 28.2677 107.6V121.668C32.3512 121.668 35.6611 124.816 35.6611 128.701C35.6611 132.585 32.3512 135.734 28.2677 135.734V142.769H36.6188C36.6188 138.884 39.9286 135.734 44.0121 135.734C48.0956 135.734 51.4055 138.884 51.4055 142.769H68.1054C68.1054 138.884 71.4174 135.734 75.5009 135.734C79.5845 135.734 82.8943 138.884 82.8943 142.769H99.5942C99.5942 138.884 102.904 135.734 106.988 135.734C111.071 135.734 114.383 138.884 114.383 142.769H122.732V135.734C118.648 135.734 115.339 132.585 115.339 128.701C115.339 124.816 118.648 121.668 122.732 121.668V107.6C118.648 107.6 115.339 104.451 115.339 100.567C115.339 96.6823 118.648 93.5337 122.732 93.5337V79.4657C118.648 79.4657 115.339 76.3171 115.339 72.4327Z" fill="#486AE9"/>
<path fill-rule="evenodd" clip-rule="evenodd" d="M52.0508 45.9599C54.8949 48.9464 52.2401 47.8707 49.2351 50.7119C46.23 53.5531 46.6171 56.7727 43.7729 53.7862C41.1829 49.9653 39.8684 47.0283 42.8735 44.1872C45.8786 41.346 48.8807 43.7324 52.0508 45.9599Z" fill="#FF6587"/>
<path fill-rule="evenodd" clip-rule="evenodd" d="M89.015 45.9599C91.8591 48.9464 89.2044 47.8707 86.1993 50.7119C83.1942 53.5531 83.5813 56.7727 80.7372 53.7862C78.1472 49.9653 76.8326 47.0283 79.8377 44.1872C82.8428 41.346 85.8449 43.7324 89.015 45.9599Z" fill="#FF6587"/>
<path fill-rule="evenodd" clip-rule="evenodd" d="M62.5101 45.9913C62.6441 50.1062 61.3774 47.5448 57.237 47.6787C53.0965 47.8126 51.2388 50.4751 51.1048 46.3603C51.717 41.79 52.693 38.7248 56.8335 38.5909C60.9739 38.4569 61.6263 42.2279 62.5101 45.9913Z" fill="#FF6587"/>
<path fill-rule="evenodd" clip-rule="evenodd" d="M99.4742 45.9913C99.6083 50.1062 98.3415 47.5448 94.2011 47.6787C90.0606 47.8126 88.203 50.4751 88.0689 46.3603C88.6811 41.79 89.6572 38.7248 93.7976 38.5909C97.938 38.4569 98.5904 42.2279 99.4742 45.9913Z" fill="#FF6587"/>
<path fill-rule="evenodd" clip-rule="evenodd" d="M69.6464 52.1552C67.2502 55.5093 67.8005 52.7069 64.4256 50.3132C61.0507 47.9196 57.9536 48.9156 60.3498 45.5616C63.6166 42.2959 66.2573 40.4472 69.6322 42.8408C73.0071 45.2345 71.2324 48.6279 69.6464 52.1552Z" fill="#FF6587"/>
<path fill-rule="evenodd" clip-rule="evenodd" d="M106.61 52.1552C104.214 55.5093 104.765 52.7069 101.39 50.3132C98.0148 47.9196 94.9177 48.9156 97.3139 45.5616C100.581 42.2959 103.221 40.4472 106.596 42.8408C109.971 45.2345 108.197 48.6279 106.61 52.1552Z" fill="#FF6587"/>
<path fill-rule="evenodd" clip-rule="evenodd" d="M73.002 60.197C69.3523 62.1272 71.1036 59.8669 69.1614 56.221C67.2191 52.5751 64.0022 52.0842 67.6519 50.154C72.0403 48.6912 75.2323 48.216 77.1746 51.8619C79.1168 55.5078 76.0051 57.7505 73.002 60.197Z" fill="#FF6587"/>
<path fill-rule="evenodd" clip-rule="evenodd" d="M109.966 60.197C106.317 62.1272 108.068 59.8669 106.126 56.221C104.183 52.5751 100.966 52.0842 104.616 50.154C109.005 48.6912 112.197 48.216 114.139 51.8619C116.081 55.5078 112.969 57.7505 109.966 60.197Z" fill="#FF6587"/>
<path fill-rule="evenodd" clip-rule="evenodd" d="M70.9616 66.3589C66.8342 66.1666 69.4971 65.111 69.6906 60.9878C69.8842 56.8647 67.3674 54.8089 71.4949 55.0013C76.0189 55.971 79.0083 57.1829 78.8147 61.3061C78.6212 65.4292 74.7968 65.7789 70.9616 66.3589Z" fill="#FF6587"/>
<path fill-rule="evenodd" clip-rule="evenodd" d="M108.23 66.4092C104.1 66.2894 106.744 65.1872 106.864 61.0613C106.985 56.9354 104.432 54.9241 108.563 55.0439C113.103 55.9341 116.113 57.0933 115.993 61.2193C115.872 65.3452 112.055 65.7619 108.23 66.4092Z" fill="#FF6587"/>
<path fill-rule="evenodd" clip-rule="evenodd" d="M67.2985 72.0661C63.6437 70.1454 66.5044 70.3165 68.4371 66.6656C70.3697 63.0146 68.9674 60.0884 72.6221 62.0091C76.3046 64.8014 78.4945 67.1636 76.5619 70.8145C74.6292 74.4655 71.0179 73.1638 67.2985 72.0661Z" fill="#FF6587"/>
<path fill-rule="evenodd" clip-rule="evenodd" d="M104.263 72.0661C100.608 70.1454 103.469 70.3165 105.401 66.6656C107.334 63.0146 105.931 60.0884 109.586 62.0091C113.269 64.8014 115.459 67.1636 113.526 70.8145C111.593 74.4655 107.982 73.1638 104.263 72.0661Z" fill="#FF6587"/>
<path fill-rule="evenodd" clip-rule="evenodd" d="M57.8191 74.9967C56.401 71.1297 58.4077 73.1683 62.2987 71.7516C66.1897 70.3349 67.1191 67.2273 68.5373 71.0942C69.3894 75.6262 69.4237 78.8418 65.5328 80.2585C61.6418 81.6751 59.8392 78.2963 57.8191 74.9967Z" fill="#FF6587"/>
<path fill-rule="evenodd" clip-rule="evenodd" d="M94.7841 75.1954C93.3659 71.3284 95.3727 73.367 99.2637 71.9503C103.155 70.5337 104.084 67.426 105.502 71.293C106.354 75.8249 106.389 79.0405 102.498 80.4572C98.6068 81.8739 96.8042 78.4951 94.7841 75.1954Z" fill="#FF6587"/>
<path fill-rule="evenodd" clip-rule="evenodd" d="M49.9248 72.8084C50.6276 68.7513 51.349 71.5149 55.4313 72.2169C59.5135 72.919 61.8726 70.6853 61.1698 74.7423C59.6438 79.0951 58.0665 81.9007 53.9843 81.1987C49.902 80.4966 50.0275 76.6721 49.9248 72.8084Z" fill="#FF6587"/>
<path fill-rule="evenodd" clip-rule="evenodd" d="M85.8985 72.4797C86.8651 68.4769 87.4043 71.2814 91.4319 72.247C95.4596 73.2126 97.9598 71.1367 96.9932 75.1395C95.1857 79.3841 93.4283 82.0813 89.4007 81.1157C85.373 80.1501 85.7483 76.3419 85.8985 72.4797Z" fill="#FF6587"/>
<path fill-rule="evenodd" clip-rule="evenodd" d="M43.4142 66.8006C46.0639 63.6415 45.2974 66.393 48.4761 69.0399C51.6549 71.6868 54.8201 70.9327 52.1704 74.0918C48.6596 77.0956 45.8831 78.735 42.7044 76.0881C39.5256 73.4412 41.5588 70.1949 43.4142 66.8006Z" fill="#FF6587"/>
<path fill-rule="evenodd" clip-rule="evenodd" d="M80.3783 66.8006C83.028 63.6415 82.2615 66.393 85.4402 69.0399C88.619 71.6868 91.7842 70.9327 89.1345 74.0918C85.6237 77.0956 82.8472 78.735 79.6685 76.0881C76.4898 73.4412 78.5229 70.1949 80.3783 66.8006Z" fill="#FF6587"/>
<path fill-rule="evenodd" clip-rule="evenodd" d="M41.8208 57.3794C45.8362 56.4081 43.5784 58.1669 44.5557 62.178C45.533 66.1892 48.5283 67.4573 44.5129 68.4286C39.8978 68.7649 36.687 68.439 35.7097 64.4278C34.7323 60.4167 38.3039 59.0101 41.8208 57.3794Z" fill="#FF6587"/>
<path fill-rule="evenodd" clip-rule="evenodd" d="M78.7849 57.3794C82.8003 56.4081 80.5425 58.1669 81.5198 62.178C82.4971 66.1892 85.4924 67.4573 81.477 68.4286C76.8619 68.7649 73.6511 68.439 72.6738 64.4278C71.6965 60.4167 75.268 59.0101 78.7849 57.3794Z" fill="#FF6587"/>
<path fill-rule="evenodd" clip-rule="evenodd" d="M45.3565 51.1304C49.2603 52.4797 46.4064 52.7406 45.0487 56.6402C43.691 60.5399 45.5203 63.2218 41.6166 61.8725C37.5535 59.6658 35.031 57.6598 36.3887 53.7601C37.7464 49.8604 41.5135 50.6044 45.3565 51.1304Z" fill="#FF6587"/>
<path fill-rule="evenodd" clip-rule="evenodd" d="M82.3205 51.1304C86.2243 52.4797 83.3704 52.7406 82.0127 56.6402C80.655 60.5399 82.4843 63.2218 78.5805 61.8725C74.5175 59.6658 71.995 57.6598 73.3527 53.7601C74.7104 49.8604 78.4775 50.6044 82.3205 51.1304Z" fill="#FF6587"/>
<path fill-rule="evenodd" clip-rule="evenodd" d="M73.8768 118.855L56.7536 69.139L62.6936 67.1079L79.8168 116.824L73.8768 118.855Z" fill="#3AAD73"/>
<path fill-rule="evenodd" clip-rule="evenodd" d="M54.7725 93.9477L56.2247 85.3306L64.6836 90.7483L67.8274 93.5119L54.7725 93.9477Z" fill="#3AAD73"/>
<path fill-rule="evenodd" clip-rule="evenodd" d="M68.4839 89.3198L69.9361 80.7027L76.6198 80.4546L68.5315 89.4581L68.4839 89.3198Z" fill="#3AAD73"/>
<path fill-rule="evenodd" clip-rule="evenodd" d="M72.7425 117.541L87.4114 67.0524L93.4438 68.7924L78.7749 119.281L72.7425 117.541Z" fill="#3AAD73"/>
<path fill-rule="evenodd" clip-rule="evenodd" d="M71.4784 86.2185L77.6378 79.9989L81.4342 89.2768L82.4125 93.3388L71.4784 86.2185Z" fill="#3AAD73"/>
<path fill-rule="evenodd" clip-rule="evenodd" d="M85.3681 90.2844L91.5275 84.0648L97.1398 87.6898L85.3272 90.4248L85.3681 90.2844Z" fill="#3AAD73"/>
<path fill-rule="evenodd" clip-rule="evenodd" d="M71.5489 56.5689C70.039 48.8029 62.4964 43.7269 54.7023 45.2314L60.1704 73.3547C67.9645 71.8502 73.0589 64.3349 71.5489 56.5689Z" fill="#FFD300"/>
<path fill-rule="evenodd" clip-rule="evenodd" d="M43.3251 62.0175C44.8351 69.7835 52.3776 74.8595 60.1718 73.355L54.7037 45.2317C46.9095 46.7362 41.8151 54.2516 43.3251 62.0175Z" fill="#FFD300"/>
<path fill-rule="evenodd" clip-rule="evenodd" d="M106.769 65.2414C110.014 58.0217 106.77 49.5482 99.5243 46.3154L87.7747 72.4601C95.0205 75.6929 103.525 72.461 106.769 65.2414Z" fill="#FFD300"/>
<path fill-rule="evenodd" clip-rule="evenodd" d="M80.5298 53.534C77.2853 60.7536 80.529 69.2271 87.7748 72.46L99.5244 46.3153C92.2786 43.0825 83.7744 46.3144 80.5298 53.534Z" fill="#FFD300"/>
<path d="M91.1126 97.7544C88.2127 101.35 83.7513 103.795 78.7694 104.371V124.307C78.7694 124.594 78.5464 124.81 78.2489 124.81C77.9515 124.81 77.7284 124.594 77.7284 124.307V104.442C77.431 104.442 77.0592 104.442 76.7618 104.442C76.6874 104.442 76.6131 104.442 76.5387 104.442V124.298V124.307C76.5387 124.594 76.3157 124.81 76.0182 124.81C75.7208 124.81 75.4977 124.594 75.4977 124.307V104.386C75.0516 104.386 74.6798 104.371 74.2337 104.299V124.307C74.2337 124.594 74.0106 124.81 73.7132 124.81C73.4157 124.81 73.1927 124.594 73.1927 124.307V104.155C68.8056 103.364 64.9391 101.062 62.3366 97.7544C57.3547 101.71 58.2169 113.057 58.2169 119.745C58.2169 131.611 64.0468 132.539 76.5387 132.539C89.0306 132.539 95.0096 131.211 95.0096 119.345C95.0096 112.657 96.1689 101.71 91.1126 97.7544Z" fill="#FFD300"/>
<path d="M78.7694 124.307V104.371L77.7284 104.442V124.307H78.7694Z" fill="#FFD300"/>
<path d="M76.5417 124.354V104.362L75.5007 104.434V104.386V124.298H76.5387L76.5417 124.354Z" fill="#FFD300"/>
<path d="M74.2337 124.307V104.371L73.1927 104.442L73.1927 124.307H74.2337Z" fill="#FFD300"/>
<path d="M73.7132 124.81C74.0106 124.81 74.2337 124.594 74.2337 124.307H73.1927C73.1927 124.594 73.4157 124.81 73.7132 124.81Z" fill="#FFD300"/>
<path d="M76.5387 124.307V124.298H75.5007V104.386H75.4977V124.307C75.4977 124.594 75.7208 124.81 76.0182 124.81C76.3157 124.81 76.5387 124.594 76.5387 124.307Z" fill="#FFD300"/>
<path d="M78.2489 124.81C78.5464 124.81 78.7694 124.594 78.7694 124.307H77.7284C77.7284 124.594 77.9515 124.81 78.2489 124.81Z" fill="#FFD300"/>
<path fill-rule="evenodd" clip-rule="evenodd" d="M24.1611 153H130.947V142.77H24.1611V153Z" fill="#02004E"/>
<path fill-rule="evenodd" clip-rule="evenodd" d="M22.1074 30.2308H128.893V20H22.1074V30.2308Z" fill="#02004E"/>
<path fill-rule="evenodd" clip-rule="evenodd" d="M28.2679 153L28.2679 20H18L18 153H28.2679Z" fill="#02004E"/>
<path fill-rule="evenodd" clip-rule="evenodd" d="M133 153L133 20H122.732L122.732 153H133Z" fill="#02004E"/>
</svg>
