<svg width="17" height="24" viewBox="0 0 17 24" fill="none" xmlns="http://www.w3.org/2000/svg">
<g clip-path="url(#clip0_689_2345)">
<path d="M7.72368 15.3506V19.2714C7.72368 19.6041 7.55897 19.913 7.25309 20.1031L4.2178 21.9328L0.923679 23.9288C0.829561 23.9763 0.711914 23.9288 0.711914 23.81V20.2219C0.711914 20.1743 0.735443 20.1268 0.782502 20.1031L4.2178 18.012L5.37074 17.2991L7.22956 16.1585C7.55897 15.9922 7.72368 15.6833 7.72368 15.3506Z" fill="#486AE9"/>
<path d="M7.72359 4.68134C7.72359 4.99025 7.55888 5.32293 7.253 5.51303L5.39418 6.65362L4.24123 5.94075L0.80594 3.87342C0.758881 3.84966 0.735352 3.80213 0.735352 3.75461V0.142728C0.735352 0.0476786 0.852999 -0.0236086 0.947116 0.0239162L4.24123 2.01996L7.27653 3.84966C7.55888 4.03976 7.72359 4.37243 7.72359 4.68134Z" fill="#FFD300"/>
<path d="M7.72359 4.68164V8.60243C7.72359 8.93511 7.55888 9.24402 7.253 9.43412L4.2177 11.2638L3.06476 11.9767L1.20594 13.1173C0.900057 13.3074 0.735352 13.6163 0.735352 13.949V10.0282C0.735352 9.6955 0.900057 9.38659 1.20594 9.19649L4.24123 7.36679L5.39418 6.65392L7.253 5.51332C7.55888 5.32322 7.72359 5.01431 7.72359 4.68164Z" fill="#486AE9"/>
<path d="M7.72359 15.3508C7.72359 15.6835 7.55888 15.9924 7.253 16.1825L5.39418 17.3231L4.24123 16.6102L1.20594 14.7805C0.900057 14.5904 0.735352 14.2815 0.735352 13.9488C0.735352 13.6162 0.900057 13.3073 1.20594 13.1172L3.06476 11.9766L4.2177 12.6894L7.253 14.5191C7.55888 14.7092 7.72359 15.0419 7.72359 15.3508Z" fill="#FF6587"/>
<path d="M16.5 10.0283C16.5 10.3373 16.3352 10.6699 16.0294 10.86L14.1705 12.0006L13.0176 11.2878L9.58231 9.19666C9.53525 9.1729 9.51172 9.12538 9.51172 9.07785V5.46597C9.51172 5.37092 9.62937 5.29963 9.72348 5.34716L13.0176 7.3432L16.0529 9.1729C16.3588 9.38676 16.5 9.69567 16.5 10.0283Z" fill="#00C88B"/>
<path d="M16.5 10.0283V13.9491C16.5 14.2818 16.3353 14.5907 16.0295 14.7808L12.9942 16.6105L9.70005 18.6065C9.60593 18.6541 9.48828 18.6065 9.48828 18.4877V14.8996C9.48828 14.8521 9.51181 14.8046 9.55887 14.7808L12.9942 12.6897L14.1471 11.9768L16.0059 10.8362C16.3589 10.6699 16.5 10.3372 16.5 10.0283Z" fill="#486AE9"/>
</g>
<defs>
<clipPath id="clip0_689_2345">
<rect width="16" height="24" fill="white" transform="translate(0.5)"/>
</clipPath>
</defs>
</svg>
