<svg width="336" height="439" viewBox="0 0 336 439" fill="none" xmlns="http://www.w3.org/2000/svg">
<rect width="336" height="439" rx="16" fill="#F9F7F3"/>
<path d="M31.125 30.0455H37.0227L41.0795 39.9318H41.2841L45.3409 30.0455H51.2386V47.5H46.6023V37.4091H46.4659L42.5795 47.3636H39.7841L35.8977 37.3409H35.7614V47.5H31.125V30.0455ZM57.2003 47.7045C56.3651 47.7045 55.6264 47.5682 54.9844 47.2955C54.348 47.017 53.848 46.5966 53.4844 46.0341C53.1207 45.4716 52.9389 44.7557 52.9389 43.8864C52.9389 43.1705 53.0611 42.5597 53.3054 42.054C53.5497 41.5426 53.8906 41.125 54.3281 40.8011C54.7656 40.4773 55.2741 40.2301 55.8537 40.0597C56.4389 39.8892 57.0696 39.7784 57.7457 39.7273C58.4787 39.6705 59.0668 39.6023 59.5099 39.5227C59.9588 39.4375 60.2827 39.321 60.4815 39.1733C60.6804 39.0199 60.7798 38.8182 60.7798 38.5682V38.5341C60.7798 38.1932 60.6491 37.9318 60.3878 37.75C60.1264 37.5682 59.7912 37.4773 59.3821 37.4773C58.9332 37.4773 58.5668 37.5767 58.2827 37.7756C58.0043 37.9687 57.8366 38.267 57.7798 38.6705H53.4503C53.5071 37.875 53.7599 37.142 54.2088 36.4716C54.6634 35.7955 55.3253 35.2557 56.1946 34.8523C57.0639 34.4432 58.1491 34.2386 59.4503 34.2386C60.3878 34.2386 61.2287 34.3494 61.973 34.571C62.7173 34.7869 63.3509 35.0909 63.8736 35.483C64.3963 35.8693 64.794 36.3239 65.0668 36.8466C65.3452 37.3636 65.4844 37.9261 65.4844 38.5341V47.5H61.0866V45.6591H60.9844C60.723 46.1477 60.4048 46.5426 60.0298 46.8438C59.6605 47.1449 59.2372 47.3636 58.7599 47.5C58.2884 47.6364 57.7685 47.7045 57.2003 47.7045ZM58.7344 44.7386C59.0923 44.7386 59.4276 44.6648 59.7401 44.517C60.0582 44.3693 60.3168 44.1562 60.5156 43.8778C60.7145 43.5994 60.8139 43.2614 60.8139 42.8636V41.7727C60.6889 41.8239 60.5554 41.8722 60.4134 41.9176C60.277 41.9631 60.1293 42.0057 59.9702 42.0455C59.8168 42.0852 59.652 42.1222 59.4759 42.1562C59.3054 42.1903 59.1264 42.2216 58.9389 42.25C58.5753 42.3068 58.277 42.4006 58.044 42.5312C57.8168 42.6562 57.6463 42.8125 57.5327 43C57.4247 43.1818 57.3707 43.3864 57.3707 43.6136C57.3707 43.9773 57.4986 44.2557 57.7543 44.4489C58.0099 44.642 58.3366 44.7386 58.7344 44.7386ZM70.1271 52.4091C69.5874 52.4091 69.0732 52.3665 68.5845 52.2812C68.0959 52.2017 67.6669 52.0909 67.2976 51.9489L68.3203 48.608C68.7067 48.7443 69.0589 48.8324 69.3771 48.8722C69.701 48.9119 69.9766 48.8892 70.2038 48.804C70.4368 48.7188 70.6044 48.5568 70.7067 48.3182L70.8089 48.0795L66.2067 34.4091H71.1158L73.2294 43.4773H73.3658L75.5135 34.4091H80.4567L75.6839 48.5909C75.4453 49.3125 75.0987 49.9602 74.6442 50.5341C74.1953 51.1136 73.6044 51.571 72.8714 51.9062C72.1385 52.2415 71.2237 52.4091 70.1271 52.4091ZM86.5419 47.5V44.0909L93.0533 38.7045C93.4851 38.3466 93.8544 38.0114 94.1612 37.6989C94.4737 37.3807 94.7124 37.054 94.8771 36.7188C95.0476 36.3835 95.1328 36.0114 95.1328 35.6023C95.1328 35.1534 95.0362 34.7699 94.843 34.4517C94.6555 34.1335 94.3942 33.8892 94.0589 33.7188C93.7237 33.5426 93.3374 33.4545 92.8999 33.4545C92.4624 33.4545 92.076 33.5426 91.7408 33.7188C91.4112 33.8949 91.1555 34.1534 90.9737 34.4943C90.7919 34.8352 90.701 35.25 90.701 35.7386H86.201C86.201 34.5114 86.4766 33.4545 87.0277 32.5682C87.5788 31.6818 88.3572 31 89.3629 30.5227C90.3686 30.0455 91.5476 29.8068 92.8999 29.8068C94.2976 29.8068 95.5078 30.0312 96.5305 30.4801C97.5589 30.9233 98.3516 31.5483 98.9084 32.3551C99.4709 33.1619 99.7521 34.108 99.7521 35.1932C99.7521 35.8636 99.6129 36.5312 99.3345 37.196C99.0561 37.8551 98.5561 38.5852 97.8345 39.3864C97.1129 40.1875 96.0874 41.142 94.7578 42.25L93.1214 43.6136V43.7159H99.9396V47.5H86.5419ZM109.66 47.9773C108.075 47.9716 106.705 47.6051 105.552 46.8778C104.398 46.1506 103.509 45.1023 102.884 43.733C102.259 42.3636 101.95 40.7216 101.955 38.8068C101.961 36.8864 102.273 35.2557 102.893 33.9148C103.518 32.5739 104.404 31.554 105.552 30.8551C106.705 30.1562 108.075 29.8068 109.66 29.8068C111.245 29.8068 112.614 30.1591 113.768 30.8636C114.921 31.5625 115.81 32.5824 116.435 33.9233C117.06 35.2642 117.37 36.892 117.364 38.8068C117.364 40.733 117.052 42.3807 116.427 43.75C115.802 45.1193 114.913 46.1676 113.759 46.8949C112.612 47.6165 111.245 47.9773 109.66 47.9773ZM109.66 44.125C110.478 44.125 111.148 43.6989 111.671 42.8466C112.2 41.9886 112.461 40.642 112.455 38.8068C112.455 37.608 112.336 36.6278 112.097 35.8665C111.859 35.1051 111.529 34.5426 111.109 34.179C110.688 33.8097 110.205 33.625 109.66 33.625C108.842 33.625 108.174 34.0398 107.657 34.8693C107.14 35.6989 106.876 37.0114 106.864 38.8068C106.859 40.0284 106.975 41.0341 107.214 41.8239C107.452 42.608 107.782 43.1875 108.202 43.5625C108.629 43.9375 109.114 44.125 109.66 44.125ZM119.589 47.5V44.0909L126.1 38.7045C126.532 38.3466 126.901 38.0114 127.208 37.6989C127.521 37.3807 127.759 37.054 127.924 36.7188C128.094 36.3835 128.18 36.0114 128.18 35.6023C128.18 35.1534 128.083 34.7699 127.89 34.4517C127.702 34.1335 127.441 33.8892 127.106 33.7188C126.771 33.5426 126.384 33.4545 125.947 33.4545C125.509 33.4545 125.123 33.5426 124.788 33.7188C124.458 33.8949 124.202 34.1534 124.021 34.4943C123.839 34.8352 123.748 35.25 123.748 35.7386H119.248C119.248 34.5114 119.523 33.4545 120.075 32.5682C120.626 31.6818 121.404 31 122.41 30.5227C123.415 30.0455 124.594 29.8068 125.947 29.8068C127.344 29.8068 128.555 30.0312 129.577 30.4801C130.606 30.9233 131.398 31.5483 131.955 32.3551C132.518 33.1619 132.799 34.108 132.799 35.1932C132.799 35.8636 132.66 36.5312 132.381 37.196C132.103 37.8551 131.603 38.5852 130.881 39.3864C130.16 40.1875 129.134 41.142 127.805 42.25L126.168 43.6136V43.7159H132.987V47.5H119.589ZM141.923 47.7386C140.548 47.7386 139.326 47.5028 138.258 47.0312C137.195 46.554 136.36 45.8977 135.752 45.0625C135.144 44.2273 134.837 43.267 134.832 42.1818H139.604C139.61 42.517 139.712 42.8182 139.911 43.0852C140.116 43.3466 140.394 43.5511 140.746 43.6989C141.099 43.8466 141.502 43.9205 141.957 43.9205C142.394 43.9205 142.781 43.8437 143.116 43.6903C143.451 43.5312 143.712 43.3125 143.9 43.0341C144.087 42.7557 144.178 42.4375 144.173 42.0795C144.178 41.7273 144.07 41.4148 143.849 41.142C143.633 40.8693 143.329 40.6562 142.937 40.5028C142.545 40.3494 142.093 40.2727 141.582 40.2727H139.809V37H141.582C142.053 37 142.468 36.9233 142.826 36.7699C143.19 36.6165 143.471 36.4034 143.67 36.1307C143.874 35.858 143.974 35.5455 143.968 35.1932C143.974 34.8523 143.891 34.5511 143.721 34.2898C143.55 34.0284 143.312 33.8239 143.005 33.6761C142.704 33.5284 142.354 33.4545 141.957 33.4545C141.525 33.4545 141.138 33.5312 140.798 33.6847C140.462 33.8381 140.198 34.0511 140.005 34.3239C139.812 34.5966 139.712 34.9091 139.707 35.2614H135.173C135.178 34.1932 135.471 33.25 136.05 32.4318C136.636 31.6136 137.437 30.9716 138.454 30.5057C139.471 30.0398 140.638 29.8068 141.957 29.8068C143.246 29.8068 144.386 30.0256 145.374 30.4631C146.369 30.9006 147.144 31.5028 147.701 32.2699C148.263 33.0312 148.542 33.9034 148.536 34.8864C148.548 35.8636 148.212 36.6648 147.531 37.2898C146.854 37.9148 145.996 38.2841 144.957 38.3977V38.5341C146.366 38.6875 147.425 39.1193 148.136 39.8295C148.846 40.5341 149.195 41.4205 149.184 42.4886C149.19 43.5114 148.883 44.4176 148.263 45.2074C147.65 45.9972 146.795 46.6165 145.698 47.0653C144.607 47.5142 143.349 47.7386 141.923 47.7386Z" fill="black"/>
<path fill-rule="evenodd" clip-rule="evenodd" d="M231.002 32.7181C231.375 32.3269 232 32.3269 232.374 32.7181C232.724 33.0849 232.724 33.6623 232.374 34.029L227.625 39L232.374 43.971C232.724 44.3377 232.724 44.9152 232.374 45.2819C232 45.6731 231.375 45.6731 231.002 45.2819L225 39L231.002 32.7181Z" fill="#AFAFAF"/>
<path fill-rule="evenodd" clip-rule="evenodd" d="M280.998 32.7181C280.625 32.3269 280 32.3269 279.626 32.7181C279.276 33.0849 279.276 33.6623 279.626 34.029L284.375 39L279.626 43.971C279.276 44.3377 279.276 44.9152 279.626 45.2819C280 45.6731 280.625 45.6731 280.998 45.2819L287 39L280.998 32.7181Z" fill="black"/>
<g clip-path="url(#clip0_226_3883)">
<rect width="276" height="56" transform="translate(30 74)" fill="white"/>
<path d="M48.4017 96.8182H50.6588L53.6816 104.196H53.8009L56.8236 96.8182H59.0807V107H57.3108V100.005H57.2164L54.4024 106.97H53.08L50.2661 99.9901H50.1716V107H48.4017V96.8182ZM64.3406 107.149C63.5949 107.149 62.9486 106.985 62.4017 106.657C61.8548 106.329 61.4306 105.87 61.129 105.28C60.8307 104.69 60.6816 104 60.6816 103.212C60.6816 102.423 60.8307 101.732 61.129 101.138C61.4306 100.545 61.8548 100.085 62.4017 99.7564C62.9486 99.4283 63.5949 99.2642 64.3406 99.2642C65.0864 99.2642 65.7327 99.4283 66.2796 99.7564C66.8264 100.085 67.249 100.545 67.5473 101.138C67.8489 101.732 67.9997 102.423 67.9997 103.212C67.9997 104 67.8489 104.69 67.5473 105.28C67.249 105.87 66.8264 106.329 66.2796 106.657C65.7327 106.985 65.0864 107.149 64.3406 107.149ZM64.3506 105.707C64.7549 105.707 65.093 105.596 65.3648 105.374C65.6366 105.149 65.8387 104.847 65.9713 104.469C66.1072 104.092 66.1752 103.671 66.1752 103.207C66.1752 102.739 66.1072 102.317 65.9713 101.939C65.8387 101.558 65.6366 101.254 65.3648 101.029C65.093 100.804 64.7549 100.691 64.3506 100.691C63.9363 100.691 63.5916 100.804 63.3165 101.029C63.0447 101.254 62.8409 101.558 62.705 101.939C62.5724 102.317 62.5061 102.739 62.5061 103.207C62.5061 103.671 62.5724 104.092 62.705 104.469C62.8409 104.847 63.0447 105.149 63.3165 105.374C63.5916 105.596 63.9363 105.707 64.3506 105.707Z" fill="black"/>
<path d="M105.196 98.3643V96.8182H113.32V98.3643H110.173V107H108.343V98.3643H105.196ZM118.635 103.788V99.3636H120.434V107H118.689V105.643H118.61C118.437 106.07 118.154 106.42 117.76 106.692C117.369 106.964 116.886 107.099 116.313 107.099C115.812 107.099 115.37 106.988 114.986 106.766C114.604 106.541 114.306 106.214 114.091 105.787C113.875 105.356 113.767 104.836 113.767 104.226V99.3636H115.567V103.947C115.567 104.431 115.7 104.816 115.965 105.101C116.23 105.386 116.578 105.528 117.009 105.528C117.274 105.528 117.531 105.464 117.78 105.335C118.028 105.205 118.232 105.013 118.391 104.758C118.553 104.499 118.635 104.176 118.635 103.788Z" fill="black"/>
<path d="M160.339 107L157.466 96.8182H159.449L161.284 104.3H161.378L163.337 96.8182H165.142L167.106 104.305H167.195L169.03 96.8182H171.013L168.14 107H166.32L164.282 99.8558H164.202L162.159 107H160.339ZM174.814 107.149C174.049 107.149 173.387 106.99 172.831 106.672C172.277 106.35 171.851 105.896 171.553 105.31C171.255 104.72 171.105 104.025 171.105 103.227C171.105 102.441 171.255 101.752 171.553 101.158C171.854 100.562 172.275 100.098 172.816 99.7663C173.356 99.4316 173.991 99.2642 174.72 99.2642C175.19 99.2642 175.634 99.3404 176.052 99.4929C176.473 99.642 176.844 99.8741 177.166 100.189C177.491 100.504 177.746 100.905 177.931 101.392C178.117 101.876 178.21 102.453 178.21 103.122V103.674H171.951V102.461H176.485C176.481 102.116 176.407 101.81 176.261 101.541C176.115 101.269 175.911 101.056 175.649 100.9C175.391 100.744 175.089 100.666 174.745 100.666C174.377 100.666 174.054 100.756 173.775 100.935C173.497 101.11 173.28 101.342 173.124 101.631C172.971 101.916 172.893 102.229 172.89 102.57V103.629C172.89 104.073 172.971 104.455 173.134 104.773C173.296 105.088 173.523 105.33 173.815 105.499C174.107 105.664 174.448 105.747 174.839 105.747C175.101 105.747 175.338 105.711 175.55 105.638C175.762 105.562 175.946 105.451 176.102 105.305C176.258 105.159 176.375 104.978 176.455 104.763L178.135 104.952C178.029 105.396 177.827 105.784 177.529 106.115C177.234 106.443 176.856 106.698 176.395 106.881C175.934 107.06 175.407 107.149 174.814 107.149Z" fill="black"/>
<path d="M214.643 98.3643V96.8182H222.766V98.3643H219.619V107H217.79V98.3643H214.643ZM226.053 102.526V107H224.253V96.8182H226.013V100.661H226.102C226.281 100.23 226.558 99.8906 226.933 99.642C227.31 99.3902 227.791 99.2642 228.374 99.2642C228.905 99.2642 229.367 99.3752 229.761 99.5973C230.156 99.8194 230.461 100.144 230.676 100.572C230.895 100.999 231.004 101.521 231.004 102.138V107H229.205V102.416C229.205 101.902 229.072 101.503 228.807 101.218C228.545 100.93 228.177 100.786 227.703 100.786C227.385 100.786 227.1 100.855 226.848 100.994C226.599 101.13 226.404 101.327 226.261 101.586C226.122 101.844 226.053 102.158 226.053 102.526Z" fill="black"/>
<path d="M272.182 107V96.8182H278.705V98.3643H274.026V101.129H278.257V102.675H274.026V107H272.182ZM280.196 107V99.3636H281.941V100.636H282.021C282.16 100.196 282.399 99.8558 282.737 99.6172C283.078 99.3752 283.468 99.2543 283.905 99.2543C284.004 99.2543 284.115 99.2592 284.238 99.2692C284.364 99.2758 284.468 99.2874 284.551 99.304V100.96C284.475 100.933 284.354 100.91 284.188 100.89C284.026 100.867 283.869 100.855 283.716 100.855C283.388 100.855 283.093 100.926 282.831 101.069C282.573 101.208 282.369 101.402 282.22 101.651C282.07 101.899 281.996 102.186 281.996 102.511V107H280.196Z" fill="black"/>
<rect width="276" height="56" transform="translate(30 129)" fill="white"/>
<rect x="30.5" y="129.5" width="55" height="55" stroke="#D5D4DF"/>
<path d="M59.374 151.818V162H58.1411V153.111H58.0814L55.5956 154.761V153.509L58.1411 151.818H59.374Z" fill="black"/>
<rect x="85.5" y="129.5" width="55" height="55" stroke="#D5D4DF"/>
<path d="M109.82 162V161.105L113.181 157.426C113.575 156.995 113.9 156.621 114.155 156.303C114.41 155.981 114.599 155.679 114.722 155.398C114.848 155.113 114.911 154.814 114.911 154.503C114.911 154.145 114.825 153.835 114.652 153.573C114.483 153.311 114.251 153.109 113.956 152.967C113.661 152.824 113.33 152.753 112.962 152.753C112.571 152.753 112.23 152.834 111.938 152.996C111.65 153.156 111.426 153.379 111.267 153.668C111.111 153.956 111.033 154.294 111.033 154.682H109.86C109.86 154.085 109.997 153.562 110.272 153.111C110.548 152.66 110.922 152.309 111.396 152.057C111.873 151.805 112.409 151.679 113.002 151.679C113.598 151.679 114.127 151.805 114.588 152.057C115.049 152.309 115.41 152.648 115.672 153.076C115.933 153.504 116.064 153.979 116.064 154.503C116.064 154.877 115.996 155.244 115.861 155.602C115.728 155.956 115.496 156.352 115.165 156.79C114.836 157.224 114.381 157.754 113.797 158.381L111.51 160.827V160.906H116.243V162H109.82Z" fill="black"/>
<rect x="140.5" y="129.5" width="55" height="55" stroke="#D5D4DF"/>
<path d="M168.042 162.139C167.385 162.139 166.8 162.027 166.287 161.801C165.776 161.576 165.37 161.263 165.069 160.862C164.77 160.457 164.608 159.988 164.581 159.455H165.834C165.861 159.783 165.973 160.066 166.172 160.305C166.371 160.54 166.631 160.722 166.953 160.852C167.274 160.981 167.631 161.045 168.022 161.045C168.459 161.045 168.847 160.969 169.185 160.817C169.523 160.664 169.788 160.452 169.981 160.18C170.173 159.909 170.269 159.594 170.269 159.236C170.269 158.861 170.176 158.531 169.991 158.246C169.805 157.958 169.533 157.733 169.175 157.57C168.817 157.408 168.38 157.327 167.863 157.327H167.047V156.233H167.863C168.267 156.233 168.622 156.16 168.927 156.014C169.235 155.868 169.475 155.663 169.647 155.398C169.823 155.133 169.911 154.821 169.911 154.463C169.911 154.118 169.835 153.818 169.682 153.563C169.53 153.308 169.314 153.109 169.036 152.967C168.761 152.824 168.436 152.753 168.062 152.753C167.71 152.753 167.379 152.817 167.067 152.947C166.759 153.073 166.507 153.257 166.312 153.499C166.116 153.737 166.01 154.026 165.993 154.364H164.8C164.82 153.83 164.981 153.363 165.282 152.962C165.584 152.557 165.978 152.242 166.466 152.017C166.956 151.792 167.495 151.679 168.081 151.679C168.711 151.679 169.251 151.807 169.702 152.062C170.153 152.314 170.499 152.647 170.741 153.061C170.983 153.475 171.104 153.923 171.104 154.403C171.104 154.977 170.953 155.466 170.652 155.87C170.353 156.274 169.947 156.554 169.434 156.71V156.79C170.077 156.896 170.579 157.169 170.94 157.61C171.301 158.048 171.482 158.589 171.482 159.236C171.482 159.789 171.331 160.286 171.03 160.727C170.731 161.165 170.324 161.509 169.807 161.761C169.29 162.013 168.701 162.139 168.042 162.139Z" fill="black"/>
<rect x="195.5" y="129.5" width="55" height="55" stroke="#D5D4DF"/>
<path d="M219.283 159.912V158.898L223.758 151.818H224.493V153.389H223.996L220.616 158.739V158.818H226.641V159.912H219.283ZM224.076 162V159.604V159.131V151.818H225.249V162H224.076Z" fill="black"/>
<rect x="250.5" y="129.5" width="55" height="55" stroke="#D5D4DF"/>
<path d="M277.962 162.139C277.379 162.139 276.853 162.023 276.386 161.791C275.919 161.559 275.544 161.241 275.263 160.837C274.981 160.432 274.827 159.972 274.8 159.455H275.993C276.04 159.915 276.249 160.296 276.62 160.598C276.994 160.896 277.442 161.045 277.962 161.045C278.38 161.045 278.751 160.948 279.076 160.752C279.404 160.557 279.661 160.288 279.846 159.947C280.035 159.602 280.13 159.213 280.13 158.778C280.13 158.334 280.032 157.938 279.836 157.59C279.644 157.239 279.379 156.962 279.041 156.76C278.703 156.558 278.317 156.455 277.883 156.452C277.571 156.448 277.251 156.496 276.923 156.596C276.595 156.692 276.325 156.816 276.113 156.969L274.959 156.83L275.576 151.818H280.866V152.912H276.61L276.252 155.915H276.312C276.52 155.749 276.782 155.612 277.097 155.502C277.412 155.393 277.74 155.338 278.081 155.338C278.705 155.338 279.26 155.487 279.747 155.786C280.237 156.08 280.622 156.485 280.9 156.999C281.182 157.512 281.323 158.099 281.323 158.759C281.323 159.408 281.177 159.988 280.885 160.499C280.597 161.006 280.199 161.407 279.692 161.702C279.185 161.993 278.608 162.139 277.962 162.139Z" fill="black"/>
<rect width="276" height="56" transform="translate(30 184)" fill="white"/>
<rect x="30.5" y="184.5" width="55" height="55" stroke="#D5D4DF"/>
<path d="M58.0019 217.139C57.3191 217.139 56.7159 217.018 56.1922 216.776C55.6718 216.531 55.2658 216.195 54.9742 215.767C54.6825 215.336 54.5383 214.846 54.5416 214.295C54.5383 213.865 54.6228 213.467 54.7952 213.102C54.9675 212.734 55.2029 212.428 55.5012 212.183C55.8028 211.934 56.1392 211.777 56.5104 211.71V211.651C56.0232 211.525 55.6354 211.251 55.347 210.83C55.0587 210.406 54.9162 209.924 54.9195 209.384C54.9162 208.866 55.0471 208.404 55.3122 207.996C55.5774 207.589 55.942 207.267 56.406 207.032C56.8733 206.797 57.4053 206.679 58.0019 206.679C58.5918 206.679 59.1188 206.797 59.5828 207.032C60.0468 207.267 60.4114 207.589 60.6766 207.996C60.945 208.404 61.0809 208.866 61.0843 209.384C61.0809 209.924 60.9334 210.406 60.6418 210.83C60.3534 211.251 59.9706 211.525 59.4933 211.651V211.71C59.8612 211.777 60.1927 211.934 60.4877 212.183C60.7826 212.428 61.018 212.734 61.1936 213.102C61.3693 213.467 61.4588 213.865 61.4621 214.295C61.4588 214.846 61.3096 215.336 61.0146 215.767C60.723 216.195 60.317 216.531 59.7966 216.776C59.2796 217.018 58.6813 217.139 58.0019 217.139ZM58.0019 216.045C58.4626 216.045 58.8603 215.971 59.195 215.822C59.5298 215.673 59.7883 215.462 59.9706 215.19C60.1529 214.919 60.2457 214.6 60.249 214.236C60.2457 213.851 60.1463 213.512 59.9507 213.217C59.7552 212.922 59.4884 212.69 59.1503 212.521C58.8155 212.352 58.4327 212.267 58.0019 212.267C57.5677 212.267 57.1799 212.352 56.8385 212.521C56.5004 212.69 56.2336 212.922 56.0381 213.217C55.8459 213.512 55.7514 213.851 55.7547 214.236C55.7514 214.6 55.8392 214.919 56.0182 215.19C56.2005 215.462 56.4607 215.673 56.7987 215.822C57.1368 215.971 57.5378 216.045 58.0019 216.045ZM58.0019 211.213C58.3664 211.213 58.6896 211.14 58.9713 210.994C59.2564 210.848 59.4801 210.645 59.6425 210.383C59.8049 210.121 59.8878 209.814 59.8911 209.463C59.8878 209.118 59.8066 208.818 59.6475 208.563C59.4884 208.305 59.268 208.106 58.9862 207.967C58.7045 207.824 58.3764 207.753 58.0019 207.753C57.6207 207.753 57.2876 207.824 57.0026 207.967C56.7175 208.106 56.4971 208.305 56.3414 208.563C56.1856 208.818 56.1093 209.118 56.1127 209.463C56.1093 209.814 56.1872 210.121 56.3463 210.383C56.5087 210.645 56.7325 210.848 57.0175 210.994C57.3025 211.14 57.6307 211.213 58.0019 211.213Z" fill="black"/>
<rect x="85.5" y="184.5" width="55" height="55" stroke="#D5D4DF"/>
<path d="M112.922 206.679C113.34 206.682 113.758 206.762 114.175 206.918C114.593 207.073 114.974 207.332 115.319 207.693C115.663 208.051 115.94 208.54 116.149 209.16C116.358 209.78 116.462 210.557 116.462 211.491C116.462 212.396 116.376 213.2 116.204 213.903C116.035 214.602 115.789 215.192 115.468 215.673C115.15 216.153 114.762 216.518 114.304 216.766C113.85 217.015 113.337 217.139 112.763 217.139C112.193 217.139 111.684 217.027 111.237 216.801C110.793 216.572 110.428 216.256 110.143 215.852C109.861 215.444 109.681 214.972 109.601 214.435H110.814C110.924 214.902 111.141 215.288 111.466 215.593C111.794 215.895 112.226 216.045 112.763 216.045C113.549 216.045 114.169 215.702 114.623 215.016C115.08 214.33 115.309 213.361 115.309 212.108H115.229C115.044 212.386 114.823 212.627 114.568 212.829C114.313 213.031 114.029 213.187 113.718 213.296C113.406 213.406 113.075 213.46 112.723 213.46C112.14 213.46 111.605 213.316 111.118 213.028C110.634 212.736 110.246 212.337 109.954 211.83C109.666 211.319 109.522 210.736 109.522 210.08C109.522 209.456 109.661 208.886 109.939 208.369C110.221 207.849 110.616 207.435 111.123 207.126C111.633 206.818 112.233 206.669 112.922 206.679ZM112.922 207.773C112.505 207.773 112.129 207.877 111.794 208.086C111.462 208.291 111.199 208.57 111.003 208.921C110.811 209.269 110.715 209.655 110.715 210.08C110.715 210.504 110.808 210.89 110.993 211.238C111.182 211.583 111.439 211.858 111.764 212.063C112.092 212.265 112.465 212.366 112.883 212.366C113.197 212.366 113.491 212.305 113.763 212.183C114.034 212.057 114.271 211.886 114.473 211.67C114.679 211.452 114.84 211.205 114.956 210.93C115.072 210.651 115.13 210.361 115.13 210.06C115.13 209.662 115.034 209.289 114.841 208.941C114.652 208.593 114.391 208.311 114.056 208.096C113.724 207.88 113.347 207.773 112.922 207.773Z" fill="black"/>
<rect x="140.5" y="184.5" width="55" height="55" stroke="#D5D4DF"/>
<path d="M164.842 206.818V217H163.609V208.111H163.549L161.063 209.761V208.509L163.609 206.818H164.842ZM172.534 217.139C171.785 217.139 171.147 216.935 170.62 216.528C170.093 216.117 169.69 215.522 169.412 214.743C169.134 213.961 168.994 213.016 168.994 211.909C168.994 210.809 169.134 209.869 169.412 209.09C169.694 208.308 170.098 207.711 170.625 207.3C171.155 206.886 171.792 206.679 172.534 206.679C173.277 206.679 173.911 206.886 174.438 207.3C174.969 207.711 175.373 208.308 175.651 209.09C175.933 209.869 176.074 210.809 176.074 211.909C176.074 213.016 175.935 213.961 175.656 214.743C175.378 215.522 174.975 216.117 174.448 216.528C173.921 216.935 173.283 217.139 172.534 217.139ZM172.534 216.045C173.277 216.045 173.853 215.687 174.264 214.972C174.675 214.256 174.881 213.235 174.881 211.909C174.881 211.027 174.786 210.277 174.597 209.657C174.412 209.037 174.143 208.565 173.792 208.24C173.444 207.915 173.025 207.753 172.534 207.753C171.798 207.753 171.223 208.116 170.809 208.842C170.395 209.564 170.188 210.587 170.188 211.909C170.188 212.791 170.28 213.54 170.466 214.156C170.652 214.773 170.918 215.242 171.266 215.563C171.618 215.885 172.04 216.045 172.534 216.045Z" fill="black"/>
<rect x="195.5" y="184.5" width="55" height="55" stroke="#D5D4DF"/>
<path d="M219.842 206.818V217H218.609V208.111H218.549L216.063 209.761V208.509L218.609 206.818H219.842ZM228.906 206.818V217H227.673V208.111H227.614L225.128 209.761V208.509L227.673 206.818H228.906Z" fill="black"/>
<rect x="250.5" y="184.5" width="55" height="55" stroke="#D5D4DF"/>
<path d="M274.842 206.818V217H273.609V208.111H273.549L271.063 209.761V208.509L273.609 206.818H274.842ZM279.352 217V216.105L282.713 212.426C283.107 211.995 283.432 211.621 283.688 211.303C283.943 210.981 284.132 210.679 284.254 210.398C284.38 210.113 284.443 209.814 284.443 209.503C284.443 209.145 284.357 208.835 284.185 208.573C284.016 208.311 283.784 208.109 283.489 207.967C283.194 207.824 282.862 207.753 282.494 207.753C282.103 207.753 281.762 207.834 281.47 207.996C281.182 208.156 280.958 208.379 280.799 208.668C280.643 208.956 280.565 209.294 280.565 209.682H279.392C279.392 209.085 279.53 208.562 279.805 208.111C280.08 207.66 280.454 207.309 280.928 207.057C281.406 206.805 281.941 206.679 282.534 206.679C283.131 206.679 283.659 206.805 284.12 207.057C284.581 207.309 284.942 207.648 285.204 208.076C285.466 208.504 285.597 208.979 285.597 209.503C285.597 209.877 285.529 210.244 285.393 210.602C285.26 210.956 285.028 211.352 284.697 211.79C284.369 212.224 283.913 212.754 283.33 213.381L281.043 215.827V215.906H285.776V217H279.352Z" fill="black"/>
<rect width="276" height="56" transform="translate(30 239)" fill="white"/>
<rect x="30.5" y="239.5" width="55" height="55" stroke="#D5D4DF"/>
<path d="M54.8418 261.818V272H53.6088V263.111H53.5492L51.0634 264.761V263.509L53.6088 261.818H54.8418ZM62.4943 272.139C61.911 272.139 61.3857 272.023 60.9183 271.791C60.451 271.559 60.0765 271.241 59.7947 270.837C59.513 270.432 59.3589 269.972 59.3324 269.455H60.5256C60.572 269.915 60.7808 270.296 61.152 270.598C61.5265 270.896 61.974 271.045 62.4943 271.045C62.9119 271.045 63.2831 270.948 63.608 270.752C63.9361 270.557 64.1929 270.288 64.3786 269.947C64.5675 269.602 64.6619 269.213 64.6619 268.778C64.6619 268.334 64.5642 267.938 64.3686 267.59C64.1764 267.239 63.9112 266.962 63.5732 266.76C63.2351 266.558 62.849 266.455 62.4148 266.452C62.1032 266.448 61.7834 266.496 61.4553 266.596C61.1271 266.692 60.857 266.816 60.6449 266.969L59.4915 266.83L60.108 261.818H65.3977V262.912H61.142L60.7841 265.915H60.8438C61.0526 265.749 61.3144 265.612 61.6293 265.502C61.9441 265.393 62.2723 265.338 62.6136 265.338C63.2367 265.338 63.7919 265.487 64.2791 265.786C64.7696 266.08 65.1541 266.485 65.4325 266.999C65.7143 267.512 65.8551 268.099 65.8551 268.759C65.8551 269.408 65.7093 269.988 65.4176 270.499C65.1293 271.006 64.7315 271.407 64.2244 271.702C63.7173 271.993 63.1406 272.139 62.4943 272.139Z" fill="black"/>
<rect x="85.5" y="239.5" width="55" height="55" stroke="#D5D4DF"/>
<path d="M109.842 261.818V272H108.609V263.111H108.549L106.063 264.761V263.509L108.609 261.818H109.842ZM117.594 272.139C117.176 272.133 116.759 272.053 116.341 271.901C115.923 271.748 115.542 271.491 115.197 271.13C114.853 270.765 114.576 270.273 114.367 269.653C114.158 269.03 114.054 268.248 114.054 267.307C114.054 266.405 114.138 265.607 114.308 264.911C114.477 264.211 114.722 263.623 115.043 263.146C115.365 262.665 115.753 262.3 116.207 262.052C116.664 261.803 117.179 261.679 117.753 261.679C118.323 261.679 118.83 261.793 119.274 262.022C119.722 262.247 120.086 262.562 120.368 262.967C120.65 263.371 120.832 263.837 120.915 264.364H119.702C119.589 263.906 119.37 263.527 119.045 263.225C118.721 262.924 118.29 262.773 117.753 262.773C116.964 262.773 116.343 263.116 115.888 263.802C115.438 264.488 115.211 265.451 115.207 266.69H115.287C115.473 266.409 115.693 266.168 115.948 265.969C116.207 265.767 116.492 265.612 116.803 265.502C117.115 265.393 117.445 265.338 117.793 265.338C118.376 265.338 118.91 265.484 119.393 265.776C119.877 266.064 120.265 266.463 120.557 266.974C120.848 267.481 120.994 268.062 120.994 268.719C120.994 269.348 120.853 269.925 120.572 270.449C120.29 270.969 119.894 271.384 119.384 271.692C118.876 271.997 118.28 272.146 117.594 272.139ZM117.594 271.045C118.011 271.045 118.386 270.941 118.717 270.732C119.052 270.523 119.316 270.243 119.508 269.892C119.703 269.541 119.801 269.15 119.801 268.719C119.801 268.298 119.707 267.915 119.518 267.57C119.332 267.222 119.075 266.946 118.747 266.74C118.422 266.535 118.051 266.432 117.634 266.432C117.319 266.432 117.025 266.495 116.754 266.621C116.482 266.743 116.243 266.912 116.038 267.128C115.835 267.343 115.676 267.59 115.56 267.869C115.444 268.144 115.386 268.434 115.386 268.739C115.386 269.143 115.481 269.521 115.67 269.872C115.862 270.223 116.124 270.507 116.455 270.722C116.79 270.938 117.17 271.045 117.594 271.045Z" fill="black"/>
<rect x="140.5" y="239.5" width="55" height="55" stroke="#D5D4DF"/>
<path d="M164.842 261.818V272H163.609V263.111H163.549L161.063 264.761V263.509L163.609 261.818H164.842ZM169.909 272L174.463 262.991V262.912H169.213V261.818H175.736V262.972L171.202 272H169.909Z" fill="black"/>
<rect x="195.5" y="239.5" width="55" height="55" stroke="#D5D4DF"/>
<path d="M219.842 261.818V272H218.609V263.111H218.549L216.063 264.761V263.509L218.609 261.818H219.842ZM227.534 272.139C226.851 272.139 226.248 272.018 225.724 271.776C225.204 271.531 224.798 271.195 224.506 270.767C224.215 270.336 224.071 269.846 224.074 269.295C224.071 268.865 224.155 268.467 224.327 268.102C224.5 267.734 224.735 267.428 225.033 267.183C225.335 266.934 225.671 266.777 226.043 266.71V266.651C225.555 266.525 225.168 266.251 224.879 265.83C224.591 265.406 224.448 264.924 224.452 264.384C224.448 263.866 224.579 263.404 224.844 262.996C225.11 262.589 225.474 262.267 225.938 262.032C226.406 261.797 226.938 261.679 227.534 261.679C228.124 261.679 228.651 261.797 229.115 262.032C229.579 262.267 229.944 262.589 230.209 262.996C230.477 263.404 230.613 263.866 230.616 264.384C230.613 264.924 230.466 265.406 230.174 265.83C229.886 266.251 229.503 266.525 229.026 266.651V266.71C229.393 266.777 229.725 266.934 230.02 267.183C230.315 267.428 230.55 267.734 230.726 268.102C230.902 268.467 230.991 268.865 230.994 269.295C230.991 269.846 230.842 270.336 230.547 270.767C230.255 271.195 229.849 271.531 229.329 271.776C228.812 272.018 228.214 272.139 227.534 272.139ZM227.534 271.045C227.995 271.045 228.393 270.971 228.727 270.822C229.062 270.673 229.321 270.462 229.503 270.19C229.685 269.919 229.778 269.6 229.781 269.236C229.778 268.851 229.679 268.512 229.483 268.217C229.287 267.922 229.021 267.69 228.683 267.521C228.348 267.352 227.965 267.267 227.534 267.267C227.1 267.267 226.712 267.352 226.371 267.521C226.033 267.69 225.766 267.922 225.57 268.217C225.378 268.512 225.284 268.851 225.287 269.236C225.284 269.6 225.371 269.919 225.55 270.19C225.733 270.462 225.993 270.673 226.331 270.822C226.669 270.971 227.07 271.045 227.534 271.045ZM227.534 266.213C227.899 266.213 228.222 266.14 228.504 265.994C228.789 265.848 229.012 265.645 229.175 265.383C229.337 265.121 229.42 264.814 229.423 264.463C229.42 264.118 229.339 263.818 229.18 263.563C229.021 263.305 228.8 263.106 228.518 262.967C228.237 262.824 227.909 262.753 227.534 262.753C227.153 262.753 226.82 262.824 226.535 262.967C226.25 263.106 226.029 263.305 225.874 263.563C225.718 263.818 225.642 264.118 225.645 264.463C225.642 264.814 225.719 265.121 225.879 265.383C226.041 265.645 226.265 265.848 226.55 265.994C226.835 266.14 227.163 266.213 227.534 266.213Z" fill="black"/>
<rect x="250.5" y="239.5" width="55" height="55" stroke="#D5D4DF"/>
<path d="M274.842 261.818V272H273.609V263.111H273.549L271.063 264.761V263.509L273.609 261.818H274.842ZM282.455 261.679C282.872 261.682 283.29 261.762 283.707 261.918C284.125 262.073 284.506 262.332 284.851 262.693C285.196 263.051 285.472 263.54 285.681 264.16C285.89 264.78 285.994 265.557 285.994 266.491C285.994 267.396 285.908 268.2 285.736 268.903C285.567 269.602 285.321 270.192 285 270.673C284.682 271.153 284.294 271.518 283.837 271.766C283.383 272.015 282.869 272.139 282.295 272.139C281.725 272.139 281.217 272.027 280.769 271.801C280.325 271.572 279.96 271.256 279.675 270.852C279.394 270.444 279.213 269.972 279.134 269.435H280.347C280.456 269.902 280.673 270.288 280.998 270.593C281.326 270.895 281.759 271.045 282.295 271.045C283.081 271.045 283.701 270.702 284.155 270.016C284.612 269.33 284.841 268.361 284.841 267.108H284.761C284.576 267.386 284.355 267.627 284.1 267.829C283.845 268.031 283.562 268.187 283.25 268.296C282.938 268.406 282.607 268.46 282.256 268.46C281.672 268.46 281.137 268.316 280.65 268.028C280.166 267.736 279.778 267.337 279.487 266.83C279.198 266.319 279.054 265.736 279.054 265.08C279.054 264.456 279.193 263.886 279.472 263.369C279.753 262.849 280.148 262.435 280.655 262.126C281.165 261.818 281.765 261.669 282.455 261.679ZM282.455 262.773C282.037 262.773 281.661 262.877 281.326 263.086C280.995 263.291 280.731 263.57 280.536 263.921C280.343 264.269 280.247 264.655 280.247 265.08C280.247 265.504 280.34 265.89 280.526 266.238C280.714 266.583 280.971 266.858 281.296 267.063C281.624 267.265 281.997 267.366 282.415 267.366C282.73 267.366 283.023 267.305 283.295 267.183C283.567 267.057 283.804 266.886 284.006 266.67C284.211 266.452 284.372 266.205 284.488 265.93C284.604 265.651 284.662 265.361 284.662 265.06C284.662 264.662 284.566 264.289 284.374 263.941C284.185 263.593 283.923 263.311 283.588 263.096C283.257 262.88 282.879 262.773 282.455 262.773Z" fill="black"/>
<rect width="276" height="56" transform="translate(30 294)" fill="white"/>
<rect x="30.5" y="294.5" width="55" height="55" stroke="#D5D4DF"/>
<path d="M50.2878 327V326.105L53.6486 322.426C54.043 321.995 54.3678 321.621 54.623 321.303C54.8783 320.981 55.0672 320.679 55.1898 320.398C55.3158 320.113 55.3787 319.814 55.3787 319.503C55.3787 319.145 55.2926 318.835 55.1202 318.573C54.9512 318.311 54.7192 318.109 54.4242 317.967C54.1292 317.824 53.7978 317.753 53.4299 317.753C53.0388 317.753 52.6974 317.834 52.4057 317.996C52.1174 318.156 51.8936 318.379 51.7346 318.668C51.5788 318.956 51.5009 319.294 51.5009 319.682H50.3276C50.3276 319.085 50.4651 318.562 50.7402 318.111C51.0153 317.66 51.3899 317.309 51.8638 317.057C52.3411 316.805 52.8764 316.679 53.4696 316.679C54.0662 316.679 54.5949 316.805 55.0556 317.057C55.5163 317.309 55.8775 317.648 56.1394 318.076C56.4012 318.504 56.5321 318.979 56.5321 319.503C56.5321 319.877 56.4642 320.244 56.3283 320.602C56.1957 320.956 55.9637 321.352 55.6323 321.79C55.3042 322.224 54.8484 322.754 54.2651 323.381L51.9782 325.827V325.906H56.7111V327H50.2878ZM59.3523 327V326.105L62.7131 322.426C63.1075 321.995 63.4323 321.621 63.6875 321.303C63.9427 320.981 64.1316 320.679 64.2543 320.398C64.3802 320.113 64.4432 319.814 64.4432 319.503C64.4432 319.145 64.357 318.835 64.1847 318.573C64.0156 318.311 63.7836 318.109 63.4886 317.967C63.1937 317.824 62.8622 317.753 62.4943 317.753C62.1032 317.753 61.7618 317.834 61.4702 317.996C61.1818 318.156 60.9581 318.379 60.799 318.668C60.6432 318.956 60.5653 319.294 60.5653 319.682H59.392C59.392 319.085 59.5296 318.562 59.8047 318.111C60.0798 317.66 60.4543 317.309 60.9283 317.057C61.4055 316.805 61.9408 316.679 62.5341 316.679C63.1307 316.679 63.6593 316.805 64.12 317.057C64.5807 317.309 64.942 317.648 65.2038 318.076C65.4657 318.504 65.5966 318.979 65.5966 319.503C65.5966 319.877 65.5286 320.244 65.3928 320.602C65.2602 320.956 65.0282 321.352 64.6967 321.79C64.3686 322.224 63.9129 322.754 63.3295 323.381L61.0426 325.827V325.906H65.7756V327H59.3523Z" fill="black"/>
<rect x="85.5" y="294.5" width="55" height="55" stroke="#D5D4DF"/>
<path d="M105.288 327V326.105L108.649 322.426C109.043 321.995 109.368 321.621 109.623 321.303C109.878 320.981 110.067 320.679 110.19 320.398C110.316 320.113 110.379 319.814 110.379 319.503C110.379 319.145 110.293 318.835 110.12 318.573C109.951 318.311 109.719 318.109 109.424 317.967C109.129 317.824 108.798 317.753 108.43 317.753C108.039 317.753 107.697 317.834 107.406 317.996C107.117 318.156 106.894 318.379 106.735 318.668C106.579 318.956 106.501 319.294 106.501 319.682H105.328C105.328 319.085 105.465 318.562 105.74 318.111C106.015 317.66 106.39 317.309 106.864 317.057C107.341 316.805 107.876 316.679 108.47 316.679C109.066 316.679 109.595 316.805 110.056 317.057C110.516 317.309 110.878 317.648 111.139 318.076C111.401 318.504 111.532 318.979 111.532 319.503C111.532 319.877 111.464 320.244 111.328 320.602C111.196 320.956 110.964 321.352 110.632 321.79C110.304 322.224 109.848 322.754 109.265 323.381L106.978 325.827V325.906H111.711V327H105.288ZM117.574 327.139C116.918 327.139 116.333 327.027 115.819 326.801C115.308 326.576 114.902 326.263 114.601 325.862C114.303 325.457 114.14 324.988 114.114 324.455H115.366C115.393 324.783 115.506 325.066 115.705 325.305C115.903 325.54 116.164 325.722 116.485 325.852C116.807 325.981 117.163 326.045 117.554 326.045C117.991 326.045 118.379 325.969 118.717 325.817C119.055 325.664 119.321 325.452 119.513 325.18C119.705 324.909 119.801 324.594 119.801 324.236C119.801 323.861 119.708 323.531 119.523 323.246C119.337 322.958 119.065 322.733 118.707 322.57C118.349 322.408 117.912 322.327 117.395 322.327H116.58V321.233H117.395C117.799 321.233 118.154 321.16 118.459 321.014C118.767 320.868 119.007 320.663 119.18 320.398C119.355 320.133 119.443 319.821 119.443 319.463C119.443 319.118 119.367 318.818 119.214 318.563C119.062 318.308 118.847 318.109 118.568 317.967C118.293 317.824 117.968 317.753 117.594 317.753C117.242 317.753 116.911 317.817 116.599 317.947C116.291 318.073 116.039 318.257 115.844 318.499C115.648 318.737 115.542 319.026 115.526 319.364H114.332C114.352 318.83 114.513 318.363 114.815 317.962C115.116 317.557 115.511 317.242 115.998 317.017C116.488 316.792 117.027 316.679 117.614 316.679C118.243 316.679 118.784 316.807 119.234 317.062C119.685 317.314 120.031 317.647 120.273 318.061C120.515 318.475 120.636 318.923 120.636 319.403C120.636 319.977 120.486 320.466 120.184 320.87C119.886 321.274 119.48 321.554 118.966 321.71V321.79C119.609 321.896 120.111 322.169 120.472 322.61C120.834 323.048 121.014 323.589 121.014 324.236C121.014 324.789 120.863 325.286 120.562 325.727C120.263 326.165 119.856 326.509 119.339 326.761C118.822 327.013 118.233 327.139 117.574 327.139Z" fill="black"/>
<rect x="140.5" y="294.5" width="55" height="55" stroke="#D5D4DF"/>
<path d="M160.288 327V326.105L163.649 322.426C164.043 321.995 164.368 321.621 164.623 321.303C164.878 320.981 165.067 320.679 165.19 320.398C165.316 320.113 165.379 319.814 165.379 319.503C165.379 319.145 165.293 318.835 165.12 318.573C164.951 318.311 164.719 318.109 164.424 317.967C164.129 317.824 163.798 317.753 163.43 317.753C163.039 317.753 162.697 317.834 162.406 317.996C162.117 318.156 161.894 318.379 161.735 318.668C161.579 318.956 161.501 319.294 161.501 319.682H160.328C160.328 319.085 160.465 318.562 160.74 318.111C161.015 317.66 161.39 317.309 161.864 317.057C162.341 316.805 162.876 316.679 163.47 316.679C164.066 316.679 164.595 316.805 165.056 317.057C165.516 317.309 165.878 317.648 166.139 318.076C166.401 318.504 166.532 318.979 166.532 319.503C166.532 319.877 166.464 320.244 166.328 320.602C166.196 320.956 165.964 321.352 165.632 321.79C165.304 322.224 164.848 322.754 164.265 323.381L161.978 325.827V325.906H166.711V327H160.288ZM168.815 324.912V323.898L173.29 316.818H174.026V318.389H173.528L170.148 323.739V323.818H176.173V324.912H168.815ZM173.608 327V324.604V324.131V316.818H174.781V327H173.608Z" fill="black"/>
<rect x="195.5" y="294.5" width="55" height="55" stroke="#D5D4DF"/>
<path d="M215.288 327V326.105L218.649 322.426C219.043 321.995 219.368 321.621 219.623 321.303C219.878 320.981 220.067 320.679 220.19 320.398C220.316 320.113 220.379 319.814 220.379 319.503C220.379 319.145 220.293 318.835 220.12 318.573C219.951 318.311 219.719 318.109 219.424 317.967C219.129 317.824 218.798 317.753 218.43 317.753C218.039 317.753 217.697 317.834 217.406 317.996C217.117 318.156 216.894 318.379 216.735 318.668C216.579 318.956 216.501 319.294 216.501 319.682H215.328C215.328 319.085 215.465 318.562 215.74 318.111C216.015 317.66 216.39 317.309 216.864 317.057C217.341 316.805 217.876 316.679 218.47 316.679C219.066 316.679 219.595 316.805 220.056 317.057C220.516 317.309 220.878 317.648 221.139 318.076C221.401 318.504 221.532 318.979 221.532 319.503C221.532 319.877 221.464 320.244 221.328 320.602C221.196 320.956 220.964 321.352 220.632 321.79C220.304 322.224 219.848 322.754 219.265 323.381L216.978 325.827V325.906H221.711V327H215.288ZM227.494 327.139C226.911 327.139 226.386 327.023 225.918 326.791C225.451 326.559 225.076 326.241 224.795 325.837C224.513 325.432 224.359 324.972 224.332 324.455H225.526C225.572 324.915 225.781 325.296 226.152 325.598C226.527 325.896 226.974 326.045 227.494 326.045C227.912 326.045 228.283 325.948 228.608 325.752C228.936 325.557 229.193 325.288 229.379 324.947C229.567 324.602 229.662 324.213 229.662 323.778C229.662 323.334 229.564 322.938 229.369 322.59C229.176 322.239 228.911 321.962 228.573 321.76C228.235 321.558 227.849 321.455 227.415 321.452C227.103 321.448 226.783 321.496 226.455 321.596C226.127 321.692 225.857 321.816 225.645 321.969L224.491 321.83L225.108 316.818H230.398V317.912H226.142L225.784 320.915H225.844C226.053 320.749 226.314 320.612 226.629 320.502C226.944 320.393 227.272 320.338 227.614 320.338C228.237 320.338 228.792 320.487 229.279 320.786C229.77 321.08 230.154 321.485 230.433 321.999C230.714 322.512 230.855 323.099 230.855 323.759C230.855 324.408 230.709 324.988 230.418 325.499C230.129 326.006 229.732 326.407 229.224 326.702C228.717 326.993 228.141 327.139 227.494 327.139Z" fill="black"/>
<rect x="250.5" y="294.5" width="55" height="55" stroke="#D5D4DF"/>
<path d="M270.288 327V326.105L273.649 322.426C274.043 321.995 274.368 321.621 274.623 321.303C274.878 320.981 275.067 320.679 275.19 320.398C275.316 320.113 275.379 319.814 275.379 319.503C275.379 319.145 275.293 318.835 275.12 318.573C274.951 318.311 274.719 318.109 274.424 317.967C274.129 317.824 273.798 317.753 273.43 317.753C273.039 317.753 272.697 317.834 272.406 317.996C272.117 318.156 271.894 318.379 271.735 318.668C271.579 318.956 271.501 319.294 271.501 319.682H270.328C270.328 319.085 270.465 318.562 270.74 318.111C271.015 317.66 271.39 317.309 271.864 317.057C272.341 316.805 272.876 316.679 273.47 316.679C274.066 316.679 274.595 316.805 275.056 317.057C275.516 317.309 275.878 317.648 276.139 318.076C276.401 318.504 276.532 318.979 276.532 319.503C276.532 319.877 276.464 320.244 276.328 320.602C276.196 320.956 275.964 321.352 275.632 321.79C275.304 322.224 274.848 322.754 274.265 323.381L271.978 325.827V325.906H276.711V327H270.288ZM282.594 327.139C282.176 327.133 281.759 327.053 281.341 326.901C280.923 326.748 280.542 326.491 280.197 326.13C279.853 325.765 279.576 325.273 279.367 324.653C279.158 324.03 279.054 323.248 279.054 322.307C279.054 321.405 279.138 320.607 279.308 319.911C279.477 319.211 279.722 318.623 280.043 318.146C280.365 317.665 280.753 317.3 281.207 317.052C281.664 316.803 282.179 316.679 282.753 316.679C283.323 316.679 283.83 316.793 284.274 317.022C284.722 317.247 285.086 317.562 285.368 317.967C285.65 318.371 285.832 318.837 285.915 319.364H284.702C284.589 318.906 284.37 318.527 284.045 318.225C283.721 317.924 283.29 317.773 282.753 317.773C281.964 317.773 281.343 318.116 280.888 318.802C280.438 319.488 280.211 320.451 280.207 321.69H280.287C280.473 321.409 280.693 321.168 280.948 320.969C281.207 320.767 281.492 320.612 281.803 320.502C282.115 320.393 282.445 320.338 282.793 320.338C283.376 320.338 283.91 320.484 284.393 320.776C284.877 321.064 285.265 321.463 285.557 321.974C285.848 322.481 285.994 323.062 285.994 323.719C285.994 324.348 285.853 324.925 285.572 325.449C285.29 325.969 284.894 326.384 284.384 326.692C283.876 326.997 283.28 327.146 282.594 327.139ZM282.594 326.045C283.011 326.045 283.386 325.941 283.717 325.732C284.052 325.523 284.316 325.243 284.508 324.892C284.703 324.541 284.801 324.15 284.801 323.719C284.801 323.298 284.707 322.915 284.518 322.57C284.332 322.222 284.075 321.946 283.747 321.74C283.422 321.535 283.051 321.432 282.634 321.432C282.319 321.432 282.025 321.495 281.754 321.621C281.482 321.743 281.243 321.912 281.038 322.128C280.835 322.343 280.676 322.59 280.56 322.869C280.444 323.144 280.386 323.434 280.386 323.739C280.386 324.143 280.481 324.521 280.67 324.872C280.862 325.223 281.124 325.507 281.455 325.722C281.79 325.938 282.17 326.045 282.594 326.045Z" fill="black"/>
<rect width="276" height="56" transform="translate(30 349)" fill="white"/>
<rect x="30.5" y="349.5" width="55" height="55" stroke="#D5D4DF"/>
<path d="M50.2878 382V381.105L53.6486 377.426C54.043 376.995 54.3678 376.621 54.623 376.303C54.8783 375.981 55.0672 375.679 55.1898 375.398C55.3158 375.113 55.3787 374.814 55.3787 374.503C55.3787 374.145 55.2926 373.835 55.1202 373.573C54.9512 373.311 54.7192 373.109 54.4242 372.967C54.1292 372.824 53.7978 372.753 53.4299 372.753C53.0388 372.753 52.6974 372.834 52.4057 372.996C52.1174 373.156 51.8936 373.379 51.7346 373.668C51.5788 373.956 51.5009 374.294 51.5009 374.682H50.3276C50.3276 374.085 50.4651 373.562 50.7402 373.111C51.0153 372.66 51.3899 372.309 51.8638 372.057C52.3411 371.805 52.8764 371.679 53.4696 371.679C54.0662 371.679 54.5949 371.805 55.0556 372.057C55.5163 372.309 55.8775 372.648 56.1394 373.076C56.4012 373.504 56.5321 373.979 56.5321 374.503C56.5321 374.877 56.4642 375.244 56.3283 375.602C56.1957 375.956 55.9637 376.352 55.6323 376.79C55.3042 377.224 54.8484 377.754 54.2651 378.381L51.9782 380.827V380.906H56.7111V382H50.2878ZM62.4545 371.679C62.8722 371.682 63.2898 371.762 63.7074 371.918C64.125 372.073 64.5062 372.332 64.8509 372.693C65.1955 373.051 65.4723 373.54 65.6811 374.16C65.8899 374.78 65.9943 375.557 65.9943 376.491C65.9943 377.396 65.9081 378.2 65.7358 378.903C65.5668 379.602 65.3215 380.192 65 380.673C64.6818 381.153 64.294 381.518 63.8366 381.766C63.3826 382.015 62.8688 382.139 62.2955 382.139C61.7254 382.139 61.2166 382.027 60.7692 381.801C60.325 381.572 59.9605 381.256 59.6754 380.852C59.3937 380.444 59.2131 379.972 59.1335 379.435H60.3466C60.456 379.902 60.6731 380.288 60.9979 380.593C61.326 380.895 61.7585 381.045 62.2955 381.045C63.081 381.045 63.7008 380.702 64.1548 380.016C64.6122 379.33 64.8409 378.361 64.8409 377.108H64.7614C64.5758 377.386 64.3554 377.627 64.1001 377.829C63.8449 378.031 63.5616 378.187 63.25 378.296C62.9384 378.406 62.607 378.46 62.2557 378.46C61.6723 378.46 61.1371 378.316 60.6499 378.028C60.166 377.736 59.7782 377.337 59.4865 376.83C59.1982 376.319 59.054 375.736 59.054 375.08C59.054 374.456 59.1932 373.886 59.4716 373.369C59.7533 372.849 60.1477 372.435 60.6548 372.126C61.1652 371.818 61.7652 371.669 62.4545 371.679ZM62.4545 372.773C62.0369 372.773 61.6607 372.877 61.326 373.086C60.9946 373.291 60.7311 373.57 60.5355 373.921C60.3433 374.269 60.2472 374.655 60.2472 375.08C60.2472 375.504 60.34 375.89 60.5256 376.238C60.7145 376.583 60.9714 376.858 61.2962 377.063C61.6243 377.265 61.9972 377.366 62.4148 377.366C62.7296 377.366 63.023 377.305 63.2947 377.183C63.5665 377.057 63.8035 376.886 64.0057 376.67C64.2112 376.452 64.3719 376.205 64.4879 375.93C64.6039 375.651 64.6619 375.361 64.6619 375.06C64.6619 374.662 64.5658 374.289 64.3736 373.941C64.1847 373.593 63.9228 373.311 63.5881 373.096C63.2566 372.88 62.8788 372.773 62.4545 372.773Z" fill="black"/>
<rect x="85.5" y="349.5" width="55" height="55" fill="#FF6587"/>
<rect x="85.5" y="349.5" width="55" height="55" stroke="#D5D4DF"/>
<path d="M108.509 382.139C107.853 382.139 107.268 382.027 106.754 381.801C106.244 381.576 105.838 381.263 105.536 380.862C105.238 380.457 105.076 379.988 105.049 379.455H106.302C106.329 379.783 106.441 380.066 106.64 380.305C106.839 380.54 107.099 380.722 107.421 380.852C107.742 380.981 108.098 381.045 108.49 381.045C108.927 381.045 109.315 380.969 109.653 380.817C109.991 380.664 110.256 380.452 110.448 380.18C110.641 379.909 110.737 379.594 110.737 379.236C110.737 378.861 110.644 378.531 110.458 378.246C110.273 377.958 110.001 377.733 109.643 377.57C109.285 377.408 108.847 377.327 108.33 377.327H107.515V376.233H108.33C108.735 376.233 109.089 376.16 109.394 376.014C109.703 375.868 109.943 375.663 110.115 375.398C110.291 375.133 110.379 374.821 110.379 374.463C110.379 374.118 110.302 373.818 110.15 373.563C109.998 373.308 109.782 373.109 109.504 372.967C109.229 372.824 108.904 372.753 108.529 372.753C108.178 372.753 107.847 372.817 107.535 372.947C107.227 373.073 106.975 373.257 106.779 373.499C106.584 373.737 106.478 374.026 106.461 374.364H105.268C105.288 373.83 105.449 373.363 105.75 372.962C106.052 372.557 106.446 372.242 106.933 372.017C107.424 371.792 107.963 371.679 108.549 371.679C109.179 371.679 109.719 371.807 110.17 372.062C110.621 372.314 110.967 372.647 111.209 373.061C111.451 373.475 111.572 373.923 111.572 374.403C111.572 374.977 111.421 375.466 111.119 375.87C110.821 376.274 110.415 376.554 109.901 376.71V376.79C110.544 376.896 111.047 377.169 111.408 377.61C111.769 378.048 111.95 378.589 111.95 379.236C111.95 379.789 111.799 380.286 111.497 380.727C111.199 381.165 110.791 381.509 110.274 381.761C109.757 382.013 109.169 382.139 108.509 382.139ZM117.534 382.139C116.785 382.139 116.147 381.935 115.62 381.528C115.093 381.117 114.69 380.522 114.412 379.743C114.134 378.961 113.994 378.016 113.994 376.909C113.994 375.809 114.134 374.869 114.412 374.09C114.694 373.308 115.098 372.711 115.625 372.3C116.155 371.886 116.792 371.679 117.534 371.679C118.277 371.679 118.911 371.886 119.438 372.3C119.969 372.711 120.373 373.308 120.651 374.09C120.933 374.869 121.074 375.809 121.074 376.909C121.074 378.016 120.935 378.961 120.656 379.743C120.378 380.522 119.975 381.117 119.448 381.528C118.921 381.935 118.283 382.139 117.534 382.139ZM117.534 381.045C118.277 381.045 118.853 380.687 119.264 379.972C119.675 379.256 119.881 378.235 119.881 376.909C119.881 376.027 119.786 375.277 119.597 374.657C119.412 374.037 119.143 373.565 118.792 373.24C118.444 372.915 118.025 372.753 117.534 372.753C116.798 372.753 116.223 373.116 115.809 373.842C115.395 374.564 115.188 375.587 115.188 376.909C115.188 377.791 115.28 378.54 115.466 379.156C115.652 379.773 115.918 380.242 116.266 380.563C116.618 380.885 117.04 381.045 117.534 381.045Z" fill="white"/>
<rect x="140.5" y="349.5" width="55" height="55" fill="#FF6587"/>
<rect x="140.5" y="349.5" width="55" height="55" stroke="#D5D4DF"/>
<path d="M163.509 382.139C162.853 382.139 162.268 382.027 161.754 381.801C161.244 381.576 160.838 381.263 160.536 380.862C160.238 380.457 160.076 379.988 160.049 379.455H161.302C161.329 379.783 161.441 380.066 161.64 380.305C161.839 380.54 162.099 380.722 162.421 380.852C162.742 380.981 163.098 381.045 163.49 381.045C163.927 381.045 164.315 380.969 164.653 380.817C164.991 380.664 165.256 380.452 165.448 380.18C165.641 379.909 165.737 379.594 165.737 379.236C165.737 378.861 165.644 378.531 165.458 378.246C165.273 377.958 165.001 377.733 164.643 377.57C164.285 377.408 163.847 377.327 163.33 377.327H162.515V376.233H163.33C163.735 376.233 164.089 376.16 164.394 376.014C164.703 375.868 164.943 375.663 165.115 375.398C165.291 375.133 165.379 374.821 165.379 374.463C165.379 374.118 165.302 373.818 165.15 373.563C164.998 373.308 164.782 373.109 164.504 372.967C164.229 372.824 163.904 372.753 163.529 372.753C163.178 372.753 162.847 372.817 162.535 372.947C162.227 373.073 161.975 373.257 161.779 373.499C161.584 373.737 161.478 374.026 161.461 374.364H160.268C160.288 373.83 160.449 373.363 160.75 372.962C161.052 372.557 161.446 372.242 161.933 372.017C162.424 371.792 162.963 371.679 163.549 371.679C164.179 371.679 164.719 371.807 165.17 372.062C165.621 372.314 165.967 372.647 166.209 373.061C166.451 373.475 166.572 373.923 166.572 374.403C166.572 374.977 166.421 375.466 166.119 375.87C165.821 376.274 165.415 376.554 164.901 376.71V376.79C165.544 376.896 166.047 377.169 166.408 377.61C166.769 378.048 166.95 378.589 166.95 379.236C166.95 379.789 166.799 380.286 166.497 380.727C166.199 381.165 165.791 381.509 165.274 381.761C164.757 382.013 164.169 382.139 163.509 382.139ZM173.906 371.818V382H172.673V373.111H172.614L170.128 374.761V373.509L172.673 371.818H173.906Z" fill="white"/>
<rect x="195.5" y="349.5" width="55" height="55" fill="#F2F3F7"/>
<rect x="195.5" y="349.5" width="55" height="55" stroke="#D5D4DF"/>
<path d="M224.374 371.818V382H223.141V373.111H223.081L220.596 374.761V373.509L223.141 371.818H224.374Z" fill="#A8A8A8"/>
<rect x="250.5" y="349.5" width="55" height="55" fill="#F2F3F7"/>
<rect x="250.5" y="349.5" width="55" height="55" stroke="#D5D4DF"/>
<path d="M274.82 382V381.105L278.181 377.426C278.575 376.995 278.9 376.621 279.155 376.303C279.41 375.981 279.599 375.679 279.722 375.398C279.848 375.113 279.911 374.814 279.911 374.503C279.911 374.145 279.825 373.835 279.652 373.573C279.483 373.311 279.251 373.109 278.956 372.967C278.661 372.824 278.33 372.753 277.962 372.753C277.571 372.753 277.23 372.834 276.938 372.996C276.65 373.156 276.426 373.379 276.267 373.668C276.111 373.956 276.033 374.294 276.033 374.682H274.86C274.86 374.085 274.997 373.562 275.272 373.111C275.548 372.66 275.922 372.309 276.396 372.057C276.873 371.805 277.409 371.679 278.002 371.679C278.598 371.679 279.127 371.805 279.588 372.057C280.049 372.309 280.41 372.648 280.672 373.076C280.933 373.504 281.064 373.979 281.064 374.503C281.064 374.877 280.996 375.244 280.861 375.602C280.728 375.956 280.496 376.352 280.165 376.79C279.836 377.224 279.381 377.754 278.797 378.381L276.51 380.827V380.906H281.243V382H274.82Z" fill="#A8A8A8"/>
</g>
<defs>
<clipPath id="clip0_226_3883">
<rect width="276" height="331" fill="white" transform="translate(30 74)"/>
</clipPath>
</defs>
</svg>
