<svg width="12" height="12" viewBox="0 0 12 12" fill="none" xmlns="http://www.w3.org/2000/svg">
<path d="M10.8366 1.09314C10.7319 1.02517 10.6148 0.978497 10.4921 0.955791C10.3693 0.933086 10.2433 0.93479 10.1211 0.960807C9.99904 0.986824 9.88325 1.03664 9.7804 1.10742C9.67755 1.1782 9.58965 1.26854 9.52173 1.3733L4.19424 9.58511L1.5961 7.18283C1.50443 7.09807 1.39697 7.0322 1.27985 6.98897C1.16272 6.94574 1.03823 6.92601 0.913484 6.93089C0.66154 6.94076 0.423834 7.05031 0.25266 7.23543C0.0814849 7.42056 -0.00913728 7.66611 0.000728887 7.91805C0.0105951 8.16999 0.120141 8.4077 0.305269 8.57887L3.71664 11.7329C3.71664 11.7329 3.81457 11.8172 3.85989 11.8467C3.96462 11.9147 4.08174 11.9614 4.20454 11.9841C4.32734 12.0069 4.45342 12.0052 4.57556 11.9792C4.69771 11.9531 4.81353 11.9033 4.9164 11.8325C5.01928 11.7617 5.10719 11.6713 5.17512 11.5665L11.1168 2.40805C11.1848 2.30333 11.2314 2.18624 11.2542 2.06347C11.2769 1.9407 11.2752 1.81466 11.2491 1.69255C11.2231 1.57045 11.1733 1.45466 11.1025 1.35181C11.0317 1.24896 10.9414 1.16106 10.8366 1.09314Z" fill="#486AE9"/>
</svg>
