<svg width="151" height="173" viewBox="0 0 151 173" fill="none" xmlns="http://www.w3.org/2000/svg">
<rect width="151" height="173" rx="16" fill="#F9F7F3"/>
<g clip-path="url(#clip0_428_6663)">
<path fill-rule="evenodd" clip-rule="evenodd" d="M52.2206 60.7106C52.2206 59.421 53.2667 58.3758 54.5574 58.3758V53.7054C53.2667 53.7054 52.2206 52.6601 52.2206 51.3706C52.2206 50.081 53.2667 49.0357 54.5574 49.0357V46.7002H51.9186C51.9186 47.9898 50.8718 49.0357 49.5811 49.0357C48.2905 49.0357 47.2444 47.9898 47.2444 46.7002H41.9661C41.9661 47.9898 40.92 49.0357 39.6294 49.0357C38.3387 49.0357 37.2919 47.9898 37.2919 46.7002H32.0137C32.0137 47.9898 30.9676 49.0357 29.6769 49.0357C28.3863 49.0357 27.3401 47.9898 27.3401 46.7002H24.7007V49.0357C25.9913 49.0357 27.0375 50.081 27.0375 51.3706C27.0375 52.6601 25.9913 53.7054 24.7007 53.7054V58.3758C25.9913 58.3758 27.0375 59.421 27.0375 60.7106C27.0375 62.0002 25.9913 63.0454 24.7007 63.0454V67.7158C25.9913 67.7158 27.0375 68.761 27.0375 70.0506C27.0375 71.3402 25.9913 72.3854 24.7007 72.3854V77.0558C25.9913 77.0558 27.0375 78.1011 27.0375 79.3906C27.0375 80.6802 25.9913 81.7255 24.7007 81.7255V84.061H27.3401C27.3401 82.7714 28.3863 81.7255 29.6769 81.7255C30.9676 81.7255 32.0137 82.7714 32.0137 84.061H37.2919C37.2919 82.7714 38.3387 81.7255 39.6294 81.7255C40.92 81.7255 41.9661 82.7714 41.9661 84.061H47.2444C47.2444 82.7714 48.2905 81.7255 49.5811 81.7255C50.8718 81.7255 51.9186 82.7714 51.9186 84.061H54.5574V81.7255C53.2667 81.7255 52.2206 80.6802 52.2206 79.3906C52.2206 78.1011 53.2667 77.0558 54.5574 77.0558V72.3854C53.2667 72.3854 52.2206 71.3402 52.2206 70.0506C52.2206 68.761 53.2667 67.7158 54.5574 67.7158V63.0454C53.2667 63.0454 52.2206 62.0002 52.2206 60.7106Z" fill="#02004E"/>
<path fill-rule="evenodd" clip-rule="evenodd" d="M52.2206 60.7106C52.2206 59.421 53.2667 58.3758 54.5574 58.3758V53.7054C53.2667 53.7054 52.2206 52.6601 52.2206 51.3706C52.2206 50.081 53.2667 49.0357 54.5574 49.0357V46.7002H51.9186C51.9186 47.9898 50.8718 49.0357 49.5811 49.0357C48.2905 49.0357 47.2444 47.9898 47.2444 46.7002H41.9661C41.9661 47.9898 40.92 49.0357 39.6294 49.0357C38.3387 49.0357 37.2919 47.9898 37.2919 46.7002H32.0137C32.0137 47.9898 30.9676 49.0357 29.6769 49.0357C28.3863 49.0357 27.3401 47.9898 27.3401 46.7002H24.7007V49.0357C25.9913 49.0357 27.0375 50.081 27.0375 51.3706C27.0375 52.6601 25.9913 53.7054 24.7007 53.7054V58.3758C25.9913 58.3758 27.0375 59.421 27.0375 60.7106C27.0375 62.0002 25.9913 63.0454 24.7007 63.0454V67.7158C25.9913 67.7158 27.0375 68.761 27.0375 70.0506C27.0375 71.3402 25.9913 72.3854 24.7007 72.3854V77.0558C25.9913 77.0558 27.0375 78.1011 27.0375 79.3906C27.0375 80.6802 25.9913 81.7255 24.7007 81.7255V84.061H27.3401C27.3401 82.7714 28.3863 81.7255 29.6769 81.7255C30.9676 81.7255 32.0137 82.7714 32.0137 84.061H37.2919C37.2919 82.7714 38.3387 81.7255 39.6294 81.7255C40.92 81.7255 41.9661 82.7714 41.9661 84.061H47.2444C47.2444 82.7714 48.2905 81.7255 49.5811 81.7255C50.8718 81.7255 51.9186 82.7714 51.9186 84.061H54.5574V81.7255C53.2667 81.7255 52.2206 80.6802 52.2206 79.3906C52.2206 78.1011 53.2667 77.0558 54.5574 77.0558V72.3854C53.2667 72.3854 52.2206 71.3402 52.2206 70.0506C52.2206 68.761 53.2667 67.7158 54.5574 67.7158V63.0454C53.2667 63.0454 52.2206 62.0002 52.2206 60.7106Z" stroke="white"/>
<path fill-rule="evenodd" clip-rule="evenodd" d="M38.7731 68.5698V72.2811C38.7731 72.5842 38.6246 72.8873 38.3282 73.0645L35.4365 74.8021V74.8L32.2925 76.6868C32.2078 76.7379 32.0999 76.6763 32.0999 76.5776V73.166C32.0999 73.1212 32.123 73.0799 32.1615 73.0568L35.4365 71.0909L36.5443 70.4265L38.3282 69.3532C38.6246 69.1761 38.7731 68.873 38.7731 68.5698Z" fill="white"/>
<path fill-rule="evenodd" clip-rule="evenodd" d="M38.7731 68.5698V72.2811C38.7731 72.5842 38.6246 72.8873 38.3282 73.0645L35.4365 74.8021V74.8L32.2925 76.6868C32.2078 76.7379 32.0999 76.6763 32.0999 76.5776V73.166C32.0999 73.1212 32.123 73.0799 32.1615 73.0568L35.4365 71.0909L36.5443 70.4265L38.3282 69.3532C38.6246 69.1761 38.7731 68.873 38.7731 68.5698Z" stroke="#02004E"/>
<path fill-rule="evenodd" clip-rule="evenodd" d="M38.7731 58.485C38.7731 58.7861 38.6246 59.0892 38.3282 59.2685L36.5443 60.3396L35.4365 59.6724L32.1615 57.7072C32.123 57.6841 32.0999 57.6428 32.0999 57.598V54.1843C32.0999 54.0849 32.2078 54.024 32.2925 54.0751L35.4365 55.964L38.3282 57.6995C38.6246 57.8788 38.7731 58.1819 38.7731 58.485Z" fill="white"/>
<path fill-rule="evenodd" clip-rule="evenodd" d="M38.7731 58.485C38.7731 58.7861 38.6246 59.0892 38.3282 59.2685L36.5443 60.3396L35.4365 59.6724L32.1615 57.7072C32.123 57.6841 32.0999 57.6428 32.0999 57.598V54.1843C32.0999 54.0849 32.2078 54.024 32.2925 54.0751L35.4365 55.964L38.3282 57.6995C38.6246 57.8788 38.7731 58.1819 38.7731 58.485Z" stroke="#02004E"/>
<path fill-rule="evenodd" clip-rule="evenodd" d="M38.7731 58.4849V62.1961C38.7731 62.4992 38.6246 62.7996 38.3282 62.9795L35.4365 64.715V64.7192L34.3287 65.3836L32.5427 66.4569C32.2477 66.6347 32.0999 66.9379 32.0999 67.2403V63.5298C32.0999 63.2266 32.2477 62.9235 32.5427 62.7457L35.4365 61.008V61.0038L36.5443 60.3394L38.3282 59.2683C38.6246 59.0891 38.7731 58.7859 38.7731 58.4849Z" fill="white"/>
<path fill-rule="evenodd" clip-rule="evenodd" d="M38.7731 58.4849V62.1961C38.7731 62.4992 38.6246 62.7996 38.3282 62.9795L35.4365 64.715V64.7192L34.3287 65.3836L32.5427 66.4569C32.2477 66.6347 32.0999 66.9379 32.0999 67.2403V63.5298C32.0999 63.2266 32.2477 62.9235 32.5427 62.7457L35.4365 61.008V61.0038L36.5443 60.3394L38.3282 59.2683C38.6246 59.0891 38.7731 58.7859 38.7731 58.4849Z" stroke="#02004E"/>
<path fill-rule="evenodd" clip-rule="evenodd" d="M38.7731 68.5697C38.7731 68.8729 38.6246 69.176 38.3282 69.3531L36.5443 70.4264L35.4365 69.7599L32.5427 68.0244C32.2477 67.8444 32.0999 67.5434 32.0999 67.2409C32.0999 66.9378 32.2477 66.6347 32.5427 66.4568L34.3287 65.3843L35.4365 66.0487L38.3282 67.7863C38.6246 67.9634 38.7731 68.2666 38.7731 68.5697Z" fill="white"/>
<path fill-rule="evenodd" clip-rule="evenodd" d="M38.7731 68.5697C38.7731 68.8729 38.6246 69.176 38.3282 69.3531L36.5443 70.4264L35.4365 69.7599L32.5427 68.0244C32.2477 67.8444 32.0999 67.5434 32.0999 67.2409C32.0999 66.9378 32.2477 66.6347 32.5427 66.4568L34.3287 65.3843L35.4365 66.0487L38.3282 67.7863C38.6246 67.9634 38.7731 68.2666 38.7731 68.5697Z" stroke="#02004E"/>
<path fill-rule="evenodd" clip-rule="evenodd" d="M47.1586 63.5274C47.1586 63.8305 47.0101 64.1337 46.7158 64.3108L44.9298 65.3819L43.822 64.7175V64.7147L40.547 62.7496C40.5085 62.7265 40.4854 62.6852 40.4854 62.6404V59.2288C40.4854 59.1294 40.5933 59.0684 40.678 59.1196L43.822 61.0063L46.7158 62.744C47.0101 62.9211 47.1586 63.2242 47.1586 63.5274Z" fill="white"/>
<path fill-rule="evenodd" clip-rule="evenodd" d="M47.1586 63.5274C47.1586 63.8305 47.0101 64.1337 46.7158 64.3108L44.9298 65.3819L43.822 64.7175V64.7147L40.547 62.7496C40.5085 62.7265 40.4854 62.6852 40.4854 62.6404V59.2288C40.4854 59.1294 40.5933 59.0684 40.678 59.1196L43.822 61.0063L46.7158 62.744C47.0101 62.9211 47.1586 63.2242 47.1586 63.5274Z" stroke="#02004E"/>
<path fill-rule="evenodd" clip-rule="evenodd" d="M47.1586 63.5273V67.2386C47.1586 67.5417 47.0101 67.8449 46.7158 68.022L43.822 69.7596V69.7575L40.678 71.6443C40.5933 71.6954 40.4854 71.6338 40.4854 71.5351V68.1235C40.4854 68.0787 40.5085 68.0374 40.547 68.0143L43.822 66.0484L44.9298 65.3819L46.7158 64.3108C47.0101 64.1336 47.1586 63.8305 47.1586 63.5273Z" fill="white"/>
<path fill-rule="evenodd" clip-rule="evenodd" d="M47.1586 63.5273V67.2386C47.1586 67.5417 47.0101 67.8449 46.7158 68.022L43.822 69.7596V69.7575L40.678 71.6443C40.5933 71.6954 40.4854 71.6338 40.4854 71.5351V68.1235C40.4854 68.0787 40.5085 68.0374 40.547 68.0143L43.822 66.0484L44.9298 65.3819L46.7158 64.3108C47.0101 64.1336 47.1586 63.8305 47.1586 63.5273Z" stroke="#02004E"/>
<path fill-rule="evenodd" clip-rule="evenodd" d="M88.2475 60.7106C88.2475 59.421 89.2936 58.3758 90.5842 58.3758V53.7054C89.2936 53.7054 88.2475 52.6601 88.2475 51.3706C88.2475 50.081 89.2936 49.0357 90.5842 49.0357V46.7002H87.9455C87.9455 47.9898 86.8986 49.0357 85.608 49.0357C84.3173 49.0357 83.2712 47.9898 83.2712 46.7002H77.993C77.993 47.9898 76.9469 49.0357 75.6562 49.0357C74.3656 49.0357 73.3188 47.9898 73.3188 46.7002H68.0405C68.0405 47.9898 66.9944 49.0357 65.7038 49.0357C64.4131 49.0357 63.367 47.9898 63.367 46.7002H60.7275V49.0357C62.0182 49.0357 63.0643 50.081 63.0643 51.3706C63.0643 52.6601 62.0182 53.7054 60.7275 53.7054V58.3758C62.0182 58.3758 63.0643 59.421 63.0643 60.7106C63.0643 62.0002 62.0182 63.0454 60.7275 63.0454V67.7158C62.0182 67.7158 63.0643 68.761 63.0643 70.0506C63.0643 71.3402 62.0182 72.3854 60.7275 72.3854V77.0558C62.0182 77.0558 63.0643 78.1011 63.0643 79.3906C63.0643 80.6802 62.0182 81.7255 60.7275 81.7255V84.061H63.367C63.367 82.7714 64.4131 81.7255 65.7038 81.7255C66.9944 81.7255 68.0405 82.7714 68.0405 84.061H73.3188C73.3188 82.7714 74.3656 81.7255 75.6562 81.7255C76.9469 81.7255 77.993 82.7714 77.993 84.061H83.2712C83.2712 82.7714 84.3173 81.7255 85.608 81.7255C86.8986 81.7255 87.9455 82.7714 87.9455 84.061H90.5842V81.7255C89.2936 81.7255 88.2475 80.6802 88.2475 79.3906C88.2475 78.1011 89.2936 77.0558 90.5842 77.0558V72.3854C89.2936 72.3854 88.2475 71.3402 88.2475 70.0506C88.2475 68.761 89.2936 67.7158 90.5842 67.7158V63.0454C89.2936 63.0454 88.2475 62.0002 88.2475 60.7106Z" fill="#00C88B"/>
<path fill-rule="evenodd" clip-rule="evenodd" d="M88.2475 60.7106C88.2475 59.421 89.2936 58.3758 90.5842 58.3758V53.7054C89.2936 53.7054 88.2475 52.6601 88.2475 51.3706C88.2475 50.081 89.2936 49.0357 90.5842 49.0357V46.7002H87.9455C87.9455 47.9898 86.8986 49.0357 85.608 49.0357C84.3173 49.0357 83.2712 47.9898 83.2712 46.7002H77.993C77.993 47.9898 76.9469 49.0357 75.6562 49.0357C74.3656 49.0357 73.3188 47.9898 73.3188 46.7002H68.0405C68.0405 47.9898 66.9944 49.0357 65.7038 49.0357C64.4131 49.0357 63.367 47.9898 63.367 46.7002H60.7275V49.0357C62.0182 49.0357 63.0643 50.081 63.0643 51.3706C63.0643 52.6601 62.0182 53.7054 60.7275 53.7054V58.3758C62.0182 58.3758 63.0643 59.421 63.0643 60.7106C63.0643 62.0002 62.0182 63.0454 60.7275 63.0454V67.7158C62.0182 67.7158 63.0643 68.761 63.0643 70.0506C63.0643 71.3402 62.0182 72.3854 60.7275 72.3854V77.0558C62.0182 77.0558 63.0643 78.1011 63.0643 79.3906C63.0643 80.6802 62.0182 81.7255 60.7275 81.7255V84.061H63.367C63.367 82.7714 64.4131 81.7255 65.7038 81.7255C66.9944 81.7255 68.0405 82.7714 68.0405 84.061H73.3188C73.3188 82.7714 74.3656 81.7255 75.6562 81.7255C76.9469 81.7255 77.993 82.7714 77.993 84.061H83.2712C83.2712 82.7714 84.3173 81.7255 85.608 81.7255C86.8986 81.7255 87.9455 82.7714 87.9455 84.061H90.5842V81.7255C89.2936 81.7255 88.2475 80.6802 88.2475 79.3906C88.2475 78.1011 89.2936 77.0558 90.5842 77.0558V72.3854C89.2936 72.3854 88.2475 71.3402 88.2475 70.0506C88.2475 68.761 89.2936 67.7158 90.5842 67.7158V63.0454C89.2936 63.0454 88.2475 62.0002 88.2475 60.7106Z" stroke="white"/>
<path fill-rule="evenodd" clip-rule="evenodd" d="M74.8 68.5698V72.2811C74.8 72.5842 74.6514 72.8873 74.3551 73.0645L71.4633 74.8021V74.8L68.3194 76.6868C68.2346 76.7379 68.1267 76.6763 68.1267 76.5776V73.166C68.1267 73.1212 68.1498 73.0799 68.1884 73.0568L71.4633 71.0909L72.5711 70.4265L74.3551 69.3532C74.6514 69.1761 74.8 68.873 74.8 68.5698Z" fill="white"/>
<path fill-rule="evenodd" clip-rule="evenodd" d="M74.8 68.5698V72.2811C74.8 72.5842 74.6514 72.8873 74.3551 73.0645L71.4633 74.8021V74.8L68.3194 76.6868C68.2346 76.7379 68.1267 76.6763 68.1267 76.5776V73.166C68.1267 73.1212 68.1498 73.0799 68.1884 73.0568L71.4633 71.0909L72.5711 70.4265L74.3551 69.3532C74.6514 69.1761 74.8 68.873 74.8 68.5698Z" stroke="#00C88B"/>
<path fill-rule="evenodd" clip-rule="evenodd" d="M74.8 58.485C74.8 58.7861 74.6514 59.0892 74.3551 59.2685L72.5711 60.3396L71.4633 59.6724L68.1884 57.7072C68.1498 57.6841 68.1267 57.6428 68.1267 57.598V54.1843C68.1267 54.0849 68.2346 54.024 68.3194 54.0751L71.4633 55.964L74.3551 57.6995C74.6514 57.8788 74.8 58.1819 74.8 58.485Z" fill="white"/>
<path fill-rule="evenodd" clip-rule="evenodd" d="M74.8 58.485C74.8 58.7861 74.6514 59.0892 74.3551 59.2685L72.5711 60.3396L71.4633 59.6724L68.1884 57.7072C68.1498 57.6841 68.1267 57.6428 68.1267 57.598V54.1843C68.1267 54.0849 68.2346 54.024 68.3194 54.0751L71.4633 55.964L74.3551 57.6995C74.6514 57.8788 74.8 58.1819 74.8 58.485Z" stroke="#00C88B"/>
<path fill-rule="evenodd" clip-rule="evenodd" d="M74.8 58.4849V62.1961C74.8 62.4992 74.6514 62.7996 74.3551 62.9795L71.4633 64.715V64.7192L70.3556 65.3836L68.5695 66.4569C68.2746 66.6347 68.1267 66.9379 68.1267 67.2403V63.5298C68.1267 63.2266 68.2746 62.9235 68.5695 62.7457L71.4633 61.008V61.0038L72.5711 60.3394L74.3551 59.2683C74.6514 59.0891 74.8 58.7859 74.8 58.4849Z" fill="white"/>
<path fill-rule="evenodd" clip-rule="evenodd" d="M74.8 58.4849V62.1961C74.8 62.4992 74.6514 62.7996 74.3551 62.9795L71.4633 64.715V64.7192L70.3556 65.3836L68.5695 66.4569C68.2746 66.6347 68.1267 66.9379 68.1267 67.2403V63.5298C68.1267 63.2266 68.2746 62.9235 68.5695 62.7457L71.4633 61.008V61.0038L72.5711 60.3394L74.3551 59.2683C74.6514 59.0891 74.8 58.7859 74.8 58.4849Z" stroke="#00C88B"/>
<path fill-rule="evenodd" clip-rule="evenodd" d="M74.8 68.5697C74.8 68.8729 74.6514 69.176 74.3551 69.3531L72.5711 70.4264L71.4633 69.7599L68.5695 68.0244C68.2746 67.8444 68.1267 67.5434 68.1267 67.2409C68.1267 66.9378 68.2746 66.6347 68.5695 66.4568L70.3556 65.3843L71.4633 66.0487L74.3551 67.7863C74.6514 67.9634 74.8 68.2666 74.8 68.5697Z" fill="white"/>
<path fill-rule="evenodd" clip-rule="evenodd" d="M74.8 68.5697C74.8 68.8729 74.6514 69.176 74.3551 69.3531L72.5711 70.4264L71.4633 69.7599L68.5695 68.0244C68.2746 67.8444 68.1267 67.5434 68.1267 67.2409C68.1267 66.9378 68.2746 66.6347 68.5695 66.4568L70.3556 65.3843L71.4633 66.0487L74.3551 67.7863C74.6514 67.9634 74.8 68.2666 74.8 68.5697Z" stroke="#00C88B"/>
<path fill-rule="evenodd" clip-rule="evenodd" d="M83.1855 63.5274C83.1855 63.8305 83.0369 64.1337 82.7427 64.3108L80.9566 65.3819L79.8488 64.7175V64.7147L76.5739 62.7496C76.5353 62.7265 76.5122 62.6852 76.5122 62.6404V59.2288C76.5122 59.1294 76.6201 59.0684 76.7049 59.1196L79.8488 61.0063L82.7427 62.744C83.0369 62.9211 83.1855 63.2242 83.1855 63.5274Z" fill="white"/>
<path fill-rule="evenodd" clip-rule="evenodd" d="M83.1855 63.5274C83.1855 63.8305 83.0369 64.1337 82.7427 64.3108L80.9566 65.3819L79.8488 64.7175V64.7147L76.5739 62.7496C76.5353 62.7265 76.5122 62.6852 76.5122 62.6404V59.2288C76.5122 59.1294 76.6201 59.0684 76.7049 59.1196L79.8488 61.0063L82.7427 62.744C83.0369 62.9211 83.1855 63.2242 83.1855 63.5274Z" stroke="#00C88B"/>
<path fill-rule="evenodd" clip-rule="evenodd" d="M83.1855 63.5273V67.2386C83.1855 67.5417 83.0369 67.8449 82.7427 68.022L79.8488 69.7596V69.7575L76.7049 71.6443C76.6201 71.6954 76.5122 71.6338 76.5122 71.5351V68.1235C76.5122 68.0787 76.5353 68.0374 76.5739 68.0143L79.8488 66.0484L80.9566 65.3819L82.7427 64.3108C83.0369 64.1336 83.1855 63.8305 83.1855 63.5273Z" fill="white"/>
<path fill-rule="evenodd" clip-rule="evenodd" d="M83.1855 63.5273V67.2386C83.1855 67.5417 83.0369 67.8449 82.7427 68.022L79.8488 69.7596V69.7575L76.7049 71.6443C76.6201 71.6954 76.5122 71.6338 76.5122 71.5351V68.1235C76.5122 68.0787 76.5353 68.0374 76.5739 68.0143L79.8488 66.0484L80.9566 65.3819L82.7427 64.3108C83.0369 64.1336 83.1855 63.8305 83.1855 63.5273Z" stroke="#00C88B"/>
<path fill-rule="evenodd" clip-rule="evenodd" d="M124.274 60.7106C124.274 59.421 125.32 58.3758 126.611 58.3758V53.7054C125.32 53.7054 124.274 52.6601 124.274 51.3706C124.274 50.081 125.32 49.0357 126.611 49.0357V46.7002H123.972C123.972 47.9898 122.926 49.0357 121.635 49.0357C120.344 49.0357 119.298 47.9898 119.298 46.7002H114.02C114.02 47.9898 112.974 49.0357 111.683 49.0357C110.392 49.0357 109.346 47.9898 109.346 46.7002H104.067C104.067 47.9898 103.021 49.0357 101.731 49.0357C100.44 49.0357 99.3939 47.9898 99.3939 46.7002H96.7544V49.0357C98.045 49.0357 99.0912 50.081 99.0912 51.3706C99.0912 52.6601 98.045 53.7054 96.7544 53.7054V58.3758C98.045 58.3758 99.0912 59.421 99.0912 60.7106C99.0912 62.0002 98.045 63.0454 96.7544 63.0454V67.7158C98.045 67.7158 99.0912 68.761 99.0912 70.0506C99.0912 71.3402 98.045 72.3854 96.7544 72.3854V77.0558C98.045 77.0558 99.0912 78.1011 99.0912 79.3906C99.0912 80.6802 98.045 81.7255 96.7544 81.7255V84.061H99.3939C99.3939 82.7714 100.44 81.7255 101.731 81.7255C103.021 81.7255 104.067 82.7714 104.067 84.061H109.346C109.346 82.7714 110.392 81.7255 111.683 81.7255C112.974 81.7255 114.02 82.7714 114.02 84.061H119.298C119.298 82.7714 120.344 81.7255 121.635 81.7255C122.926 81.7255 123.972 82.7714 123.972 84.061H126.611V81.7255C125.32 81.7255 124.274 80.6802 124.274 79.3906C124.274 78.1011 125.32 77.0558 126.611 77.0558V72.3854C125.32 72.3854 124.274 71.3402 124.274 70.0506C124.274 68.761 125.32 67.7158 126.611 67.7158V63.0454C125.32 63.0454 124.274 62.0002 124.274 60.7106Z" fill="#486AE9"/>
<path fill-rule="evenodd" clip-rule="evenodd" d="M124.274 60.7106C124.274 59.421 125.32 58.3758 126.611 58.3758V53.7054C125.32 53.7054 124.274 52.6601 124.274 51.3706C124.274 50.081 125.32 49.0357 126.611 49.0357V46.7002H123.972C123.972 47.9898 122.926 49.0357 121.635 49.0357C120.344 49.0357 119.298 47.9898 119.298 46.7002H114.02C114.02 47.9898 112.974 49.0357 111.683 49.0357C110.392 49.0357 109.346 47.9898 109.346 46.7002H104.067C104.067 47.9898 103.021 49.0357 101.731 49.0357C100.44 49.0357 99.3939 47.9898 99.3939 46.7002H96.7544V49.0357C98.045 49.0357 99.0912 50.081 99.0912 51.3706C99.0912 52.6601 98.045 53.7054 96.7544 53.7054V58.3758C98.045 58.3758 99.0912 59.421 99.0912 60.7106C99.0912 62.0002 98.045 63.0454 96.7544 63.0454V67.7158C98.045 67.7158 99.0912 68.761 99.0912 70.0506C99.0912 71.3402 98.045 72.3854 96.7544 72.3854V77.0558C98.045 77.0558 99.0912 78.1011 99.0912 79.3906C99.0912 80.6802 98.045 81.7255 96.7544 81.7255V84.061H99.3939C99.3939 82.7714 100.44 81.7255 101.731 81.7255C103.021 81.7255 104.067 82.7714 104.067 84.061H109.346C109.346 82.7714 110.392 81.7255 111.683 81.7255C112.974 81.7255 114.02 82.7714 114.02 84.061H119.298C119.298 82.7714 120.344 81.7255 121.635 81.7255C122.926 81.7255 123.972 82.7714 123.972 84.061H126.611V81.7255C125.32 81.7255 124.274 80.6802 124.274 79.3906C124.274 78.1011 125.32 77.0558 126.611 77.0558V72.3854C125.32 72.3854 124.274 71.3402 124.274 70.0506C124.274 68.761 125.32 67.7158 126.611 67.7158V63.0454C125.32 63.0454 124.274 62.0002 124.274 60.7106Z" stroke="white"/>
<path fill-rule="evenodd" clip-rule="evenodd" d="M110.827 68.5698V72.2811C110.827 72.5842 110.678 72.8873 110.382 73.0645L107.49 74.8021V74.8L104.346 76.6868C104.261 76.7379 104.154 76.6763 104.154 76.5776V73.166C104.154 73.1212 104.177 73.0799 104.215 73.0568L107.49 71.0909L108.598 70.4265L110.382 69.3532C110.678 69.1761 110.827 68.873 110.827 68.5698Z" fill="white"/>
<path fill-rule="evenodd" clip-rule="evenodd" d="M110.827 68.5698V72.2811C110.827 72.5842 110.678 72.8873 110.382 73.0645L107.49 74.8021V74.8L104.346 76.6868C104.261 76.7379 104.154 76.6763 104.154 76.5776V73.166C104.154 73.1212 104.177 73.0799 104.215 73.0568L107.49 71.0909L108.598 70.4265L110.382 69.3532C110.678 69.1761 110.827 68.873 110.827 68.5698Z" stroke="#486AE9"/>
<path fill-rule="evenodd" clip-rule="evenodd" d="M110.827 58.485C110.827 58.7861 110.678 59.0892 110.382 59.2685L108.598 60.3396L107.49 59.6724L104.215 57.7072C104.177 57.6841 104.154 57.6428 104.154 57.598V54.1843C104.154 54.0849 104.261 54.024 104.346 54.0751L107.49 55.964L110.382 57.6995C110.678 57.8788 110.827 58.1819 110.827 58.485Z" fill="white"/>
<path fill-rule="evenodd" clip-rule="evenodd" d="M110.827 58.485C110.827 58.7861 110.678 59.0892 110.382 59.2685L108.598 60.3396L107.49 59.6724L104.215 57.7072C104.177 57.6841 104.154 57.6428 104.154 57.598V54.1843C104.154 54.0849 104.261 54.024 104.346 54.0751L107.49 55.964L110.382 57.6995C110.678 57.8788 110.827 58.1819 110.827 58.485Z" stroke="#486AE9"/>
<path fill-rule="evenodd" clip-rule="evenodd" d="M110.827 58.4849V62.1961C110.827 62.4992 110.678 62.7996 110.382 62.9795L107.49 64.715V64.7192L106.382 65.3836L104.596 66.4569C104.301 66.6347 104.154 66.9379 104.154 67.2403V63.5298C104.154 63.2266 104.301 62.9235 104.596 62.7457L107.49 61.008V61.0038L108.598 60.3394L110.382 59.2683C110.678 59.0891 110.827 58.7859 110.827 58.4849Z" fill="white"/>
<path fill-rule="evenodd" clip-rule="evenodd" d="M110.827 58.4849V62.1961C110.827 62.4992 110.678 62.7996 110.382 62.9795L107.49 64.715V64.7192L106.382 65.3836L104.596 66.4569C104.301 66.6347 104.154 66.9379 104.154 67.2403V63.5298C104.154 63.2266 104.301 62.9235 104.596 62.7457L107.49 61.008V61.0038L108.598 60.3394L110.382 59.2683C110.678 59.0891 110.827 58.7859 110.827 58.4849Z" stroke="#486AE9"/>
<path fill-rule="evenodd" clip-rule="evenodd" d="M110.827 68.5697C110.827 68.8729 110.678 69.176 110.382 69.3531L108.598 70.4264L107.49 69.7599L104.596 68.0244C104.301 67.8444 104.154 67.5434 104.154 67.2409C104.154 66.9378 104.301 66.6347 104.596 66.4568L106.382 65.3843L107.49 66.0487L110.382 67.7863C110.678 67.9634 110.827 68.2666 110.827 68.5697Z" fill="white"/>
<path fill-rule="evenodd" clip-rule="evenodd" d="M110.827 68.5697C110.827 68.8729 110.678 69.176 110.382 69.3531L108.598 70.4264L107.49 69.7599L104.596 68.0244C104.301 67.8444 104.154 67.5434 104.154 67.2409C104.154 66.9378 104.301 66.6347 104.596 66.4568L106.382 65.3843L107.49 66.0487L110.382 67.7863C110.678 67.9634 110.827 68.2666 110.827 68.5697Z" stroke="#486AE9"/>
<path fill-rule="evenodd" clip-rule="evenodd" d="M119.212 63.5274C119.212 63.8305 119.064 64.1337 118.77 64.3108L116.983 65.3819L115.876 64.7175V64.7147L112.601 62.7496C112.562 62.7265 112.539 62.6852 112.539 62.6404V59.2288C112.539 59.1294 112.647 59.0684 112.732 59.1196L115.876 61.0063L118.77 62.744C119.064 62.9211 119.212 63.2242 119.212 63.5274Z" fill="white"/>
<path fill-rule="evenodd" clip-rule="evenodd" d="M119.212 63.5274C119.212 63.8305 119.064 64.1337 118.77 64.3108L116.983 65.3819L115.876 64.7175V64.7147L112.601 62.7496C112.562 62.7265 112.539 62.6852 112.539 62.6404V59.2288C112.539 59.1294 112.647 59.0684 112.732 59.1196L115.876 61.0063L118.77 62.744C119.064 62.9211 119.212 63.2242 119.212 63.5274Z" stroke="#486AE9"/>
<path fill-rule="evenodd" clip-rule="evenodd" d="M119.212 63.5273V67.2386C119.212 67.5417 119.064 67.8449 118.77 68.022L115.876 69.7596V69.7575L112.732 71.6443C112.647 71.6954 112.539 71.6338 112.539 71.5351V68.1235C112.539 68.0787 112.562 68.0374 112.601 68.0143L115.876 66.0484L116.983 65.3819L118.77 64.3108C119.064 64.1336 119.212 63.8305 119.212 63.5273Z" fill="white"/>
<path fill-rule="evenodd" clip-rule="evenodd" d="M119.212 63.5273V67.2386C119.212 67.5417 119.064 67.8449 118.77 68.022L115.876 69.7596V69.7575L112.732 71.6443C112.647 71.6954 112.539 71.6338 112.539 71.5351V68.1235C112.539 68.0787 112.562 68.0374 112.601 68.0143L115.876 66.0484L116.983 65.3819L118.77 64.3108C119.064 64.1336 119.212 63.8305 119.212 63.5273Z" stroke="#486AE9"/>
<path fill-rule="evenodd" clip-rule="evenodd" d="M52.2206 103.484C52.2206 102.194 53.2667 101.149 54.5574 101.149V96.4788C53.2667 96.4788 52.2206 95.4336 52.2206 94.144C52.2206 92.8544 53.2667 91.8092 54.5574 91.8092V89.4736H51.9186C51.9186 90.7632 50.8718 91.8092 49.5811 91.8092C48.2905 91.8092 47.2444 90.7632 47.2444 89.4736H41.9661C41.9661 90.7632 40.92 91.8092 39.6294 91.8092C38.3387 91.8092 37.2919 90.7632 37.2919 89.4736H32.0137C32.0137 90.7632 30.9676 91.8092 29.6769 91.8092C28.3863 91.8092 27.3401 90.7632 27.3401 89.4736H24.7007V91.8092C25.9913 91.8092 27.0375 92.8544 27.0375 94.144C27.0375 95.4336 25.9913 96.4788 24.7007 96.4788V101.149C25.9913 101.149 27.0375 102.194 27.0375 103.484C27.0375 104.774 25.9913 105.819 24.7007 105.819V110.489C25.9913 110.489 27.0375 111.534 27.0375 112.824C27.0375 114.114 25.9913 115.159 24.7007 115.159V119.829C25.9913 119.829 27.0375 120.874 27.0375 122.164C27.0375 123.454 25.9913 124.499 24.7007 124.499V126.834H27.3401C27.3401 125.545 28.3863 124.499 29.6769 124.499C30.9676 124.499 32.0137 125.545 32.0137 126.834H37.2919C37.2919 125.545 38.3387 124.499 39.6294 124.499C40.92 124.499 41.9661 125.545 41.9661 126.834H47.2444C47.2444 125.545 48.2905 124.499 49.5811 124.499C50.8718 124.499 51.9186 125.545 51.9186 126.834H54.5574V124.499C53.2667 124.499 52.2206 123.454 52.2206 122.164C52.2206 120.874 53.2667 119.829 54.5574 119.829V115.159C53.2667 115.159 52.2206 114.114 52.2206 112.824C52.2206 111.534 53.2667 110.489 54.5574 110.489V105.819C53.2667 105.819 52.2206 104.774 52.2206 103.484Z" fill="#FFD300"/>
<path fill-rule="evenodd" clip-rule="evenodd" d="M52.2206 103.484C52.2206 102.194 53.2667 101.149 54.5574 101.149V96.4788C53.2667 96.4788 52.2206 95.4336 52.2206 94.144C52.2206 92.8544 53.2667 91.8092 54.5574 91.8092V89.4736H51.9186C51.9186 90.7632 50.8718 91.8092 49.5811 91.8092C48.2905 91.8092 47.2444 90.7632 47.2444 89.4736H41.9661C41.9661 90.7632 40.92 91.8092 39.6294 91.8092C38.3387 91.8092 37.2919 90.7632 37.2919 89.4736H32.0137C32.0137 90.7632 30.9676 91.8092 29.6769 91.8092C28.3863 91.8092 27.3401 90.7632 27.3401 89.4736H24.7007V91.8092C25.9913 91.8092 27.0375 92.8544 27.0375 94.144C27.0375 95.4336 25.9913 96.4788 24.7007 96.4788V101.149C25.9913 101.149 27.0375 102.194 27.0375 103.484C27.0375 104.774 25.9913 105.819 24.7007 105.819V110.489C25.9913 110.489 27.0375 111.534 27.0375 112.824C27.0375 114.114 25.9913 115.159 24.7007 115.159V119.829C25.9913 119.829 27.0375 120.874 27.0375 122.164C27.0375 123.454 25.9913 124.499 24.7007 124.499V126.834H27.3401C27.3401 125.545 28.3863 124.499 29.6769 124.499C30.9676 124.499 32.0137 125.545 32.0137 126.834H37.2919C37.2919 125.545 38.3387 124.499 39.6294 124.499C40.92 124.499 41.9661 125.545 41.9661 126.834H47.2444C47.2444 125.545 48.2905 124.499 49.5811 124.499C50.8718 124.499 51.9186 125.545 51.9186 126.834H54.5574V124.499C53.2667 124.499 52.2206 123.454 52.2206 122.164C52.2206 120.874 53.2667 119.829 54.5574 119.829V115.159C53.2667 115.159 52.2206 114.114 52.2206 112.824C52.2206 111.534 53.2667 110.489 54.5574 110.489V105.819C53.2667 105.819 52.2206 104.774 52.2206 103.484Z" stroke="white"/>
<path fill-rule="evenodd" clip-rule="evenodd" d="M38.7731 111.343V115.054C38.7731 115.358 38.6246 115.661 38.3282 115.838L35.4365 117.576V117.573L32.2925 119.46C32.2078 119.511 32.0999 119.45 32.0999 119.351V115.939C32.0999 115.895 32.123 115.853 32.1615 115.83L35.4365 113.864L36.5443 113.2L38.3282 112.127C38.6246 111.95 38.7731 111.646 38.7731 111.343Z" fill="white"/>
<path fill-rule="evenodd" clip-rule="evenodd" d="M38.7731 111.343V115.054C38.7731 115.358 38.6246 115.661 38.3282 115.838L35.4365 117.576V117.573L32.2925 119.46C32.2078 119.511 32.0999 119.45 32.0999 119.351V115.939C32.0999 115.895 32.123 115.853 32.1615 115.83L35.4365 113.864L36.5443 113.2L38.3282 112.127C38.6246 111.95 38.7731 111.646 38.7731 111.343Z" stroke="#FFD300"/>
<path fill-rule="evenodd" clip-rule="evenodd" d="M38.7731 101.258C38.7731 101.56 38.6246 101.863 38.3282 102.042L36.5443 103.113L35.4365 102.446L32.1615 100.481C32.123 100.458 32.0999 100.416 32.0999 100.371V96.9578C32.0999 96.8584 32.2078 96.7974 32.2925 96.8486L35.4365 98.7374L38.3282 100.473C38.6246 100.652 38.7731 100.955 38.7731 101.258Z" fill="white"/>
<path fill-rule="evenodd" clip-rule="evenodd" d="M38.7731 101.258C38.7731 101.56 38.6246 101.863 38.3282 102.042L36.5443 103.113L35.4365 102.446L32.1615 100.481C32.123 100.458 32.0999 100.416 32.0999 100.371V96.9578C32.0999 96.8584 32.2078 96.7974 32.2925 96.8486L35.4365 98.7374L38.3282 100.473C38.6246 100.652 38.7731 100.955 38.7731 101.258Z" stroke="#FFD300"/>
<path fill-rule="evenodd" clip-rule="evenodd" d="M38.7731 101.258V104.97C38.7731 105.273 38.6246 105.573 38.3282 105.753L35.4365 107.488V107.493L34.3287 108.157L32.5427 109.23C32.2477 109.408 32.0999 109.711 32.0999 110.014V106.303C32.0999 106 32.2477 105.697 32.5427 105.519L35.4365 103.781V103.777L36.5443 103.113L38.3282 102.042C38.6246 101.862 38.7731 101.559 38.7731 101.258Z" fill="white"/>
<path fill-rule="evenodd" clip-rule="evenodd" d="M38.7731 101.258V104.97C38.7731 105.273 38.6246 105.573 38.3282 105.753L35.4365 107.488V107.493L34.3287 108.157L32.5427 109.23C32.2477 109.408 32.0999 109.711 32.0999 110.014V106.303C32.0999 106 32.2477 105.697 32.5427 105.519L35.4365 103.781V103.777L36.5443 103.113L38.3282 102.042C38.6246 101.862 38.7731 101.559 38.7731 101.258Z" stroke="#FFD300"/>
<path fill-rule="evenodd" clip-rule="evenodd" d="M38.7731 111.343C38.7731 111.646 38.6246 111.949 38.3282 112.127L36.5443 113.2L35.4365 112.533L32.5427 110.798C32.2477 110.618 32.0999 110.317 32.0999 110.014C32.0999 109.711 32.2477 109.408 32.5427 109.23L34.3287 108.158L35.4365 108.822L38.3282 110.56C38.6246 110.737 38.7731 111.04 38.7731 111.343Z" fill="white"/>
<path fill-rule="evenodd" clip-rule="evenodd" d="M38.7731 111.343C38.7731 111.646 38.6246 111.949 38.3282 112.127L36.5443 113.2L35.4365 112.533L32.5427 110.798C32.2477 110.618 32.0999 110.317 32.0999 110.014C32.0999 109.711 32.2477 109.408 32.5427 109.23L34.3287 108.158L35.4365 108.822L38.3282 110.56C38.6246 110.737 38.7731 111.04 38.7731 111.343Z" stroke="#FFD300"/>
<path fill-rule="evenodd" clip-rule="evenodd" d="M47.1586 106.301C47.1586 106.604 47.0101 106.907 46.7158 107.084L44.9298 108.155L43.822 107.491V107.488L40.547 105.523C40.5085 105.5 40.4854 105.459 40.4854 105.414V102.002C40.4854 101.903 40.5933 101.842 40.678 101.893L43.822 103.78L46.7158 105.517C47.0101 105.695 47.1586 105.998 47.1586 106.301Z" fill="white"/>
<path fill-rule="evenodd" clip-rule="evenodd" d="M47.1586 106.301C47.1586 106.604 47.0101 106.907 46.7158 107.084L44.9298 108.155L43.822 107.491V107.488L40.547 105.523C40.5085 105.5 40.4854 105.459 40.4854 105.414V102.002C40.4854 101.903 40.5933 101.842 40.678 101.893L43.822 103.78L46.7158 105.517C47.0101 105.695 47.1586 105.998 47.1586 106.301Z" stroke="#FFD300"/>
<path fill-rule="evenodd" clip-rule="evenodd" d="M47.1586 106.301V110.012C47.1586 110.315 47.0101 110.618 46.7158 110.795L43.822 112.533V112.531L40.678 114.418C40.5933 114.469 40.4854 114.407 40.4854 114.309V110.896C40.4854 110.852 40.5085 110.811 40.547 110.788L43.822 108.822L44.9298 108.155L46.7158 107.084C47.0101 106.907 47.1586 106.604 47.1586 106.301Z" fill="white"/>
<path fill-rule="evenodd" clip-rule="evenodd" d="M47.1586 106.301V110.012C47.1586 110.315 47.0101 110.618 46.7158 110.795L43.822 112.533V112.531L40.678 114.418C40.5933 114.469 40.4854 114.407 40.4854 114.309V110.896C40.4854 110.852 40.5085 110.811 40.547 110.788L43.822 108.822L44.9298 108.155L46.7158 107.084C47.0101 106.907 47.1586 106.604 47.1586 106.301Z" stroke="#FFD300"/>
<path fill-rule="evenodd" clip-rule="evenodd" d="M88.2475 103.484C88.2475 102.194 89.2936 101.149 90.5842 101.149V96.4788C89.2936 96.4788 88.2475 95.4336 88.2475 94.144C88.2475 92.8544 89.2936 91.8092 90.5842 91.8092V89.4736H87.9455C87.9455 90.7632 86.8986 91.8092 85.608 91.8092C84.3173 91.8092 83.2712 90.7632 83.2712 89.4736H77.993C77.993 90.7632 76.9469 91.8092 75.6562 91.8092C74.3656 91.8092 73.3188 90.7632 73.3188 89.4736H68.0405C68.0405 90.7632 66.9944 91.8092 65.7038 91.8092C64.4131 91.8092 63.367 90.7632 63.367 89.4736H60.7275V91.8092C62.0182 91.8092 63.0643 92.8544 63.0643 94.144C63.0643 95.4336 62.0182 96.4788 60.7275 96.4788V101.149C62.0182 101.149 63.0643 102.194 63.0643 103.484C63.0643 104.774 62.0182 105.819 60.7275 105.819V110.489C62.0182 110.489 63.0643 111.534 63.0643 112.824C63.0643 114.114 62.0182 115.159 60.7275 115.159V119.829C62.0182 119.829 63.0643 120.874 63.0643 122.164C63.0643 123.454 62.0182 124.499 60.7275 124.499V126.834H63.367C63.367 125.545 64.4131 124.499 65.7038 124.499C66.9944 124.499 68.0405 125.545 68.0405 126.834H73.3188C73.3188 125.545 74.3656 124.499 75.6562 124.499C76.9469 124.499 77.993 125.545 77.993 126.834H83.2712C83.2712 125.545 84.3173 124.499 85.608 124.499C86.8986 124.499 87.9455 125.545 87.9455 126.834H90.5842V124.499C89.2936 124.499 88.2475 123.454 88.2475 122.164C88.2475 120.874 89.2936 119.829 90.5842 119.829V115.159C89.2936 115.159 88.2475 114.114 88.2475 112.824C88.2475 111.534 89.2936 110.489 90.5842 110.489V105.819C89.2936 105.819 88.2475 104.774 88.2475 103.484Z" fill="#FF6587"/>
<path fill-rule="evenodd" clip-rule="evenodd" d="M88.2475 103.484C88.2475 102.194 89.2936 101.149 90.5842 101.149V96.4788C89.2936 96.4788 88.2475 95.4336 88.2475 94.144C88.2475 92.8544 89.2936 91.8092 90.5842 91.8092V89.4736H87.9455C87.9455 90.7632 86.8986 91.8092 85.608 91.8092C84.3173 91.8092 83.2712 90.7632 83.2712 89.4736H77.993C77.993 90.7632 76.9469 91.8092 75.6562 91.8092C74.3656 91.8092 73.3188 90.7632 73.3188 89.4736H68.0405C68.0405 90.7632 66.9944 91.8092 65.7038 91.8092C64.4131 91.8092 63.367 90.7632 63.367 89.4736H60.7275V91.8092C62.0182 91.8092 63.0643 92.8544 63.0643 94.144C63.0643 95.4336 62.0182 96.4788 60.7275 96.4788V101.149C62.0182 101.149 63.0643 102.194 63.0643 103.484C63.0643 104.774 62.0182 105.819 60.7275 105.819V110.489C62.0182 110.489 63.0643 111.534 63.0643 112.824C63.0643 114.114 62.0182 115.159 60.7275 115.159V119.829C62.0182 119.829 63.0643 120.874 63.0643 122.164C63.0643 123.454 62.0182 124.499 60.7275 124.499V126.834H63.367C63.367 125.545 64.4131 124.499 65.7038 124.499C66.9944 124.499 68.0405 125.545 68.0405 126.834H73.3188C73.3188 125.545 74.3656 124.499 75.6562 124.499C76.9469 124.499 77.993 125.545 77.993 126.834H83.2712C83.2712 125.545 84.3173 124.499 85.608 124.499C86.8986 124.499 87.9455 125.545 87.9455 126.834H90.5842V124.499C89.2936 124.499 88.2475 123.454 88.2475 122.164C88.2475 120.874 89.2936 119.829 90.5842 119.829V115.159C89.2936 115.159 88.2475 114.114 88.2475 112.824C88.2475 111.534 89.2936 110.489 90.5842 110.489V105.819C89.2936 105.819 88.2475 104.774 88.2475 103.484Z" stroke="white"/>
<path fill-rule="evenodd" clip-rule="evenodd" d="M74.8 111.343V115.054C74.8 115.358 74.6514 115.661 74.3551 115.838L71.4633 117.576V117.573L68.3194 119.46C68.2346 119.511 68.1267 119.45 68.1267 119.351V115.939C68.1267 115.895 68.1498 115.853 68.1884 115.83L71.4633 113.864L72.5711 113.2L74.3551 112.127C74.6514 111.95 74.8 111.646 74.8 111.343Z" fill="white"/>
<path fill-rule="evenodd" clip-rule="evenodd" d="M74.8 111.343V115.054C74.8 115.358 74.6514 115.661 74.3551 115.838L71.4633 117.576V117.573L68.3194 119.46C68.2346 119.511 68.1267 119.45 68.1267 119.351V115.939C68.1267 115.895 68.1498 115.853 68.1884 115.83L71.4633 113.864L72.5711 113.2L74.3551 112.127C74.6514 111.95 74.8 111.646 74.8 111.343Z" stroke="#FF6587"/>
<path fill-rule="evenodd" clip-rule="evenodd" d="M74.8 101.258C74.8 101.56 74.6514 101.863 74.3551 102.042L72.5711 103.113L71.4633 102.446L68.1884 100.481C68.1498 100.458 68.1267 100.416 68.1267 100.371V96.9578C68.1267 96.8584 68.2346 96.7974 68.3194 96.8486L71.4633 98.7374L74.3551 100.473C74.6514 100.652 74.8 100.955 74.8 101.258Z" fill="white"/>
<path fill-rule="evenodd" clip-rule="evenodd" d="M74.8 101.258C74.8 101.56 74.6514 101.863 74.3551 102.042L72.5711 103.113L71.4633 102.446L68.1884 100.481C68.1498 100.458 68.1267 100.416 68.1267 100.371V96.9578C68.1267 96.8584 68.2346 96.7974 68.3194 96.8486L71.4633 98.7374L74.3551 100.473C74.6514 100.652 74.8 100.955 74.8 101.258Z" stroke="#FF6587"/>
<path fill-rule="evenodd" clip-rule="evenodd" d="M74.8 101.258V104.97C74.8 105.273 74.6514 105.573 74.3551 105.753L71.4633 107.488V107.493L70.3556 108.157L68.5695 109.23C68.2746 109.408 68.1267 109.711 68.1267 110.014V106.303C68.1267 106 68.2746 105.697 68.5695 105.519L71.4633 103.781V103.777L72.5711 103.113L74.3551 102.042C74.6514 101.862 74.8 101.559 74.8 101.258Z" fill="white"/>
<path fill-rule="evenodd" clip-rule="evenodd" d="M74.8 101.258V104.97C74.8 105.273 74.6514 105.573 74.3551 105.753L71.4633 107.488V107.493L70.3556 108.157L68.5695 109.23C68.2746 109.408 68.1267 109.711 68.1267 110.014V106.303C68.1267 106 68.2746 105.697 68.5695 105.519L71.4633 103.781V103.777L72.5711 103.113L74.3551 102.042C74.6514 101.862 74.8 101.559 74.8 101.258Z" stroke="#FF6587"/>
<path fill-rule="evenodd" clip-rule="evenodd" d="M74.8 111.343C74.8 111.646 74.6514 111.949 74.3551 112.127L72.5711 113.2L71.4633 112.533L68.5695 110.798C68.2746 110.618 68.1267 110.317 68.1267 110.014C68.1267 109.711 68.2746 109.408 68.5695 109.23L70.3556 108.158L71.4633 108.822L74.3551 110.56C74.6514 110.737 74.8 111.04 74.8 111.343Z" fill="white"/>
<path fill-rule="evenodd" clip-rule="evenodd" d="M74.8 111.343C74.8 111.646 74.6514 111.949 74.3551 112.127L72.5711 113.2L71.4633 112.533L68.5695 110.798C68.2746 110.618 68.1267 110.317 68.1267 110.014C68.1267 109.711 68.2746 109.408 68.5695 109.23L70.3556 108.158L71.4633 108.822L74.3551 110.56C74.6514 110.737 74.8 111.04 74.8 111.343Z" stroke="#FF6587"/>
<path fill-rule="evenodd" clip-rule="evenodd" d="M83.1855 106.301C83.1855 106.604 83.0369 106.907 82.7427 107.084L80.9566 108.155L79.8488 107.491V107.488L76.5739 105.523C76.5353 105.5 76.5122 105.459 76.5122 105.414V102.002C76.5122 101.903 76.6201 101.842 76.7049 101.893L79.8488 103.78L82.7427 105.517C83.0369 105.695 83.1855 105.998 83.1855 106.301Z" fill="white"/>
<path fill-rule="evenodd" clip-rule="evenodd" d="M83.1855 106.301C83.1855 106.604 83.0369 106.907 82.7427 107.084L80.9566 108.155L79.8488 107.491V107.488L76.5739 105.523C76.5353 105.5 76.5122 105.459 76.5122 105.414V102.002C76.5122 101.903 76.6201 101.842 76.7049 101.893L79.8488 103.78L82.7427 105.517C83.0369 105.695 83.1855 105.998 83.1855 106.301Z" stroke="#FF6587"/>
<path fill-rule="evenodd" clip-rule="evenodd" d="M83.1855 106.301V110.012C83.1855 110.315 83.0369 110.618 82.7427 110.795L79.8488 112.533V112.531L76.7049 114.418C76.6201 114.469 76.5122 114.407 76.5122 114.309V110.896C76.5122 110.852 76.5353 110.811 76.5739 110.788L79.8488 108.822L80.9566 108.155L82.7427 107.084C83.0369 106.907 83.1855 106.604 83.1855 106.301Z" fill="white"/>
<path fill-rule="evenodd" clip-rule="evenodd" d="M83.1855 106.301V110.012C83.1855 110.315 83.0369 110.618 82.7427 110.795L79.8488 112.533V112.531L76.7049 114.418C76.6201 114.469 76.5122 114.407 76.5122 114.309V110.896C76.5122 110.852 76.5353 110.811 76.5739 110.788L79.8488 108.822L80.9566 108.155L82.7427 107.084C83.0369 106.907 83.1855 106.604 83.1855 106.301Z" stroke="#FF6587"/>
<path fill-rule="evenodd" clip-rule="evenodd" d="M124.274 103.484C124.274 102.194 125.32 101.149 126.611 101.149V96.4788C125.32 96.4788 124.274 95.4336 124.274 94.144C124.274 92.8544 125.32 91.8092 126.611 91.8092V89.4736H123.972C123.972 90.7632 122.926 91.8092 121.635 91.8092C120.344 91.8092 119.298 90.7632 119.298 89.4736H114.02C114.02 90.7632 112.974 91.8092 111.683 91.8092C110.392 91.8092 109.346 90.7632 109.346 89.4736H104.067C104.067 90.7632 103.021 91.8092 101.731 91.8092C100.44 91.8092 99.3939 90.7632 99.3939 89.4736H96.7544V91.8092C98.045 91.8092 99.0912 92.8544 99.0912 94.144C99.0912 95.4336 98.045 96.4788 96.7544 96.4788V101.149C98.045 101.149 99.0912 102.194 99.0912 103.484C99.0912 104.774 98.045 105.819 96.7544 105.819V110.489C98.045 110.489 99.0912 111.534 99.0912 112.824C99.0912 114.114 98.045 115.159 96.7544 115.159V119.829C98.045 119.829 99.0912 120.874 99.0912 122.164C99.0912 123.454 98.045 124.499 96.7544 124.499V126.834H99.3939C99.3939 125.545 100.44 124.499 101.731 124.499C103.021 124.499 104.067 125.545 104.067 126.834H109.346C109.346 125.545 110.392 124.499 111.683 124.499C112.974 124.499 114.02 125.545 114.02 126.834H119.298C119.298 125.545 120.344 124.499 121.635 124.499C122.926 124.499 123.972 125.545 123.972 126.834H126.611V124.499C125.32 124.499 124.274 123.454 124.274 122.164C124.274 120.874 125.32 119.829 126.611 119.829V115.159C125.32 115.159 124.274 114.114 124.274 112.824C124.274 111.534 125.32 110.489 126.611 110.489V105.819C125.32 105.819 124.274 104.774 124.274 103.484Z" fill="white"/>
<path fill-rule="evenodd" clip-rule="evenodd" d="M124.274 103.484C124.274 102.194 125.32 101.149 126.611 101.149V96.4788C125.32 96.4788 124.274 95.4336 124.274 94.144C124.274 92.8544 125.32 91.8092 126.611 91.8092V89.4736H123.972C123.972 90.7632 122.926 91.8092 121.635 91.8092C120.344 91.8092 119.298 90.7632 119.298 89.4736H114.02C114.02 90.7632 112.974 91.8092 111.683 91.8092C110.392 91.8092 109.346 90.7632 109.346 89.4736H104.067C104.067 90.7632 103.021 91.8092 101.731 91.8092C100.44 91.8092 99.3939 90.7632 99.3939 89.4736H96.7544V91.8092C98.045 91.8092 99.0912 92.8544 99.0912 94.144C99.0912 95.4336 98.045 96.4788 96.7544 96.4788V101.149C98.045 101.149 99.0912 102.194 99.0912 103.484C99.0912 104.774 98.045 105.819 96.7544 105.819V110.489C98.045 110.489 99.0912 111.534 99.0912 112.824C99.0912 114.114 98.045 115.159 96.7544 115.159V119.829C98.045 119.829 99.0912 120.874 99.0912 122.164C99.0912 123.454 98.045 124.499 96.7544 124.499V126.834H99.3939C99.3939 125.545 100.44 124.499 101.731 124.499C103.021 124.499 104.067 125.545 104.067 126.834H109.346C109.346 125.545 110.392 124.499 111.683 124.499C112.974 124.499 114.02 125.545 114.02 126.834H119.298C119.298 125.545 120.344 124.499 121.635 124.499C122.926 124.499 123.972 125.545 123.972 126.834H126.611V124.499C125.32 124.499 124.274 123.454 124.274 122.164C124.274 120.874 125.32 119.829 126.611 119.829V115.159C125.32 115.159 124.274 114.114 124.274 112.824C124.274 111.534 125.32 110.489 126.611 110.489V105.819C125.32 105.819 124.274 104.774 124.274 103.484Z" stroke="white"/>
<path fill-rule="evenodd" clip-rule="evenodd" d="M110.827 111.343V115.054C110.827 115.358 110.678 115.661 110.382 115.838L107.49 117.576V117.573L104.346 119.46C104.261 119.511 104.154 119.45 104.154 119.351V115.939C104.154 115.895 104.177 115.853 104.215 115.83L107.49 113.864L108.598 113.2L110.382 112.127C110.678 111.95 110.827 111.646 110.827 111.343Z" fill="#02004E"/>
<path fill-rule="evenodd" clip-rule="evenodd" d="M110.827 111.343V115.054C110.827 115.358 110.678 115.661 110.382 115.838L107.49 117.576V117.573L104.346 119.46C104.261 119.511 104.154 119.45 104.154 119.351V115.939C104.154 115.895 104.177 115.853 104.215 115.83L107.49 113.864L108.598 113.2L110.382 112.127C110.678 111.95 110.827 111.646 110.827 111.343Z" stroke="white"/>
<path fill-rule="evenodd" clip-rule="evenodd" d="M110.827 101.258C110.827 101.56 110.678 101.863 110.382 102.042L108.598 103.113L107.49 102.446L104.215 100.481C104.177 100.458 104.154 100.416 104.154 100.371V96.9578C104.154 96.8584 104.261 96.7974 104.346 96.8486L107.49 98.7374L110.382 100.473C110.678 100.652 110.827 100.955 110.827 101.258Z" fill="#02004E"/>
<path fill-rule="evenodd" clip-rule="evenodd" d="M110.827 101.258C110.827 101.56 110.678 101.863 110.382 102.042L108.598 103.113L107.49 102.446L104.215 100.481C104.177 100.458 104.154 100.416 104.154 100.371V96.9578C104.154 96.8584 104.261 96.7974 104.346 96.8486L107.49 98.7374L110.382 100.473C110.678 100.652 110.827 100.955 110.827 101.258Z" stroke="white"/>
<path fill-rule="evenodd" clip-rule="evenodd" d="M110.827 101.258V104.97C110.827 105.273 110.678 105.573 110.382 105.753L107.49 107.488V107.493L106.382 108.157L104.596 109.23C104.301 109.408 104.154 109.711 104.154 110.014V106.303C104.154 106 104.301 105.697 104.596 105.519L107.49 103.781V103.777L108.598 103.113L110.382 102.042C110.678 101.862 110.827 101.559 110.827 101.258Z" fill="#02004E"/>
<path fill-rule="evenodd" clip-rule="evenodd" d="M110.827 101.258V104.97C110.827 105.273 110.678 105.573 110.382 105.753L107.49 107.488V107.493L106.382 108.157L104.596 109.23C104.301 109.408 104.154 109.711 104.154 110.014V106.303C104.154 106 104.301 105.697 104.596 105.519L107.49 103.781V103.777L108.598 103.113L110.382 102.042C110.678 101.862 110.827 101.559 110.827 101.258Z" stroke="white"/>
<path fill-rule="evenodd" clip-rule="evenodd" d="M110.827 111.343C110.827 111.646 110.678 111.949 110.382 112.127L108.598 113.2L107.49 112.533L104.596 110.798C104.301 110.618 104.154 110.317 104.154 110.014C104.154 109.711 104.301 109.408 104.596 109.23L106.382 108.158L107.49 108.822L110.382 110.56C110.678 110.737 110.827 111.04 110.827 111.343Z" fill="#02004E"/>
<path fill-rule="evenodd" clip-rule="evenodd" d="M110.827 111.343C110.827 111.646 110.678 111.949 110.382 112.127L108.598 113.2L107.49 112.533L104.596 110.798C104.301 110.618 104.154 110.317 104.154 110.014C104.154 109.711 104.301 109.408 104.596 109.23L106.382 108.158L107.49 108.822L110.382 110.56C110.678 110.737 110.827 111.04 110.827 111.343Z" stroke="white"/>
<path fill-rule="evenodd" clip-rule="evenodd" d="M119.212 106.301C119.212 106.604 119.064 106.907 118.77 107.084L116.983 108.155L115.876 107.491V107.488L112.601 105.523C112.562 105.5 112.539 105.459 112.539 105.414V102.002C112.539 101.903 112.647 101.842 112.732 101.893L115.876 103.78L118.77 105.517C119.064 105.695 119.212 105.998 119.212 106.301Z" fill="#02004E"/>
<path fill-rule="evenodd" clip-rule="evenodd" d="M119.212 106.301C119.212 106.604 119.064 106.907 118.77 107.084L116.983 108.155L115.876 107.491V107.488L112.601 105.523C112.562 105.5 112.539 105.459 112.539 105.414V102.002C112.539 101.903 112.647 101.842 112.732 101.893L115.876 103.78L118.77 105.517C119.064 105.695 119.212 105.998 119.212 106.301Z" stroke="white"/>
<path fill-rule="evenodd" clip-rule="evenodd" d="M119.212 106.301V110.012C119.212 110.315 119.064 110.618 118.77 110.795L115.876 112.533V112.531L112.732 114.418C112.647 114.469 112.539 114.407 112.539 114.309V110.896C112.539 110.852 112.562 110.811 112.601 110.788L115.876 108.822L116.983 108.155L118.77 107.084C119.064 106.907 119.212 106.604 119.212 106.301Z" fill="#02004E"/>
<path fill-rule="evenodd" clip-rule="evenodd" d="M119.212 106.301V110.012C119.212 110.315 119.064 110.618 118.77 110.795L115.876 112.533V112.531L112.732 114.418C112.647 114.469 112.539 114.407 112.539 114.309V110.896C112.539 110.852 112.562 110.811 112.601 110.788L115.876 108.822L116.983 108.155L118.77 107.084C119.064 106.907 119.212 106.604 119.212 106.301Z" stroke="white"/>
</g>
<defs>
<clipPath id="clip0_428_6663">
<rect width="103" height="81.2115" fill="white" transform="translate(24 46)"/>
</clipPath>
</defs>
</svg>
