<svg width="64" height="48" viewBox="0 0 64 48" fill="none" xmlns="http://www.w3.org/2000/svg">
<path d="M0 16.8892H64V31.1114H0V16.8892Z" fill="#EEEEEE"/>
<path d="M56.8889 0.88916H7.11111C5.22513 0.88916 3.41639 1.63836 2.0828 2.97196C0.749204 4.30555 0 6.11429 0 8.00027L0 16.8892H64V8.00027C64 6.11429 63.2508 4.30555 61.9172 2.97196C60.5836 1.63836 58.7749 0.88916 56.8889 0.88916Z" fill="#AE1F28"/>
<path d="M7.11111 47.1108H56.8889C58.7749 47.1108 60.5836 46.3616 61.9172 45.028C63.2508 43.6945 64 41.8857 64 39.9997V31.1108H0V39.9997C0 41.8857 0.749204 43.6945 2.0828 45.028C3.41639 46.3616 5.22513 47.1108 7.11111 47.1108Z" fill="#20478B"/>
</svg>
