<svg width="64" height="48" viewBox="0 0 64 48" fill="none" xmlns="http://www.w3.org/2000/svg">
<mask id="mask0_480_3980" style="mask-type:luminance" maskUnits="userSpaceOnUse" x="0" y="0" width="64" height="48">
<path d="M59.4286 0.890625H4.57143C2.0467 0.890625 0 2.95991 0 5.51249V42.4874C0 45.04 2.0467 47.1093 4.57143 47.1093H59.4286C61.9533 47.1093 64 45.04 64 42.4874V5.51249C64 2.95991 61.9533 0.890625 59.4286 0.890625Z" fill="white"/>
</mask>
<g mask="url(#mask0_480_3980)">
<path d="M59.4286 0.890625H4.57143C2.0467 0.890625 0 2.95991 0 5.51249V42.4874C0 45.04 2.0467 47.1093 4.57143 47.1093H59.4286C61.9533 47.1093 64 45.04 64 42.4874V5.51249C64 2.95991 61.9533 0.890625 59.4286 0.890625Z" fill="white"/>
<mask id="mask1_480_3980" style="mask-type:alpha" maskUnits="userSpaceOnUse" x="0" y="0" width="64" height="48">
<path d="M59.4286 0.890625H4.57143C2.0467 0.890625 0 2.95991 0 5.51249V42.4874C0 45.04 2.0467 47.1093 4.57143 47.1093H59.4286C61.9533 47.1093 64 45.04 64 42.4874V5.51249C64 2.95991 61.9533 0.890625 59.4286 0.890625Z" fill="white"/>
</mask>
<g mask="url(#mask1_480_3980)">
<path fill-rule="evenodd" clip-rule="evenodd" d="M64 0.890625H0V3.97186H64V0.890625ZM64 7.05312H0V10.1344H64V7.05312ZM0 13.2156H64V16.2969H0V13.2156ZM64 19.3781H0V22.4593H64V19.3781ZM0 25.5407H64V28.6218H0V25.5407ZM64 31.703H0V34.7844H64V31.703ZM0 37.8656H64V40.9467H0V37.8656ZM64 44.0281H0V47.1093H64V44.0281Z" fill="#D02F44"/>
<path d="M27.4286 0.890625H0V22.4593H27.4286V0.890625Z" fill="#46467F"/>
<g filter="url(#filter0_d_480_3980)">
<path fill-rule="evenodd" clip-rule="evenodd" d="M6.095 5.51229C6.095 6.36315 5.41276 7.05292 4.57118 7.05292C3.7296 7.05292 3.04736 6.36315 3.04736 5.51229C3.04736 4.66145 3.7296 3.97168 4.57118 3.97168C5.41276 3.97168 6.095 4.66145 6.095 5.51229ZM12.1902 5.51229C12.1902 6.36315 11.508 7.05292 10.6664 7.05292C9.82485 7.05292 9.14261 6.36315 9.14261 5.51229C9.14261 4.66145 9.82485 3.97168 10.6664 3.97168C11.508 3.97168 12.1902 4.66145 12.1902 5.51229ZM16.7616 7.05292C17.6032 7.05292 18.2855 6.36315 18.2855 5.51229C18.2855 4.66145 17.6032 3.97168 16.7616 3.97168C15.9201 3.97168 15.2379 4.66145 15.2379 5.51229C15.2379 6.36315 15.9201 7.05292 16.7616 7.05292ZM24.3806 5.51229C24.3806 6.36315 23.6985 7.05292 22.8569 7.05292C22.0153 7.05292 21.3331 6.36315 21.3331 5.51229C21.3331 4.66145 22.0153 3.97168 22.8569 3.97168C23.6985 3.97168 24.3806 4.66145 24.3806 5.51229ZM7.61879 10.1342C8.46037 10.1342 9.14261 9.44441 9.14261 8.59355C9.14261 7.74268 8.46037 7.05292 7.61879 7.05292C6.77721 7.05292 6.095 7.74268 6.095 8.59355C6.095 9.44441 6.77721 10.1342 7.61879 10.1342ZM15.2379 8.59355C15.2379 9.44441 14.5556 10.1342 13.714 10.1342C12.8725 10.1342 12.1902 9.44441 12.1902 8.59355C12.1902 7.74268 12.8725 7.05292 13.714 7.05292C14.5556 7.05292 15.2379 7.74268 15.2379 8.59355ZM19.8093 10.1342C20.6509 10.1342 21.3331 9.44441 21.3331 8.59355C21.3331 7.74268 20.6509 7.05292 19.8093 7.05292C18.9677 7.05292 18.2855 7.74268 18.2855 8.59355C18.2855 9.44441 18.9677 10.1342 19.8093 10.1342ZM24.3806 11.6748C24.3806 12.5256 23.6985 13.2154 22.8569 13.2154C22.0153 13.2154 21.3331 12.5256 21.3331 11.6748C21.3331 10.8239 22.0153 10.1342 22.8569 10.1342C23.6985 10.1342 24.3806 10.8239 24.3806 11.6748ZM16.7616 13.2154C17.6032 13.2154 18.2855 12.5256 18.2855 11.6748C18.2855 10.8239 17.6032 10.1342 16.7616 10.1342C15.9201 10.1342 15.2379 10.8239 15.2379 11.6748C15.2379 12.5256 15.9201 13.2154 16.7616 13.2154ZM12.1902 11.6748C12.1902 12.5256 11.508 13.2154 10.6664 13.2154C9.82485 13.2154 9.14261 12.5256 9.14261 11.6748C9.14261 10.8239 9.82485 10.1342 10.6664 10.1342C11.508 10.1342 12.1902 10.8239 12.1902 11.6748ZM4.57118 13.2154C5.41276 13.2154 6.095 12.5256 6.095 11.6748C6.095 10.8239 5.41276 10.1342 4.57118 10.1342C3.7296 10.1342 3.04736 10.8239 3.04736 11.6748C3.04736 12.5256 3.7296 13.2154 4.57118 13.2154ZM9.14261 14.756C9.14261 15.6069 8.46037 16.2966 7.61879 16.2966C6.77721 16.2966 6.095 15.6069 6.095 14.756C6.095 13.9052 6.77721 13.2154 7.61879 13.2154C8.46037 13.2154 9.14261 13.9052 9.14261 14.756ZM13.714 16.2966C14.5556 16.2966 15.2379 15.6069 15.2379 14.756C15.2379 13.9052 14.5556 13.2154 13.714 13.2154C12.8725 13.2154 12.1902 13.9052 12.1902 14.756C12.1902 15.6069 12.8725 16.2966 13.714 16.2966ZM21.3331 14.756C21.3331 15.6069 20.6509 16.2966 19.8093 16.2966C18.9677 16.2966 18.2855 15.6069 18.2855 14.756C18.2855 13.9052 18.9677 13.2154 19.8093 13.2154C20.6509 13.2154 21.3331 13.9052 21.3331 14.756ZM22.8569 19.3779C23.6985 19.3779 24.3806 18.6881 24.3806 17.8373C24.3806 16.9864 23.6985 16.2966 22.8569 16.2966C22.0153 16.2966 21.3331 16.9864 21.3331 17.8373C21.3331 18.6881 22.0153 19.3779 22.8569 19.3779ZM18.2855 17.8373C18.2855 18.6881 17.6032 19.3779 16.7616 19.3779C15.9201 19.3779 15.2379 18.6881 15.2379 17.8373C15.2379 16.9864 15.9201 16.2966 16.7616 16.2966C17.6032 16.2966 18.2855 16.9864 18.2855 17.8373ZM10.6664 19.3779C11.508 19.3779 12.1902 18.6881 12.1902 17.8373C12.1902 16.9864 11.508 16.2966 10.6664 16.2966C9.82485 16.2966 9.14261 16.9864 9.14261 17.8373C9.14261 18.6881 9.82485 19.3779 10.6664 19.3779ZM6.095 17.8373C6.095 18.6881 5.41276 19.3779 4.57118 19.3779C3.7296 19.3779 3.04736 18.6881 3.04736 17.8373C3.04736 16.9864 3.7296 16.2966 4.57118 16.2966C5.41276 16.2966 6.095 16.9864 6.095 17.8373Z" fill="url(#paint0_linear_480_3980)"/>
</g>
</g>
</g>
<defs>
<filter id="filter0_d_480_3980" x="3.04736" y="3.97168" width="21.333" height="17.5491" filterUnits="userSpaceOnUse" color-interpolation-filters="sRGB">
<feFlood flood-opacity="0" result="BackgroundImageFix"/>
<feColorMatrix in="SourceAlpha" type="matrix" values="0 0 0 0 0 0 0 0 0 0 0 0 0 0 0 0 0 0 127 0" result="hardAlpha"/>
<feOffset dy="2.14286"/>
<feColorMatrix type="matrix" values="0 0 0 0 0 0 0 0 0 0 0 0 0 0 0 0 0 0 0.06 0"/>
<feBlend mode="normal" in2="BackgroundImageFix" result="effect1_dropShadow_480_3980"/>
<feBlend mode="normal" in="SourceGraphic" in2="effect1_dropShadow_480_3980" result="shape"/>
</filter>
<linearGradient id="paint0_linear_480_3980" x1="3.04736" y1="3.97168" x2="3.04736" y2="19.3779" gradientUnits="userSpaceOnUse">
<stop stop-color="white"/>
<stop offset="1" stop-color="#F0F0F0"/>
</linearGradient>
</defs>
</svg>
