<svg width="162" height="163" viewBox="0 0 162 163" fill="none" xmlns="http://www.w3.org/2000/svg">
<g clip-path="url(#clip0_661_2765)">
<path d="M106.906 30.7231V5.54644C106.906 4.20804 106.531 2.92446 105.863 1.97807C105.194 1.03168 104.288 0.5 103.343 0.5L92.6521 0.5C91.707 0.5 90.8006 1.03168 90.1323 1.97807C89.464 2.92446 89.0885 4.20804 89.0885 5.54644V61.0017H57.0166V161.93H153.232V96.3268L106.906 30.7231Z" fill="white"/>
<path d="M112.676 131.508H121.585V144.074H112.676V131.508ZM124.554 131.508H133.463V144.074H124.554V131.508ZM124.554 114.753H133.463V127.319H124.554V114.753ZM112.676 114.753H121.585V127.319H112.676V114.753Z" fill="#486AE9"/>
<path d="M112.676 114.753H121.585V118.942H112.676V114.753ZM124.554 114.753H133.463V118.942H124.554V114.753ZM112.676 131.508H121.585V135.697H112.676V131.508ZM124.554 131.508H133.463V135.697H124.554V131.508Z" fill="black"/>
<path d="M6.25049 34.1494H93.7554V161.986H6.25049V34.1494Z" fill="white"/>
<path d="M21.8765 117.904H40.6275V161.986H21.8765V117.904Z" fill="#02004E"/>
<path d="M59.3786 109.088H78.1296V139.945H59.3786V109.088ZM59.3786 42.9658H78.1296V73.8229H59.3786V42.9658ZM21.8765 42.9658H40.6275V73.8229H21.8765V42.9658Z" fill="#486AE9"/>
<path d="M59.3786 109.088H78.1296V113.496H59.3786V109.088ZM59.3786 42.9658H78.1296V47.374H59.3786V42.9658ZM21.8765 42.9658H40.6275V47.374H21.8765V42.9658Z" fill="black"/>
<path d="M6.25049 34.1494H93.7554V38.5576H6.25049V34.1494Z" fill="black"/>
<path d="M100.006 29.7416C100.006 30.9107 99.6763 32.0319 99.0902 32.8586C98.5041 33.6853 97.7092 34.1498 96.8803 34.1498H3.12517C2.29633 34.1498 1.50143 33.6853 0.915342 32.8586C0.329258 32.0319 0 30.9107 0 29.7416V25.3334C0 24.1643 0.329258 23.0431 0.915342 22.2164C1.50143 21.3897 2.29633 20.9253 3.12517 20.9253H96.8803C97.7092 20.9253 98.5041 21.3897 99.0902 22.2164C99.6763 23.0431 100.006 24.1643 100.006 25.3334V29.7416ZM100.006 95.8639C100.006 97.033 99.6763 98.1543 99.0902 98.9809C98.5041 99.8076 97.7092 100.272 96.8803 100.272H3.12517C2.29633 100.272 1.50143 99.8076 0.915342 98.9809C0.329258 98.1543 0 97.033 0 95.8639V91.4557C0 90.2866 0.329258 89.1654 0.915342 88.3387C1.50143 87.512 2.29633 87.0476 3.12517 87.0476H96.8803C97.7092 87.0476 98.5041 87.512 99.0902 88.3387C99.6763 89.1654 100.006 90.2866 100.006 91.4557V95.8639Z" fill="#FF6587"/>
<path d="M23.2669 161.986C24.3908 159.317 24.9895 156.274 25.0014 153.17C25.0014 148.493 23.6843 144.008 21.34 140.702C18.9957 137.395 15.8161 135.537 12.5007 135.537C9.1853 135.537 6.0057 137.395 3.66137 140.702C1.31703 144.008 0 148.493 0 153.17C0 156.397 0.659411 159.381 1.73447 161.986H23.2669ZM87.5048 135.537C85.1089 135.541 82.7644 136.518 80.7516 138.351C78.7387 140.184 77.1427 142.796 76.1542 145.874C74.8367 144.889 73.37 144.368 71.879 144.353C69.3924 144.353 67.0077 145.747 65.2495 148.227C63.4912 150.707 62.5034 154.071 62.5034 157.578C62.5034 159.134 62.7285 160.602 63.0785 161.986H98.2742C99.3957 159.316 99.9932 156.273 100.006 153.17C100.006 148.493 98.6885 144.008 96.3441 140.702C93.9998 137.395 90.8202 135.537 87.5048 135.537Z" fill="#3AAD73"/>
<path d="M76.1542 145.874C74.8367 144.889 73.37 144.368 71.8789 144.354C69.3924 144.354 67.0077 145.747 65.2494 148.227C63.4912 150.707 62.5034 154.071 62.5034 157.578C62.5034 159.134 62.7284 160.602 63.0785 161.986H76.7386C75.6147 159.317 75.016 156.274 75.0041 153.17C75.0041 150.56 75.4323 148.105 76.1542 145.874Z" fill="black"/>
<path d="M6.25049 100.272H93.7554V104.68H6.25049V100.272Z" fill="black"/>
<path fill-rule="evenodd" clip-rule="evenodd" d="M110.47 57.9458L135.415 93.2709V98.3173H110.47V57.9458Z" fill="#486AE9"/>
<path fill-rule="evenodd" clip-rule="evenodd" d="M135.415 98.3173L110.47 62.9922V57.9458L135.415 93.2709V98.3173Z" fill="black"/>
<path fill-rule="evenodd" clip-rule="evenodd" d="M105.436 15.1807L160.835 93.6326C161.166 94.1009 161.429 94.657 161.608 95.2692C161.787 95.8814 161.879 96.5377 161.879 97.2004C161.879 97.8632 161.787 98.5195 161.608 99.1317C161.429 99.7439 161.166 100.3 160.835 100.768L158.315 104.336C157.985 104.805 157.592 105.177 157.16 105.431C156.727 105.685 156.264 105.816 155.796 105.816C155.328 105.816 154.864 105.685 154.432 105.431C154 105.177 153.607 104.805 153.276 104.336L105.436 36.5877V15.1807Z" fill="#FF6587"/>
<path fill-rule="evenodd" clip-rule="evenodd" d="M106.906 46.337L153.232 111.941V101.848L106.906 36.2441V46.337Z" fill="black"/>
</g>
<defs>
<clipPath id="clip0_661_2765">
<rect width="162" height="162" fill="white" transform="translate(0 0.5)"/>
</clipPath>
</defs>
</svg>
