<svg width="162" height="163" viewBox="0 0 162 163" fill="none" xmlns="http://www.w3.org/2000/svg">
<g clip-path="url(#clip0_288_8191)">
<path d="M10.6484 15.9019H151.909V162.009H10.6484V15.9019Z" fill="white"/>
<path d="M35.875 111.627H66.1452V162.009H35.875V111.627Z" fill="#02004E"/>
<path d="M96.4153 101.551H126.686V136.818H96.4153V101.551ZM96.4153 25.978H126.686V61.2452H96.4153V25.978ZM35.875 25.978H66.1452V61.2452H35.875V25.978Z" fill="#486AE9"/>
<path d="M96.4153 101.551H126.686V106.589H96.4153V101.551ZM96.4153 25.978H126.686V31.0162H96.4153V25.978ZM35.875 25.978H66.1452V31.0162H35.875V25.978Z" fill="black"/>
<path d="M10.6484 15.9019H151.909V20.94H10.6484V15.9019Z" fill="black"/>
<path d="M161.999 10.8634C161.999 12.1997 161.468 13.4811 160.522 14.426C159.576 15.3708 158.292 15.9016 156.954 15.9016H5.60362C4.2656 15.9016 2.98237 15.3708 2.03625 14.426C1.09012 13.4811 0.558594 12.1997 0.558594 10.8634V5.82528C0.558594 4.48907 1.09012 3.2076 2.03625 2.26276C2.98237 1.31792 4.2656 0.787109 5.60362 0.787109L156.954 0.787109C158.292 0.787109 159.576 1.31792 160.522 2.26276C161.468 3.2076 161.999 4.48907 161.999 5.82528V10.8634ZM161.999 86.436C161.999 87.7722 161.468 89.0537 160.522 89.9985C159.576 90.9434 158.292 91.4742 156.954 91.4742H5.60362C4.2656 91.4742 2.98237 90.9434 2.03625 89.9985C1.09012 89.0537 0.558594 87.7722 0.558594 86.436V81.3978C0.558594 80.0616 1.09012 78.7801 2.03625 77.8353C2.98237 76.8905 4.2656 76.3597 5.60362 76.3597H156.954C158.292 76.3597 159.576 76.8905 160.522 77.8353C161.468 78.7801 161.999 80.0616 161.999 81.3978V86.436Z" fill="#FF6587"/>
<path d="M38.1188 162.009C39.9331 158.958 40.8997 155.48 40.9188 151.932C40.9188 146.587 38.7927 141.461 35.0082 137.682C31.2237 133.903 26.0908 131.78 20.7387 131.78C15.3866 131.78 10.2537 133.903 6.46921 137.682C2.68471 141.461 0.558594 146.587 0.558594 151.932C0.558594 155.62 1.62309 159.031 3.35858 162.009H38.1188ZM141.819 131.78C137.952 131.784 134.167 132.9 130.917 134.995C127.668 137.09 125.092 140.076 123.496 143.594C121.369 142.468 119.001 141.872 116.594 141.856C112.58 141.856 108.73 143.448 105.892 146.283C103.054 149.117 101.459 152.962 101.459 156.97C101.459 158.749 101.822 160.427 102.387 162.009H159.205C161.015 158.957 161.98 155.479 161.999 151.932C161.999 146.587 159.873 141.461 156.089 137.682C152.304 133.903 147.171 131.78 141.819 131.78Z" fill="#3AAD73"/>
<path d="M123.496 143.594C121.369 142.468 119.001 141.872 116.594 141.856C112.58 141.856 108.73 143.448 105.892 146.283C103.054 149.117 101.459 152.962 101.459 156.97C101.459 158.749 101.822 160.427 102.387 162.009H124.439C122.625 158.958 121.658 155.48 121.639 151.932C121.639 148.95 122.33 146.143 123.496 143.594Z" fill="black"/>
<path d="M10.6484 91.4744H151.909V96.5125H10.6484V91.4744Z" fill="black"/>
<path d="M27.6992 114.451V123H26.0117V116.396L23.9844 117.041V115.711L27.5176 114.451H27.6992Z" fill="black"/>
<path d="M88.2305 115.928L85.9102 123H84.041L87.2109 114.469H88.4004L88.2305 115.928ZM90.1582 123L87.832 115.928L87.6445 114.469H88.8457L92.0332 123H90.1582ZM90.0527 119.824V121.201H85.5469V119.824H90.0527Z" fill="black"/>
<path d="M88.1016 40.2559H85.9102L85.8984 39.0488H87.7383C88.0625 39.0488 88.3281 39.0078 88.5352 38.9258C88.7422 38.8398 88.8965 38.7168 88.998 38.5566C89.1035 38.3926 89.1562 38.1934 89.1562 37.959C89.1562 37.6934 89.1055 37.4785 89.0039 37.3145C88.9062 37.1504 88.752 37.0312 88.541 36.957C88.334 36.8828 88.0664 36.8457 87.7383 36.8457H86.5195V44H84.7617V35.4688H87.7383C88.2344 35.4688 88.6777 35.5156 89.0684 35.6094C89.4629 35.7031 89.7969 35.8457 90.0703 36.0371C90.3438 36.2285 90.5527 36.4707 90.6973 36.7637C90.8418 37.0527 90.9141 37.3965 90.9141 37.7949C90.9141 38.1465 90.834 38.4707 90.6738 38.7676C90.5176 39.0645 90.2695 39.3066 89.9297 39.4941C89.5938 39.6816 89.1543 39.7852 88.6113 39.8047L88.1016 40.2559ZM88.0254 44H85.4297L86.1152 42.6289H88.0254C88.334 42.6289 88.5859 42.5801 88.7812 42.4824C88.9766 42.3809 89.1211 42.2441 89.2148 42.0723C89.3086 41.9004 89.3555 41.7031 89.3555 41.4805C89.3555 41.2305 89.3125 41.0137 89.2266 40.8301C89.1445 40.6465 89.0117 40.5059 88.8281 40.4082C88.6445 40.3066 88.4023 40.2559 88.1016 40.2559H86.4082L86.4199 39.0488H88.5293L88.9336 39.5234C89.4531 39.5156 89.8711 39.6074 90.1875 39.7988C90.5078 39.9863 90.7402 40.2305 90.8848 40.5312C91.0332 40.832 91.1074 41.1543 91.1074 41.498C91.1074 42.0449 90.9883 42.5059 90.75 42.8809C90.5117 43.252 90.1621 43.5312 89.7012 43.7188C89.2441 43.9062 88.6855 44 88.0254 44Z" fill="black"/>
<path d="M24.707 41.1699H26.459C26.4238 41.7441 26.2656 42.2539 25.9844 42.6992C25.707 43.1445 25.3184 43.4922 24.8184 43.7422C24.3223 43.9922 23.7246 44.1172 23.0254 44.1172C22.4785 44.1172 21.9883 44.0234 21.5547 43.8359C21.1211 43.6445 20.75 43.3711 20.4414 43.0156C20.1367 42.6602 19.9043 42.2305 19.7441 41.7266C19.584 41.2227 19.5039 40.6582 19.5039 40.0332V39.4414C19.5039 38.8164 19.5859 38.252 19.75 37.748C19.918 37.2402 20.1562 36.8086 20.4648 36.4531C20.7773 36.0977 21.1504 35.8242 21.584 35.6328C22.0176 35.4414 22.502 35.3457 23.0371 35.3457C23.748 35.3457 24.3477 35.4746 24.8359 35.7324C25.3281 35.9902 25.709 36.3457 25.9785 36.7988C26.252 37.252 26.416 37.7676 26.4707 38.3457H24.7129C24.6934 38.002 24.625 37.7109 24.5078 37.4727C24.3906 37.2305 24.2129 37.0488 23.9746 36.9277C23.7402 36.8027 23.4277 36.7402 23.0371 36.7402C22.7441 36.7402 22.4883 36.7949 22.2695 36.9043C22.0508 37.0137 21.8672 37.1797 21.7188 37.4023C21.5703 37.625 21.459 37.9062 21.3848 38.2461C21.3145 38.582 21.2793 38.9766 21.2793 39.4297V40.0332C21.2793 40.4746 21.3125 40.8633 21.3789 41.1992C21.4453 41.5312 21.5469 41.8125 21.6836 42.043C21.8242 42.2695 22.0039 42.4414 22.2227 42.5586C22.4453 42.6719 22.7129 42.7285 23.0254 42.7285C23.3926 42.7285 23.6953 42.6699 23.9336 42.5527C24.1719 42.4355 24.3535 42.2617 24.4785 42.0312C24.6074 41.8008 24.6836 41.5137 24.707 41.1699Z" fill="black"/>
</g>
<defs>
<clipPath id="clip0_288_8191">
<rect width="162" height="162" fill="white" transform="translate(0 0.5)"/>
</clipPath>
</defs>
</svg>
