<svg width="162" height="163" viewBox="0 0 162 163" fill="none" xmlns="http://www.w3.org/2000/svg">
<g clip-path="url(#clip0_661_2755)">
<path d="M83.417 32.9028V7.646C83.417 6.30334 82.8836 5.01567 81.9342 4.06627C80.9848 3.11687 79.6972 2.5835 78.3545 2.5835H63.167C61.8243 2.5835 60.5367 3.11687 59.5873 4.06627C58.6379 5.01567 58.1045 6.30334 58.1045 7.646V63.2778H12.542V164.528H149.229V98.7153L83.417 32.9028Z" fill="white"/>
<path d="M95 119.03H121.533V163.077H95V119.03Z" fill="#02004E"/>
<path d="M81 162.5V5.5625C81 4.21984 80.4666 2.93217 79.5172 1.98277C78.5678 1.03337 77.2802 0.5 75.9375 0.5L60.75 0.5C59.4073 0.5 58.1197 1.03337 57.1703 1.98277C56.2209 2.93217 55.6875 4.21984 55.6875 5.5625V162.5H81Z" fill="black"/>
<path d="M131.625 96.6875L96.1875 61.25V101.75H131.625V96.6875ZM20.25 76.4375H45.5625V101.75H20.25V76.4375Z" fill="#486AE9"/>
<path d="M10.125 61.25H55.6875V66.3125H10.125V61.25ZM146.812 106.812L81 41V30.875L146.812 96.6875V106.812Z" fill="black"/>
<path d="M55.6875 43.9158H5.0625C3.71984 43.9158 2.43217 44.4492 1.48277 45.3986C0.533369 46.348 0 47.6356 0 48.9783L0 54.0408C0 55.3834 0.533369 56.6711 1.48277 57.6205C2.43217 58.5699 3.71984 59.1033 5.0625 59.1033H55.6875V43.9158ZM159.702 89.0986L81 10.397V31.8721L148.964 99.8362C149.434 100.307 149.992 100.68 150.606 100.935C151.22 101.189 151.878 101.32 152.543 101.32C153.208 101.32 153.866 101.189 154.481 100.935C155.095 100.68 155.653 100.307 156.122 99.8362L159.702 96.257C160.172 95.7872 160.545 95.2293 160.8 94.6152C161.055 94.001 161.186 93.3427 161.186 92.6778C161.186 92.0129 161.055 91.3546 160.8 90.7404C160.545 90.1263 160.172 89.5683 159.702 89.0986Z" fill="#FF6587"/>
<path d="M20.25 76.4375H45.5625V81.5H20.25V76.4375ZM96.1875 66.3125L131.625 101.75V96.6875L96.1875 61.25V66.3125Z" fill="black"/>
<path fill-rule="evenodd" clip-rule="evenodd" d="M40.5 152.375C40.4808 155.94 39.5109 159.435 37.6903 162.5H2.80969C1.06819 159.508 0 156.081 0 152.375C0 147.004 2.13348 141.854 5.93109 138.056C9.7287 134.258 14.8794 132.125 20.25 132.125C25.6206 132.125 30.7713 134.258 34.5689 138.056C38.3665 141.854 40.5 147.004 40.5 152.375Z" fill="#3AAD73"/>
</g>
<defs>
<clipPath id="clip0_661_2755">
<rect width="162" height="162" fill="white" transform="translate(0 0.5)"/>
</clipPath>
</defs>
</svg>
