<svg width="162" height="163" viewBox="0 0 162 163" fill="none" xmlns="http://www.w3.org/2000/svg">
<g clip-path="url(#clip0_661_2457)">
<path d="M78.4688 20.2134L15.1875 83.4896V162.5H146.812V88.552L78.4688 20.2134Z" fill="white"/>
<path d="M40.5 106.812H75.9375V162.5H40.5V106.812Z" fill="#02004E"/>
<path d="M86.0625 101.75H101.25V116.938H86.0625V101.75ZM106.312 101.75H121.5V116.938H106.312V101.75ZM106.312 81.5H121.5V96.6875H106.312V81.5ZM86.0625 81.5H101.25V96.6875H86.0625V81.5Z" fill="#486AE9"/>
<path d="M86.0625 81.5H101.25V86.5625H86.0625V81.5ZM106.312 81.5H121.5V86.5625H106.312V81.5ZM86.0625 101.75H101.25V106.812H86.0625V101.75ZM106.312 101.75H121.5V106.812H106.312V101.75Z" fill="black"/>
<path d="M78.4688 10.625L15.1875 76.4375V91.625L78.4688 28.3438L146.812 96.6875V81.5L78.4688 10.625Z" fill="black"/>
<path d="M160.193 80.4518L85.6274 5.88627L82.0482 2.30708C81.5785 1.83655 81.0205 1.46325 80.4064 1.20855C79.7922 0.953853 79.1339 0.822754 78.469 0.822754C77.8041 0.822754 77.1458 0.953853 76.5316 1.20855C75.9175 1.46325 75.3596 1.83655 74.8898 2.30708L71.3106 5.88627L1.80757 75.3893C1.33704 75.8591 0.963738 76.417 0.70904 77.0311C0.454342 77.6453 0.323242 78.3036 0.323242 78.9685C0.323242 79.6334 0.454342 80.2917 0.70904 80.9059C0.963738 81.52 1.33704 82.0779 1.80757 82.5477L5.38676 86.1269C5.8565 86.5974 6.41441 86.9707 7.02856 87.2254C7.64272 87.4801 8.30107 87.6112 8.96595 87.6112C9.63082 87.6112 10.2892 87.4801 10.9033 87.2254C11.5175 86.9707 12.0754 86.5974 12.5451 86.1269L78.469 20.2131L149.45 91.1944C149.92 91.665 150.478 92.0383 151.092 92.293C151.706 92.5477 152.365 92.6788 153.029 92.6788C153.694 92.6788 154.353 92.5477 154.967 92.293C155.581 92.0383 156.139 91.665 156.609 91.1944L160.188 87.6152C161.138 86.6657 161.672 85.3778 161.673 84.0346C161.674 82.6914 161.142 81.4027 160.193 80.4518Z" fill="#FF6587"/>
<path d="M37.6903 162.5C39.5109 159.435 40.4808 155.94 40.5 152.375C40.5 147.004 38.3665 141.854 34.5689 138.056C30.7713 134.258 25.6206 132.125 20.25 132.125C14.8794 132.125 9.7287 134.258 5.93109 138.056C2.13348 141.854 0 147.004 0 152.375C0 156.081 1.06819 159.508 2.80969 162.5H37.6903ZM141.75 132.125C137.869 132.129 134.071 133.251 130.81 135.356C127.55 137.462 124.964 140.461 123.363 143.997C121.229 142.865 118.853 142.266 116.438 142.25C112.41 142.25 108.547 143.85 105.698 146.698C102.85 149.547 101.25 153.41 101.25 157.438C101.25 159.225 101.615 160.91 102.182 162.5H159.195C161.012 159.434 161.98 155.939 162 152.375C162 147.004 159.867 141.854 156.069 138.056C152.271 134.258 147.121 132.125 141.75 132.125Z" fill="#3AAD73"/>
<path d="M123.363 143.997C121.229 142.865 118.853 142.266 116.438 142.25C112.41 142.25 108.547 143.85 105.698 146.698C102.85 149.547 101.25 153.41 101.25 157.438C101.25 159.225 101.615 160.91 102.182 162.5H124.31C122.489 159.435 121.519 155.94 121.5 152.375C121.5 149.378 122.194 146.558 123.363 143.997Z" fill="black"/>
</g>
<defs>
<clipPath id="clip0_661_2457">
<rect width="162" height="162" fill="white" transform="translate(0 0.5)"/>
</clipPath>
</defs>
</svg>
