<svg width="162" height="163" viewBox="0 0 162 163" fill="none" xmlns="http://www.w3.org/2000/svg">
<g clip-path="url(#clip0_661_1115)">
<path d="M10.6494 15.9019H151.91V162.009H10.6494V15.9019Z" fill="white"/>
<path d="M35.874 111.627H66.1442V162.009H35.874V111.627Z" fill="#02004E"/>
<path d="M96.4144 101.551H126.685V136.818H96.4144V101.551ZM96.4144 25.978H126.685V61.2452H96.4144V25.978ZM35.874 25.978H66.1442V61.2452H35.874V25.978Z" fill="#486AE9"/>
<path d="M96.4144 101.551H126.685V106.589H96.4144V101.551ZM96.4144 25.978H126.685V31.0162H96.4144V25.978ZM35.874 25.978H66.1442V31.0162H35.874V25.978Z" fill="black"/>
<path d="M10.6494 15.9019H151.91V20.94H10.6494V15.9019Z" fill="black"/>
<path d="M162 10.8634C162 12.1997 161.469 13.4811 160.523 14.426C159.577 15.3708 158.293 15.9016 156.955 15.9016H5.6046C4.26657 15.9016 2.98335 15.3708 2.03722 14.426C1.0911 13.4811 0.55957 12.1997 0.55957 10.8634V5.82528C0.55957 4.48907 1.0911 3.2076 2.03722 2.26276C2.98335 1.31792 4.26657 0.787109 5.6046 0.787109L156.955 0.787109C158.293 0.787109 159.577 1.31792 160.523 2.26276C161.469 3.2076 162 4.48907 162 5.82528V10.8634ZM162 86.436C162 87.7722 161.469 89.0537 160.523 89.9985C159.577 90.9434 158.293 91.4742 156.955 91.4742H5.6046C4.26657 91.4742 2.98335 90.9434 2.03722 89.9985C1.0911 89.0537 0.55957 87.7722 0.55957 86.436V81.3978C0.55957 80.0616 1.0911 78.7801 2.03722 77.8353C2.98335 76.8905 4.26657 76.3597 5.6046 76.3597H156.955C158.293 76.3597 159.577 76.8905 160.523 77.8353C161.469 78.7801 162 80.0616 162 81.3978V86.436Z" fill="#FF6587"/>
<path d="M38.1198 162.009C39.9341 158.959 40.9007 155.48 40.9198 151.932C40.9198 146.588 38.7937 141.462 35.0092 137.682C31.2247 133.903 26.0918 131.78 20.7397 131.78C15.3876 131.78 10.2547 133.903 6.47019 137.682C2.68568 141.462 0.55957 146.588 0.55957 151.932C0.55957 155.62 1.62407 159.031 3.35956 162.009H38.1198ZM141.82 131.78C137.953 131.784 134.168 132.9 130.918 134.996C127.669 137.091 125.093 140.076 123.497 143.594C121.37 142.469 119.002 141.872 116.595 141.856C112.581 141.856 108.731 143.449 105.893 146.283C103.055 149.118 101.46 152.962 101.46 156.971C101.46 158.749 101.823 160.427 102.388 162.009H159.206C161.016 158.957 161.981 155.479 162 151.932C162 146.588 159.874 141.462 156.09 137.682C152.305 133.903 147.172 131.78 141.82 131.78Z" fill="#3AAD73"/>
<path d="M123.497 143.594C121.37 142.468 119.002 141.872 116.595 141.856C112.581 141.856 108.731 143.448 105.893 146.283C103.055 149.117 101.46 152.962 101.46 156.97C101.46 158.749 101.823 160.427 102.388 162.009H124.44C122.626 158.958 121.659 155.48 121.64 151.932C121.64 148.95 122.331 146.143 123.497 143.594Z" fill="black"/>
<path d="M10.6494 91.4741H151.91V96.5123H10.6494V91.4741Z" fill="black"/>
</g>
<defs>
<clipPath id="clip0_661_1115">
<rect width="162" height="162" fill="white" transform="translate(0 0.5)"/>
</clipPath>
</defs>
</svg>
