<svg width="151" height="173" viewBox="0 0 151 173" fill="none" xmlns="http://www.w3.org/2000/svg">
<rect width="151" height="173" rx="16" fill="#F9F7F3"/>
<path d="M92.2689 105.691C88.8803 110.154 83.6672 113.189 77.8459 113.903V138.718C77.8459 139.075 77.5852 139.343 77.2377 139.343C76.8902 139.343 76.6295 139.075 76.6295 138.718V113.992C76.282 113.992 75.8475 113.992 75.5 113.992C75.4131 113.992 75.3262 113.992 75.2393 113.992V138.718C75.2393 139.075 74.9787 139.343 74.6311 139.343C74.2836 139.343 74.0229 139.075 74.0229 138.718V113.992C73.5016 113.992 73.0672 113.903 72.5459 113.814V138.718C72.5459 139.075 72.2852 139.343 71.9377 139.343C71.5902 139.343 71.3295 139.075 71.3295 138.718V113.635C66.2033 112.653 61.6852 109.797 58.6443 105.691C52.823 110.6 49 118.009 49 126.31C49 141.039 60.9033 153 75.5 153C90.0967 153 102 141.039 102 126.31C102 118.009 98.177 110.6 92.2689 105.691Z" fill="#FFD300"/>
<path d="M74.0226 70.8794C73.5013 70.8794 73.0669 70.8794 72.5456 70.9687V99.6217C73.0669 99.6217 73.5013 99.5324 74.0226 99.5324V70.8794Z" fill="#FF6587"/>
<path d="M53.3442 92.4804C53.3442 97.4791 54.9951 102.031 57.6885 105.691C61.5115 102.478 66.2901 100.335 71.5033 99.7106V71.0576C61.2508 72.4858 53.3442 81.5012 53.3442 92.4804Z" fill="#FF6587"/>
<path d="M75.2395 99.6213C75.7608 99.6213 76.1952 99.7105 76.7166 99.7105V71.0575C76.1952 70.9683 75.7608 70.9683 75.2395 70.9683V99.6213Z" fill="#FF6587"/>
<path d="M90.7051 105.691C93.3985 102.032 95.0493 97.4792 95.0493 92.4805C95.0493 81.7691 87.5772 72.9322 77.8461 71.147V99.8C82.6248 100.514 87.1428 102.656 90.7051 105.691Z" fill="#FF6587"/>
<path d="M72.0248 139.343C72.3723 139.343 72.633 139.075 72.633 138.718V113.814V99.6217V70.9687V36.96H71.5034V71.0579V99.711V113.547V138.718C71.4166 139.075 71.6772 139.343 72.0248 139.343Z" fill="#02004E"/>
<path d="M75.2397 70.8794V36.96H74.1102V70.8794V99.6217V113.993V138.718C74.1102 139.075 74.3708 139.343 74.7184 139.343C75.0659 139.343 75.3266 139.075 75.3266 138.718V113.993V99.6217V70.8794H75.2397Z" fill="#02004E"/>
<path d="M76.6294 71.0579V99.711V113.993V138.718C76.6294 139.075 76.89 139.343 77.2376 139.343C77.5851 139.343 77.8458 139.075 77.8458 138.718V113.904V99.8002V71.2365V36.96H76.7162V71.0579H76.6294Z" fill="#02004E"/>
<path d="M74.0229 36.9597H75.2393H76.6295H77.8459H83.7541V20H67.2459V36.9597H71.4164H72.6328H74.0229Z" fill="#FFD300"/>
</svg>
