<svg width="168" height="122" viewBox="0 0 168 122" fill="none" xmlns="http://www.w3.org/2000/svg">
<path d="M26.0355 31.0622C33.6998 31.0622 39.9129 24.7803 39.9129 17.0311C39.9129 9.28194 33.6998 3 26.0355 3C18.3713 3 12.1582 9.28194 12.1582 17.0311C12.1582 24.7803 18.3713 31.0622 26.0355 31.0622Z" stroke="#486AE9" stroke-width="4.81" stroke-linecap="round"/>
<path d="M10.7255 119V89.086C10.7251 88.3496 10.57 87.6217 10.2705 86.9505C9.97092 86.2793 9.53376 85.68 8.98794 85.1925L3.86906 80.4442C3.5919 80.204 3.3704 79.9051 3.22026 79.5686C3.07012 79.2322 2.99501 78.8665 3.00026 78.4974V47.6337C3.00643 46.2504 3.55267 44.9255 4.52012 43.9474C5.48757 42.9692 6.79794 42.4169 8.1661 42.4106H41.251C43.3082 42.4169 45.2791 43.2476 46.7316 44.7207C48.1841 46.1937 48.9998 48.189 48.9997 50.269V78.7586C49.0044 79.0877 48.9446 79.4145 48.8237 79.7201C48.7028 80.0257 48.5232 80.3041 48.2953 80.5392L43.3408 85.9047C42.4318 86.8715 41.9271 88.1557 41.9319 89.4896V119" stroke="#486AE9" stroke-width="4.81" stroke-linecap="round"/>
<path d="M68.5168 75.0311C72.3489 75.0311 75.4555 71.8901 75.4555 68.0156C75.4555 64.141 72.3489 61 68.5168 61C64.6847 61 61.5781 64.141 61.5781 68.0156C61.5781 71.8901 64.6847 75.0311 68.5168 75.0311Z" stroke="#486AE9" stroke-width="3.81" stroke-linecap="round"/>
<path d="M60.8628 119V104.043C60.8626 103.675 60.785 103.311 60.6352 102.975C60.4855 102.639 60.2669 102.34 59.994 102.096L57.4345 99.7219C57.296 99.6017 57.1852 99.4523 57.1101 99.2841C57.0351 99.1159 56.9975 98.933 57.0001 98.7485V83.3166C57.0032 82.625 57.2763 81.9625 57.7601 81.4734C58.2438 80.9843 58.899 80.7082 59.5831 80.7051H76.1255C77.1541 80.7082 78.1396 81.1236 78.8658 81.8601C79.5921 82.5966 79.9999 83.5942 79.9999 84.6343V98.879C80.0022 99.0436 79.9723 99.207 79.9118 99.3598C79.8514 99.5126 79.7616 99.6518 79.6477 99.7693L77.1704 102.452C76.7159 102.935 76.4636 103.578 76.466 104.245V119" stroke="#486AE9" stroke-width="3.81" stroke-linecap="round"/>
<path d="M99.5168 75.0311C103.349 75.0311 106.455 71.8901 106.455 68.0156C106.455 64.141 103.349 61 99.5168 61C95.6847 61 92.5781 64.141 92.5781 68.0156C92.5781 71.8901 95.6847 75.0311 99.5168 75.0311Z" stroke="#486AE9" stroke-width="3.81" stroke-linecap="round"/>
<path d="M91.8628 119V104.043C91.8626 103.675 91.785 103.311 91.6352 102.975C91.4855 102.639 91.2669 102.34 90.994 102.096L88.4345 99.7219C88.296 99.6017 88.1852 99.4523 88.1101 99.2841C88.0351 99.1159 87.9975 98.933 88.0001 98.7485V83.3166C88.0032 82.625 88.2763 81.9625 88.7601 81.4734C89.2438 80.9843 89.899 80.7082 90.5831 80.7051H107.125C108.154 80.7082 109.14 81.1236 109.866 81.8601C110.592 82.5966 111 83.5942 111 84.6343V98.879C111.002 99.0436 110.972 99.207 110.912 99.3598C110.851 99.5126 110.762 99.6518 110.648 99.7693L108.17 102.452C107.716 102.935 107.464 103.578 107.466 104.245V119" stroke="#486AE9" stroke-width="3.81" stroke-linecap="round"/>
<path d="M142.036 31.0622C149.7 31.0622 155.913 24.7803 155.913 17.0311C155.913 9.28194 149.7 3 142.036 3C134.371 3 128.158 9.28194 128.158 17.0311C128.158 24.7803 134.371 31.0622 142.036 31.0622Z" stroke="#486AE9" stroke-width="4.81" stroke-linecap="round"/>
<path d="M126.726 119V89.086C126.725 88.3496 126.57 87.6217 126.27 86.9505C125.971 86.2793 125.534 85.68 124.988 85.1925L119.869 80.4442C119.592 80.204 119.37 79.9051 119.22 79.5686C119.07 79.2322 118.995 78.8665 119 78.4974V47.6337C119.006 46.2504 119.553 44.9255 120.52 43.9474C121.488 42.9692 122.798 42.4169 124.166 42.4106H157.251C159.308 42.4169 161.279 43.2476 162.732 44.7207C164.184 46.1937 165 48.189 165 50.269V78.7586C165.004 79.0877 164.945 79.4145 164.824 79.7201C164.703 80.0257 164.523 80.3041 164.295 80.5392L159.341 85.9047C158.432 86.8715 157.927 88.1557 157.932 89.4896V119" stroke="#486AE9" stroke-width="4.81" stroke-linecap="round"/>
</svg>
