<svg width="151" height="173" viewBox="0 0 151 173" fill="none" xmlns="http://www.w3.org/2000/svg">
<rect width="151" height="173" rx="16" fill="#F9F7F3"/>
<g clip-path="url(#clip0_428_7196)">
<mask id="mask0_428_7196" style="mask-type:luminance" maskUnits="userSpaceOnUse" x="75" y="42" width="52" height="52">
<path d="M75.2247 42H126.45V93.7707H75.2247V42Z" fill="white"/>
</mask>
<g mask="url(#mask0_428_7196)">
<path fill-rule="evenodd" clip-rule="evenodd" d="M126.45 67.881C126.45 68.0717 126.45 68.2704 126.442 68.4603C126.442 68.5318 126.442 68.5954 126.434 68.6677C126.434 68.8505 126.426 69.0333 126.418 69.216C126.418 69.255 126.41 69.2947 126.41 69.3352C126.402 69.5887 126.387 69.8359 126.355 70.0822C126.347 70.2332 126.332 70.3762 126.316 70.5272C126.277 70.9007 126.237 71.2742 126.182 71.6476C126.143 71.9178 126.104 72.1959 126.049 72.4661C125.97 72.927 125.876 73.3879 125.765 73.8488C125.734 73.991 125.703 74.1349 125.663 74.27C125.6 74.5322 125.53 74.7857 125.459 75.0487C125.42 75.1917 125.372 75.3268 125.333 75.4699C125.223 75.8354 125.105 76.2009 124.979 76.5585C124.885 76.8367 124.783 77.106 124.673 77.377C124.665 77.3929 124.657 77.4167 124.649 77.4398C124.586 77.5987 124.523 77.7584 124.452 77.9094C124.374 78.116 124.279 78.3298 124.185 78.5372C124.114 78.7041 124.036 78.8709 123.957 79.0378C123.855 79.2524 123.745 79.4749 123.635 79.6886C123.556 79.8484 123.477 79.9993 123.399 80.1495C123.383 80.1742 123.375 80.198 123.36 80.221C123.226 80.4761 123.084 80.7304 122.943 80.976C122.77 81.2708 122.589 81.5568 122.408 81.8421C122.314 81.9939 122.212 82.1528 122.109 82.303C121.968 82.5104 121.826 82.725 121.677 82.9308C121.575 83.0826 121.473 83.2256 121.362 83.3686C121.221 83.5673 121.072 83.7572 120.914 83.9559C120.812 84.0838 120.71 84.2189 120.6 84.3532C120.34 84.6639 120.073 84.9817 119.798 85.2917C119.523 85.5936 119.24 85.8956 118.949 86.1896C118.658 86.4836 118.359 86.7697 118.06 87.0478C118.037 87.0637 118.013 87.0876 117.989 87.1114C117.722 87.3498 117.455 87.5882 117.18 87.8186C117.164 87.8337 117.148 87.8425 117.132 87.8584C116.999 87.9688 116.873 88.0729 116.739 88.1762C116.472 88.3908 116.205 88.5966 115.937 88.7952C115.607 89.0424 115.269 89.2808 114.931 89.5033C114.664 89.6852 114.396 89.8609 114.121 90.019C114.097 90.0357 114.074 90.0508 114.05 90.0595C113.909 90.1469 113.767 90.2343 113.626 90.313C113.618 90.3217 113.602 90.3297 113.586 90.3376C113.311 90.5045 113.028 90.6555 112.745 90.8065C112.659 90.8542 112.58 90.8939 112.501 90.9336C112.226 91.0846 111.943 91.2197 111.66 91.346C111.566 91.3945 111.471 91.4414 111.377 91.4819C111.125 91.6011 110.866 91.7124 110.606 91.8157C110.481 91.8705 110.355 91.9269 110.229 91.9738C109.922 92.0938 109.616 92.213 109.309 92.3163C109.026 92.4196 108.743 92.515 108.452 92.6016C107.949 92.7685 107.438 92.9123 106.911 93.0394C106.518 93.134 106.125 93.2222 105.732 93.2929C105.331 93.3732 104.922 93.4447 104.513 93.5003C104.128 93.5631 103.734 93.6116 103.341 93.6434C103.286 93.6513 103.239 93.6585 103.184 93.6585C102.815 93.699 102.445 93.7228 102.068 93.7387C101.659 93.7618 101.25 93.7705 100.841 93.7705C100.432 93.7705 100.023 93.7618 99.6145 93.7387C99.2371 93.7228 98.8676 93.699 98.498 93.6585C98.443 93.6585 98.3958 93.6513 98.3408 93.6434C97.9476 93.6116 97.5545 93.5631 97.1692 93.5003C96.7604 93.4447 96.3515 93.3732 95.9505 93.2929C95.5574 93.2222 95.1643 93.134 94.7711 93.0394C94.3151 92.9282 93.8669 92.8002 93.4266 92.6651C93.0728 92.5547 92.719 92.4434 92.3731 92.3163C92.0664 92.213 91.7598 92.0938 91.4531 91.9738C91.3273 91.9269 91.2015 91.8705 91.0757 91.8157C90.7298 91.6806 90.3917 91.5296 90.0614 91.3707C89.7627 91.2356 89.4718 91.0926 89.1808 90.9336C89.1022 90.8939 89.0157 90.8542 88.9371 90.8065C88.6462 90.6555 88.3631 90.5045 88.0879 90.3376C87.915 90.2343 87.7341 90.131 87.5611 90.019C87.286 89.8609 87.0186 89.6852 86.7513 89.5033C86.4132 89.2808 86.0751 89.0424 85.7449 88.7952C85.4697 88.5966 85.2102 88.3908 84.9429 88.1762C84.8092 88.0729 84.6756 87.9688 84.5498 87.8584C84.534 87.8504 84.5183 87.8337 84.5026 87.8186C84.2274 87.5882 83.9601 87.3498 83.6927 87.1114C83.3625 86.8086 83.048 86.5067 82.7335 86.1896C82.419 85.8717 82.1202 85.5539 81.8214 85.2193C81.5698 84.9341 81.3182 84.648 81.0745 84.3532C81.0352 84.2984 80.988 84.2427 80.9487 84.1943C80.6814 83.8605 80.4298 83.5268 80.186 83.1938C79.9344 82.8442 79.6907 82.4945 79.4548 82.1449C79.4548 82.129 79.4391 82.1131 79.4312 82.1043C79.2582 81.835 79.0931 81.5719 78.9359 81.3026C78.8651 81.1992 78.8022 81.088 78.7393 80.976C78.5506 80.6502 78.3698 80.3251 78.2047 79.9993C78.1418 79.8873 78.0867 79.7768 78.0317 79.6656C77.8902 79.3867 77.7486 79.1093 77.6228 78.8233C77.5756 78.7271 77.5285 78.6318 77.4892 78.5372C77.3555 78.2344 77.2297 77.9325 77.1039 77.6234C76.9466 77.234 76.7973 76.8438 76.6636 76.4465C76.5299 76.0492 76.4041 75.6518 76.2862 75.2545C76.0503 74.4527 75.8537 73.6422 75.6965 72.8237C75.6179 72.4184 75.5471 72.0044 75.4921 71.6C75.437 71.2416 75.3977 70.884 75.3584 70.5272C75.3505 70.4318 75.3427 70.3444 75.3348 70.2483C75.2955 69.8756 75.2719 69.5021 75.2562 69.1207C75.2326 68.7075 75.2247 68.2942 75.2247 67.881C75.2247 61.2617 77.7329 54.6343 82.7335 49.5804C92.7347 39.4725 108.947 39.4725 118.949 49.5804C123.952 54.6375 126.447 61.2553 126.441 67.881H126.45Z" fill="#FF6587"/>
</g>
<mask id="mask1_428_7196" style="mask-type:luminance" maskUnits="userSpaceOnUse" x="24" y="42" width="95" height="89">
<path d="M24 42H118.949V130.379H24V42Z" fill="white"/>
</mask>
<g mask="url(#mask1_428_7196)">
<path fill-rule="evenodd" clip-rule="evenodd" d="M102.925 102.384H47.5327L75.2248 130.379L31.5009 86.1896C21.4997 76.0738 21.4997 59.6883 31.5009 49.5804C41.5021 39.4725 57.7227 39.4725 67.7239 49.5804C72.7245 54.6343 75.2248 61.2617 75.2248 67.881C75.2248 68.2942 75.2327 68.7075 75.2563 69.1207C75.272 69.5021 75.2956 69.8756 75.3349 70.2491C75.3428 70.3444 75.3506 70.4318 75.3585 70.5272C75.3899 70.8927 75.4371 71.2503 75.4921 71.6C75.5472 72.0132 75.6101 72.4184 75.6966 72.8237C75.846 73.6501 76.0425 74.4599 76.2863 75.2545C76.3963 75.6606 76.5221 76.0579 76.6637 76.4465C76.7973 76.8438 76.9467 77.234 77.104 77.6233C77.2219 77.9325 77.3556 78.2344 77.4892 78.5372C77.5286 78.6318 77.5757 78.7271 77.6229 78.8233C77.7487 79.1093 77.8902 79.3875 78.0318 79.6656C78.0868 79.7768 78.1418 79.8873 78.2047 79.9993C78.3699 80.3331 78.5507 80.6589 78.7394 80.9767C78.8023 81.088 78.8652 81.1992 78.936 81.3025C79.0932 81.5727 79.2662 81.8421 79.4313 82.1043C79.4392 82.1131 79.4549 82.129 79.4549 82.1449C79.6908 82.5017 79.9345 82.8521 80.1861 83.1938C80.4299 83.5355 80.6815 83.8692 80.9488 84.1943C80.9881 84.2427 81.0353 84.2984 81.0746 84.354C81.3183 84.648 81.5621 84.9341 81.8215 85.2193C82.1124 85.5539 82.4191 85.8789 82.7336 86.1896C83.0481 86.5154 83.3626 86.8174 83.6928 87.1114C83.9602 87.3577 84.2275 87.5961 84.5027 87.8186C84.5184 87.8337 84.5341 87.8504 84.5499 87.8584C84.6835 87.9688 84.8093 88.0729 84.943 88.1762C85.2103 88.3908 85.4698 88.5966 85.745 88.7952C86.0752 89.0424 86.4133 89.2808 86.7514 89.5033C87.0187 89.686 87.286 89.8521 87.5612 90.019C87.7342 90.131 87.915 90.2343 88.088 90.3376C88.3711 90.5045 88.6541 90.6555 88.9372 90.8065C89.0158 90.8542 89.1023 90.8939 89.1809 90.9336C89.4718 91.0846 89.7627 91.2356 90.0615 91.3707C90.3996 91.5296 90.7299 91.6806 91.0758 91.8157C91.2016 91.8713 91.3274 91.9269 91.4532 91.9738C91.752 92.0938 92.0665 92.213 92.3731 92.3163C92.7191 92.4434 93.0729 92.5626 93.4267 92.6659C93.867 92.8002 94.3152 92.9282 94.7712 93.0394C95.1565 93.134 95.5496 93.2222 95.9506 93.2937C96.3516 93.3732 96.7605 93.4447 97.1693 93.5003C97.5546 93.5631 97.9477 93.6116 98.3408 93.6434C98.3959 93.6513 98.4431 93.6592 98.4981 93.6592C98.8676 93.699 99.245 93.7228 99.6146 93.7387C100.023 93.7618 100.432 93.7705 100.841 93.7705C101.25 93.7705 101.659 93.7618 102.068 93.7387C102.437 93.7228 102.815 93.699 103.184 93.6592C103.239 93.6592 103.286 93.6513 103.341 93.6434C103.735 93.6116 104.128 93.5631 104.513 93.5003C104.922 93.4447 105.331 93.3732 105.732 93.2937C106.133 93.2222 106.526 93.134 106.911 93.0394C107.438 92.9123 107.949 92.7685 108.452 92.6016C108.743 92.515 109.026 92.4196 109.309 92.3163C109.616 92.213 109.922 92.0938 110.229 91.9738C110.355 91.9269 110.481 91.8713 110.606 91.8157C110.866 91.7124 111.125 91.6011 111.377 91.4819C111.471 91.4414 111.566 91.3945 111.66 91.346C111.943 91.2197 112.226 91.0767 112.501 90.9336C112.58 90.8939 112.659 90.8542 112.745 90.8065C113.028 90.6555 113.311 90.5045 113.586 90.3376C113.602 90.3297 113.618 90.3217 113.626 90.3138C113.767 90.2343 113.909 90.1541 114.05 90.0595C114.074 90.0508 114.097 90.0357 114.121 90.019C114.396 89.8521 114.664 89.6781 114.931 89.5033C115.269 89.2728 115.607 89.0424 115.937 88.7952C116.205 88.5966 116.472 88.3908 116.739 88.1762C116.873 88.0729 116.999 87.9688 117.132 87.8584C117.148 87.8425 117.164 87.8337 117.18 87.8186C117.455 87.5882 117.722 87.3498 117.989 87.1114C118.013 87.0875 118.037 87.0637 118.06 87.0478C118.359 86.7697 118.658 86.4836 118.949 86.1896L102.925 102.384Z" fill="#FF6587"/>
</g>
<path fill-rule="evenodd" clip-rule="evenodd" d="M76.2863 75.2549C76.0426 74.4602 75.846 73.6497 75.6967 72.8232C75.8539 73.6425 76.0505 74.4523 76.2863 75.2549Z" fill="#FF6587"/>
<path fill-rule="evenodd" clip-rule="evenodd" d="M47.5326 102.384H102.925L75.2247 130.379L47.5326 102.384Z" fill="#FF6587"/>
<path fill-rule="evenodd" clip-rule="evenodd" d="M126.45 67.8813C126.45 68.0721 126.45 68.2707 126.442 68.4606C126.442 68.5322 126.442 68.5957 126.434 68.668C126.434 68.8508 126.426 69.0336 126.418 69.2163C126.418 69.2553 126.41 69.295 126.41 69.3355C126.402 69.589 126.387 69.8362 126.355 70.0825C126.347 70.2335 126.332 70.3765 126.316 70.5275C126.277 70.901 126.237 71.2745 126.182 71.648C126.143 71.9181 126.104 72.1963 126.049 72.4664C125.97 72.9273 125.876 73.3882 125.765 73.8491C125.734 73.9914 125.703 74.1352 125.663 74.2703C125.6 74.5325 125.53 74.786 125.459 75.049C125.42 75.1921 125.372 75.3272 125.333 75.4702C125.223 75.8357 125.105 76.2013 124.979 76.5588C124.885 76.837 124.783 77.1064 124.673 77.3773C124.665 77.3932 124.657 77.4171 124.649 77.4401C124.586 77.599 124.523 77.7588 124.452 77.9097C124.374 78.1164 124.279 78.3301 124.185 78.5375C124.114 78.7044 124.036 78.8713 123.957 79.0381C123.855 79.2527 123.745 79.4752 123.635 79.6889C123.556 79.8487 123.477 79.9997 123.399 80.1498C123.383 80.1745 123.375 80.1983 123.36 80.2214C123.226 80.4764 123.084 80.7307 122.943 80.9763C122.77 81.2711 122.589 81.5572 122.408 81.8424C122.314 81.9942 122.212 82.1531 122.109 82.3033C121.968 82.5107 121.826 82.7253 121.677 82.9311C121.575 83.0829 121.473 83.2259 121.362 83.3689C121.221 83.5676 121.072 83.7575 120.914 83.9562C120.812 84.0841 120.71 84.2192 120.6 84.3535C120.34 84.6642 120.073 84.9821 119.798 85.292C119.523 85.5939 119.24 85.8959 118.949 86.1899C118.658 86.4839 118.359 86.77 118.06 87.0481C118.037 87.064 118.013 87.0879 117.989 87.1117C117.722 87.3501 117.455 87.5885 117.18 87.8189C117.164 87.834 117.148 87.8428 117.132 87.8587C116.999 87.9691 116.873 88.0732 116.739 88.1765C116.472 88.3911 116.205 88.5969 115.937 88.7956C115.607 89.0427 115.269 89.2811 114.931 89.5036C114.664 89.6856 114.396 89.8612 114.121 90.0193C114.097 90.036 114.074 90.0511 114.05 90.0598C113.909 90.1472 113.767 90.2347 113.626 90.3133C113.618 90.3221 113.602 90.33 113.586 90.338C113.311 90.5048 113.028 90.6558 112.745 90.8068C112.659 90.8545 112.58 90.8942 112.501 90.9339C112.226 91.0849 111.943 91.22 111.66 91.3464C111.566 91.3948 111.471 91.4417 111.377 91.4822C111.125 91.6014 110.866 91.7127 110.606 91.816C110.481 91.8708 110.355 91.9272 110.229 91.9741C109.922 92.0941 109.616 92.2133 109.309 92.3166C109.026 92.4199 108.743 92.5153 108.452 92.6019C107.949 92.7688 107.438 92.9126 106.911 93.0397C106.518 93.1343 106.125 93.2225 105.732 93.2932C105.331 93.3735 104.922 93.445 104.513 93.5006C104.128 93.5634 103.734 93.6119 103.341 93.6437C103.286 93.6516 103.239 93.6588 103.184 93.6588C102.815 93.6993 102.445 93.7231 102.068 93.739C101.659 93.7621 101.25 93.7708 100.841 93.7708C100.432 93.7708 100.023 93.7621 99.6145 93.739C99.2371 93.7231 98.8676 93.6993 98.498 93.6588C98.443 93.6588 98.3958 93.6516 98.3408 93.6437C97.9476 93.6119 97.5545 93.5634 97.1692 93.5006C96.7604 93.445 96.3515 93.3735 95.9505 93.2932C95.5574 93.2225 95.1643 93.1343 94.7711 93.0397C94.3151 92.9285 93.8669 92.8006 93.4266 92.6655C93.0728 92.555 92.719 92.4438 92.373 92.3166C92.0664 92.2133 91.7598 92.0941 91.4531 91.9741C91.3273 91.9272 91.2015 91.8708 91.0757 91.816C90.7298 91.6809 90.3917 91.5299 90.0614 91.371C89.7627 91.2359 89.4718 91.0929 89.1808 90.9339C89.1022 90.8942 89.0157 90.8545 88.9371 90.8068C88.6462 90.6558 88.3631 90.5048 88.0879 90.338C87.915 90.2347 87.7341 90.1313 87.5611 90.0193C87.2859 89.8612 87.0186 89.6856 86.7513 89.5036C86.4132 89.2811 86.0751 89.0427 85.7449 88.7956C85.4697 88.5969 85.2102 88.3911 84.9429 88.1765C84.8092 88.0732 84.6756 87.9691 84.5498 87.8587C84.534 87.8507 84.5183 87.834 84.5026 87.8189C84.2274 87.5885 83.9601 87.3501 83.6927 87.1117C83.3625 86.8089 83.048 86.507 82.7335 86.1899C82.419 85.8721 82.1202 85.5542 81.8214 85.2197C81.5698 84.9344 81.3182 84.6483 81.0745 84.3535C81.0352 84.2987 80.988 84.243 80.9487 84.1946C80.6814 83.8608 80.4298 83.5271 80.186 83.1941C79.9344 82.8445 79.6907 82.4948 79.4548 82.1452C79.4548 82.1293 79.4391 82.1134 79.4312 82.1047C79.2582 81.8353 79.0931 81.5722 78.9359 81.3029C78.8651 81.1996 78.8022 81.0883 78.7393 80.9763C78.5506 80.6505 78.3698 80.3255 78.2047 79.9997C78.1418 79.8876 78.0867 79.7772 78.0317 79.6659C77.8902 79.387 77.7486 79.1097 77.6228 78.8236C77.5756 78.7274 77.5285 78.6321 77.4892 78.5375C77.3555 78.2347 77.2297 77.9328 77.1039 77.6237C76.9466 77.2343 76.7972 76.8441 76.6636 76.4468C76.5299 76.0495 76.4041 75.6522 76.2862 75.2548C76.0424 74.4602 75.8459 73.6505 75.6965 72.824C75.6179 72.4188 75.5471 72.0047 75.4921 71.6003C75.437 71.2419 75.3977 70.8843 75.3584 70.5275C75.3505 70.4322 75.3427 70.3447 75.3348 70.2486C75.2955 69.8759 75.2719 69.5024 75.2562 69.121C75.2326 68.7078 75.2247 68.2946 75.2247 67.8813H126.45Z" fill="#FFD300"/>
<path fill-rule="evenodd" clip-rule="evenodd" d="M102.925 102.384L75.2248 130.379L47.5327 102.384H102.925Z" fill="#02004E"/>
</g>
<defs>
<clipPath id="clip0_428_7196">
<rect width="103" height="89" fill="white" transform="translate(24 42)"/>
</clipPath>
</defs>
</svg>
