<svg width="50" height="122" viewBox="0 0 50 122" fill="none" xmlns="http://www.w3.org/2000/svg">
<path d="M25.0337 31.0622C32.3648 31.0622 38.3077 24.7803 38.3077 17.0311C38.3077 9.28194 32.3648 3 25.0337 3C17.7027 3 11.7598 9.28194 11.7598 17.0311C11.7598 24.7803 17.7027 31.0622 25.0337 31.0622Z" stroke="#486AE9" stroke-width="4.81" stroke-linecap="round"/>
<path d="M10.3896 119V89.086C10.3893 88.3496 10.2409 87.6217 9.95436 86.9505C9.66783 86.2793 9.24968 85.68 8.72759 85.1925L3.83127 80.4442C3.56617 80.204 3.3543 79.9051 3.21069 79.5686C3.06707 79.2322 2.99523 78.8665 3.00025 78.4974V47.6337C3.00615 46.2504 3.52864 44.9255 4.45403 43.9474C5.37941 42.9692 6.63281 42.4169 7.94149 42.4106H39.5879C41.5557 42.4169 43.4409 43.2476 44.8302 44.7207C46.2196 46.1937 46.9998 48.189 46.9998 50.269V78.7586C47.0042 79.0877 46.947 79.4145 46.8313 79.7201C46.7157 80.0257 46.5439 80.3041 46.326 80.5392L41.5869 85.9047C40.7174 86.8715 40.2346 88.1557 40.2392 89.4896V119" stroke="#486AE9" stroke-width="4.81" stroke-linecap="round"/>
</svg>
