<svg width="98" height="108" viewBox="0 0 98 108" fill="none" xmlns="http://www.w3.org/2000/svg">
<path d="M22.0283 27.6754C28.3597 27.6754 33.4922 22.1516 33.4922 15.3377C33.4922 8.52377 28.3597 3 22.0283 3C15.697 3 10.5645 8.52377 10.5645 15.3377C10.5645 22.1516 15.697 27.6754 22.0283 27.6754Z" stroke="#486AE9" stroke-width="4.81" stroke-linecap="round"/>
<path d="M9.38197 105V78.6964C9.38163 78.0489 9.2535 77.4089 9.00604 76.8186C8.75858 76.2284 8.39745 75.7015 7.94656 75.2728L3.71792 71.0976C3.48896 70.8864 3.30599 70.6235 3.18196 70.3277C3.05793 70.0319 2.99588 69.7103 3.00021 69.3858V42.247C3.00531 41.0306 3.45656 39.8657 4.25575 39.0055C5.05495 38.1454 6.13743 37.6598 7.26765 37.6543H34.5986C36.2981 37.6598 37.9262 38.3903 39.1261 39.6855C40.326 40.9808 40.9998 42.7352 40.9998 44.5642V69.6154C41.0036 69.9048 40.9542 70.1922 40.8543 70.4609C40.7545 70.7296 40.6061 70.9744 40.4179 71.1811L36.325 75.8991C35.5741 76.7492 35.1572 77.8784 35.1612 79.0513V105" stroke="#486AE9" stroke-width="4.81" stroke-linecap="round"/>
<path d="M76.0293 27.6754C82.3606 27.6754 87.4932 22.1516 87.4932 15.3377C87.4932 8.52377 82.3606 3 76.0293 3C69.698 3 64.5654 8.52377 64.5654 15.3377C64.5654 22.1516 69.698 27.6754 76.0293 27.6754Z" stroke="#486AE9" stroke-width="4.81" stroke-linecap="round"/>
<path d="M63.382 105V78.6965C63.3816 78.0489 63.2535 77.4089 63.006 76.8186C62.7586 76.2284 62.3975 75.7015 61.9466 75.2728L57.7179 71.0976C57.489 70.8864 57.306 70.6235 57.182 70.3277C57.0579 70.0319 56.9959 69.7103 57.0002 69.3858V42.247C57.0053 41.0306 57.4566 39.8657 58.2558 39.0055C59.0549 38.1454 60.1374 37.6598 61.2676 37.6543H88.5986C90.2981 37.6598 91.9262 38.3903 93.1261 39.6855C94.326 40.9808 94.9998 42.7352 94.9998 44.5642V69.6154C95.0036 69.9048 94.9542 70.1922 94.8543 70.4609C94.7545 70.7296 94.6061 70.9744 94.4179 71.1811L90.325 75.8991C89.5741 76.7492 89.1572 77.8784 89.1612 79.0513V105" stroke="#486AE9" stroke-width="4.81" stroke-linecap="round"/>
</svg>
