<svg width="22" height="22" viewBox="0 0 22 22" fill="none" xmlns="http://www.w3.org/2000/svg">
<path d="M20.4531 14.7124L15.4845 12.4859L15.4707 12.4796C15.2128 12.3693 14.9314 12.325 14.6521 12.3508C14.3727 12.3766 14.1042 12.4716 13.8708 12.6272C13.8433 12.6454 13.8169 12.6651 13.7917 12.6863L11.2246 14.8748C9.59825 14.0848 7.91919 12.4184 7.12923 10.8132L9.32087 8.20705C9.34196 8.18069 9.362 8.15432 9.38099 8.12584C9.53331 7.89307 9.62573 7.62626 9.65002 7.34914C9.67431 7.07202 9.62971 6.7932 9.5202 6.53748V6.52483L7.28743 1.54776C7.14266 1.2137 6.89374 0.93542 6.57782 0.75446C6.2619 0.5735 5.89593 0.499566 5.53454 0.543693C4.10541 0.731751 2.7936 1.4336 1.84412 2.51817C0.89464 3.60273 0.372426 4.99584 0.37501 6.43729C0.37501 14.8115 7.18829 21.6248 15.5625 21.6248C17.004 21.6274 18.3971 21.1052 19.4816 20.1557C20.5662 19.2062 21.268 17.8944 21.4561 16.4653C21.5003 16.104 21.4265 15.7381 21.2458 15.4222C21.065 15.1063 20.787 14.8573 20.4531 14.7124ZM15.5625 19.9373C11.9833 19.9334 8.55178 18.5098 6.02088 15.9789C3.48999 13.448 2.06642 10.0165 2.06251 6.43729C2.05854 5.40737 2.42959 4.41123 3.10637 3.63488C3.78315 2.85854 4.71938 2.35508 5.7402 2.21854C5.73979 2.22274 5.73979 2.22698 5.7402 2.23119L7.95505 7.18822L5.77501 9.79752C5.75288 9.82298 5.73278 9.85013 5.71489 9.87873C5.55618 10.1223 5.46307 10.4027 5.44459 10.6928C5.42611 10.9829 5.48289 11.2729 5.60942 11.5346C6.56497 13.4889 8.53407 15.4433 10.5095 16.3978C10.7731 16.5231 11.0648 16.5779 11.3559 16.5568C11.6471 16.5358 11.9278 16.4395 12.1706 16.2775C12.1977 16.2593 12.2238 16.2396 12.2487 16.2185L14.8126 14.031L19.7697 16.2512H19.7813C19.6464 17.2734 19.1437 18.2115 18.3672 18.89C17.5907 19.5684 16.5936 19.9408 15.5625 19.9373Z" fill="#486AE9"/>
</svg>
