<svg width="46" height="77" viewBox="0 0 46 77" fill="none" xmlns="http://www.w3.org/2000/svg">
<path d="M43.8943 12.7173C41.9303 8.98435 38.8555 5.874 35.0464 3.61784C31.2391 1.37167 26.6431 0.000107371 21.655 0.000107371C15.5064 -0.0151007 10.398 1.58682 6.54247 3.80526C2.67157 6.0158 1.00256 8.58954 1.00256 8.58954C0.352038 9.15403 -0.0148937 9.97526 0.000463496 10.8344C0.0180572 11.6947 0.414212 12.5022 1.08486 13.0386L6.44243 17.3297C7.53443 18.204 9.09728 18.1712 10.1513 17.2525C10.1513 17.2525 10.8094 16.063 12.8719 14.8848C14.9458 13.7144 17.6348 12.7716 21.655 12.7589C25.1613 12.7513 28.2186 14.0598 30.3051 15.8478C31.3416 16.7336 32.1159 17.7256 32.5905 18.633C33.0688 19.5479 33.2434 20.3476 33.241 20.955C33.2309 23.0075 32.8322 24.35 32.2565 25.4939C31.8174 26.3481 31.2443 27.1061 30.5064 27.8413C29.4054 28.9423 27.9124 29.9596 26.2371 30.8947C24.5605 31.8412 22.7534 32.6738 20.9274 33.6799C18.8433 34.8339 16.6378 36.4916 15.008 38.9795C14.1956 40.2094 13.5603 41.6164 13.1568 43.1007C12.748 44.5863 12.5634 46.1441 12.5634 47.7333C12.5634 49.4289 12.5634 50.8209 12.5634 50.8209C12.5634 52.4191 13.8591 53.7149 15.4574 53.7149H22.4296C24.0277 53.7149 25.3236 52.4191 25.3236 50.8209C25.3236 50.8209 25.3236 49.4289 25.3236 47.7333C25.3236 47.121 25.3932 46.7262 25.4603 46.4755C25.5755 46.101 25.6401 46.0074 25.8286 45.7796C26.0209 45.5631 26.4093 45.2318 27.1254 44.8356C28.1719 44.2473 29.8536 43.4526 31.7579 42.4238C34.6088 40.8648 38.0748 38.7491 40.9979 35.2578C42.4519 33.5154 43.7374 31.4173 44.6244 29.0004C45.5191 26.5835 46.0024 23.8668 46 20.955C45.9973 18.0053 45.1975 15.2037 43.8943 12.7173Z" fill="#FF6587"/>
<path d="M18.9458 60.353C14.5993 60.353 11.0752 63.8783 11.0752 68.2237C11.0752 72.5678 14.5994 76.0919 18.9458 76.0919C23.29 76.0919 26.8127 72.5678 26.8127 68.2237C26.8127 63.8783 23.29 60.353 18.9458 60.353Z" fill="#FF6587"/>
</svg>
