<svg width="153" height="122" viewBox="0 0 153 122" fill="none" xmlns="http://www.w3.org/2000/svg">
<path d="M26.0355 31.0622C33.6998 31.0622 39.9129 24.7803 39.9129 17.0311C39.9129 9.28194 33.6998 3 26.0355 3C18.3713 3 12.1582 9.28194 12.1582 17.0311C12.1582 24.7803 18.3713 31.0622 26.0355 31.0622Z" stroke="#486AE9" stroke-width="4.81" stroke-linecap="round"/>
<path d="M10.7255 119V89.086C10.7251 88.3496 10.57 87.6217 10.2705 86.9505C9.97092 86.2793 9.53376 85.68 8.98794 85.1925L3.86906 80.4442C3.5919 80.204 3.3704 79.9051 3.22026 79.5686C3.07012 79.2322 2.99501 78.8665 3.00026 78.4974V47.6337C3.00643 46.2504 3.55267 44.9255 4.52012 43.9474C5.48757 42.9692 6.79794 42.4169 8.1661 42.4106H41.251C43.3082 42.4169 45.2791 43.2476 46.7316 44.7207C48.1841 46.1937 48.9998 48.189 48.9997 50.269V78.7586C49.0044 79.0877 48.9446 79.4145 48.8237 79.7201C48.7028 80.0257 48.5232 80.3041 48.2953 80.5392L43.3408 85.9047C42.4318 86.8715 41.9271 88.1557 41.9319 89.4896V119" stroke="#486AE9" stroke-width="4.81" stroke-linecap="round"/>
<path d="M76.5168 75.0311C80.3489 75.0311 83.4555 71.8901 83.4555 68.0156C83.4555 64.141 80.3489 61 76.5168 61C72.6847 61 69.5781 64.141 69.5781 68.0156C69.5781 71.8901 72.6847 75.0311 76.5168 75.0311Z" stroke="#486AE9" stroke-width="3.81" stroke-linecap="round"/>
<path d="M68.8628 119V104.043C68.8626 103.675 68.785 103.311 68.6352 102.975C68.4855 102.639 68.2669 102.34 67.994 102.096L65.4345 99.7219C65.296 99.6017 65.1852 99.4523 65.1101 99.2841C65.0351 99.1159 64.9975 98.933 65.0001 98.7485V83.3166C65.0032 82.625 65.2763 81.9625 65.7601 81.4734C66.2438 80.9843 66.899 80.7082 67.5831 80.7051H84.1255C85.1541 80.7082 86.1396 81.1236 86.8658 81.8601C87.5921 82.5966 87.9999 83.5942 87.9999 84.6343V98.879C88.0022 99.0436 87.9723 99.207 87.9118 99.3598C87.8514 99.5126 87.7616 99.6518 87.6477 99.7693L85.1704 102.452C84.7159 102.935 84.4636 103.578 84.466 104.245V119" stroke="#486AE9" stroke-width="3.81" stroke-linecap="round"/>
<path d="M127.036 31.0622C134.7 31.0622 140.913 24.7803 140.913 17.0311C140.913 9.28194 134.7 3 127.036 3C119.371 3 113.158 9.28194 113.158 17.0311C113.158 24.7803 119.371 31.0622 127.036 31.0622Z" stroke="#486AE9" stroke-width="4.81" stroke-linecap="round"/>
<path d="M111.726 119V89.086C111.725 88.3496 111.57 87.6217 111.27 86.9505C110.971 86.2793 110.534 85.68 109.988 85.1925L104.869 80.4442C104.592 80.204 104.37 79.9051 104.22 79.5686C104.07 79.2322 103.995 78.8665 104 78.4974V47.6337C104.006 46.2504 104.553 44.9255 105.52 43.9474C106.488 42.9692 107.798 42.4169 109.166 42.4106H142.251C144.308 42.4169 146.279 43.2476 147.732 44.7207C149.184 46.1937 150 48.189 150 50.269V78.7586C150.004 79.0877 149.945 79.4145 149.824 79.7201C149.703 80.0257 149.523 80.3041 149.295 80.5392L144.341 85.9047C143.432 86.8715 142.927 88.1557 142.932 89.4896V119" stroke="#486AE9" stroke-width="4.81" stroke-linecap="round"/>
</svg>
